0
SECTION
2
ENTITIES
0
LINE
8
ROOM
10
0
20
0
30
0
11
2324
21
0
31
0
0
LINE
8
ROOM
10
2324
20
0
30
0
11
2324
21
4746
31
0
0
LINE
8
ROOM
10
2324
20
4746
30
0
11
0
21
4746
31
0
0
LINE
8
ROOM
10
0
20
4746
30
0
11
0
21
0
31
0
0
LINE
8
DOOR
10
612
20
0
30
0
11
1712
21
0
31
0
0
LINE
8
DOOR
10
1712
20
0
30
0
11
1712
21
110
31
0
0
LINE
8
DOOR
10
1712
20
110
30
0
11
612
21
110
31
0
0
LINE
8
DOOR
10
612
20
110
30
0
11
612
21
0
31
0
0
LINE
8
WINDOW
10
612
20
4636
30
0
11
1712
21
4636
31
0
0
LINE
8
WINDOW
10
1712
20
4636
30
0
11
1712
21
4746
31
0
0
LINE
8
WINDOW
10
1712
20
4746
30
0
11
612
21
4746
31
0
0
LINE
8
WINDOW
10
612
20
4746
30
0
11
612
21
4636
31
0
0
LINE
8
EAST_CABINETS
10
1724
20
0
30
0
11
2324
21
0
31
0
0
LINE
8
EAST_CABINETS
10
2324
20
0
30
0
11
2324
21
4746
31
0
0
LINE
8
EAST_CABINETS
10
2324
20
4746
30
0
11
1724
21
4746
31
0
0
LINE
8
EAST_CABINETS
10
1724
20
4746
30
0
11
1724
21
0
31
0
0
LINE
8
WEST_CABINETS
10
0
20
1220
30
0
11
400
21
1220
31
0
0
LINE
8
WEST_CABINETS
10
400
20
1220
30
0
11
400
21
4746
31
0
0
LINE
8
WEST_CABINETS
10
400
20
4746
30
0
11
0
21
4746
31
0
0
LINE
8
WEST_CABINETS
10
0
20
4746
30
0
11
0
21
1220
31
0
0
LINE
8
WEST_DOOR_CLEAR
10
0
20
0
30
0
11
400
21
0
31
0
0
LINE
8
WEST_DOOR_CLEAR
10
400
20
0
30
0
11
400
21
1220
31
0
0
LINE
8
WEST_DOOR_CLEAR
10
400
20
1220
30
0
11
0
21
1220
31
0
0
LINE
8
WEST_DOOR_CLEAR
10
0
20
1220
30
0
11
0
21
0
31
0
0
LINE
8
WINDOW_BELOW_REFERENCE
10
612
20
4446
30
0
11
1712
21
4446
31
0
0
LINE
8
WINDOW_BELOW_REFERENCE
10
1712
20
4446
30
0
11
1712
21
4746
31
0
0
LINE
8
WINDOW_BELOW_REFERENCE
10
1712
20
4746
30
0
11
612
21
4746
31
0
0
LINE
8
WINDOW_BELOW_REFERENCE
10
612
20
4746
30
0
11
612
21
4446
31
0
0
LINE
8
EAST_GAS
10
1724
20
2000
30
0
11
2324
21
2000
31
0
0
LINE
8
EAST_GAS
10
2324
20
2000
30
0
11
2324
21
2700
31
0
0
LINE
8
EAST_GAS
10
2324
20
2700
30
0
11
1724
21
2700
31
0
0
LINE
8
EAST_GAS
10
1724
20
2700
30
0
11
1724
21
2000
31
0
0
TEXT
8
TEXT
10
1759
20
2350
30
0
40
70
1
EAST gas y2000mm
0
LINE
8
EAST_DISHWASHER
10
1724
20
2850
30
0
11
2324
21
2850
31
0
0
LINE
8
EAST_DISHWASHER
10
2324
20
2850
30
0
11
2324
21
3450
31
0
0
LINE
8
EAST_DISHWASHER
10
2324
20
3450
30
0
11
1724
21
3450
31
0
0
LINE
8
EAST_DISHWASHER
10
1724
20
3450
30
0
11
1724
21
2850
31
0
0
TEXT
8
TEXT
10
1759
20
3150
30
0
40
70
1
EAST dishwasher y2850mm
0
LINE
8
EAST_WASHING
10
1724
20
4146
30
0
11
2324
21
4146
31
0
0
LINE
8
EAST_WASHING
10
2324
20
4146
30
0
11
2324
21
4746
31
0
0
LINE
8
EAST_WASHING
10
2324
20
4746
30
0
11
1724
21
4746
31
0
0
LINE
8
EAST_WASHING
10
1724
20
4746
30
0
11
1724
21
4146
31
0
0
TEXT
8
TEXT
10
1759
20
4446
30
0
40
70
1
EAST washing y4146mm
0
LINE
8
WEST_MICROWAVE
10
0
20
1300
30
0
11
400
21
1300
31
0
0
LINE
8
WEST_MICROWAVE
10
400
20
1300
30
0
11
400
21
1800
31
0
0
LINE
8
WEST_MICROWAVE
10
400
20
1800
30
0
11
0
21
1800
31
0
0
LINE
8
WEST_MICROWAVE
10
0
20
1800
30
0
11
0
21
1300
31
0
0
TEXT
8
TEXT
10
35
20
1550
30
0
40
70
1
WEST microwave y1300mm
0
LINE
8
WEST_FOODPROCESSOR
10
0
20
1900
30
0
11
400
21
1900
31
0
0
LINE
8
WEST_FOODPROCESSOR
10
400
20
1900
30
0
11
400
21
2400
31
0
0
LINE
8
WEST_FOODPROCESSOR
10
400
20
2400
30
0
11
0
21
2400
31
0
0
LINE
8
WEST_FOODPROCESSOR
10
0
20
2400
30
0
11
0
21
1900
31
0
0
TEXT
8
TEXT
10
35
20
2150
30
0
40
70
1
WEST foodprocessor y1900mm
0
LINE
8
WEST_WATERPURIFIER
10
0
20
3350
30
0
11
300
21
3350
31
0
0
LINE
8
WEST_WATERPURIFIER
10
300
20
3350
30
0
11
300
21
3650
31
0
0
LINE
8
WEST_WATERPURIFIER
10
300
20
3650
30
0
11
0
21
3650
31
0
0
LINE
8
WEST_WATERPURIFIER
10
0
20
3650
30
0
11
0
21
3350
31
0
0
TEXT
8
TEXT
10
35
20
3500
30
0
40
70
1
WEST waterpurifier y3350mm
0
LINE
8
WEST_SINK
10
0
20
3550
30
0
11
400
21
3550
31
0
0
LINE
8
WEST_SINK
10
400
20
3550
30
0
11
400
21
4150
31
0
0
LINE
8
WEST_SINK
10
400
20
4150
30
0
11
0
21
4150
31
0
0
LINE
8
WEST_SINK
10
0
20
4150
30
0
11
0
21
3550
31
0
0
TEXT
8
TEXT
10
35
20
3850
30
0
40
70
1
WEST sink y3550mm
0
LINE
8
WEST_SHAFT
10
0
20
4146
30
0
11
838
21
4146
31
0
0
LINE
8
WEST_SHAFT
10
838
20
4146
30
0
11
838
21
4756
31
0
0
LINE
8
WEST_SHAFT
10
838
20
4756
30
0
11
0
21
4756
31
0
0
LINE
8
WEST_SHAFT
10
0
20
4756
30
0
11
0
21
4146
31
0
0
TEXT
8
TEXT
10
35
20
4451
30
0
40
70
1
WEST shaft y4146mm
0
TEXT
8
TEXT
10
1162
20
4526
30
0
40
120
1
NORTH (N)
0
TEXT
8
TEXT
10
1162
20
120
30
0
40
120
1
SOUTH (S)
0
TEXT
8
TEXT
10
120
20
2373
30
0
40
100
1
WEST (W)
0
TEXT
8
TEXT
10
1964
20
2373
30
0
40
100
1
EAST (E)
0
TEXT
8
DIM
10
1162
20
-90
30
0
40
90
1
Room width 2324 mm
0
LINE
8
DIM
10
0
20
-60
30
0
11
2324
21
-60
31
0
0
TEXT
8
DIM
10
2484
20
2373
30
0
40
90
1
Room length 4746 mm
0
LINE
8
DIM
10
2414
20
0
30
0
11
2414
21
4746
31
0
0
TEXT
8
DIM
10
2024
20
220
30
0
40
70
1
East base depth 600 mm
0
LINE
8
DIM
10
1724
20
160
30
0
11
2324
21
160
31
0
0
TEXT
8
DIM
10
200
20
220
30
0
40
70
1
West counter depth 400 mm
0
LINE
8
DIM
10
0
20
160
30
0
11
400
21
160
31
0
0
TEXT
8
DIM
10
1162
20
2373
30
0
40
80
1
Walkway width 1324 mm
0
LINE
8
DIM
10
400
20
2193
30
0
11
1724
21
2193
31
0
0
TEXT
8
DIM
10
692
20
4596
30
0
40
70
1
Below window area 300 mm only
0
TEXT
8
DIM
10
-60
20
610
30
0
40
70
1
West door clear zone y0-y1220 (1220 mm)
0
LINE
8
DIM
10
-90
20
0
30
0
11
-90
21
1220
31
0
0
TEXT
8
DIM
10
20
20
-170
30
0
40
60
1
Scale 1:1 mm | 2324W x 4746L x 2700H | Walkway 1324 mm | Grid Off | East 600D West 400D
0
ENDSEC
0
EOF