0
SECTION
2
HEADER
9
$ACADVER
1
AC1015
9
$INSUNITS
70
4
9
$MEASUREMENT
70
1
0
ENDSEC
0
SECTION
2
TABLES
0
TABLE
2
LAYER
70
4
0
LAYER
100
AcDbSymbolTableRecord
100
AcDbLayerTableRecord
2
WALLS
70
0
62
7
6
CONTINUOUS
0
LAYER
100
AcDbSymbolTableRecord
100
AcDbLayerTableRecord
2
WINDOWS
70
0
62
4
6
CONTINUOUS
0
LAYER
100
AcDbSymbolTableRecord
100
AcDbLayerTableRecord
2
FURNITURE
70
0
62
8
6
CONTINUOUS
0
LAYER
100
AcDbSymbolTableRecord
100
AcDbLayerTableRecord
2
ROOM_LABELS
70
0
62
3
6
CONTINUOUS
0
ENDTAB
0
ENDSEC
0
SECTION
2
ENTITIES
0
LWPOLYLINE
100
AcDbEntity
8
WALLS
100
AcDbPolyline
90
4
70
1
10
-1003
20
3981
10
-918
20
3981
10
-918
20
7841
10
-1003
20
7841
0
LWPOLYLINE
100
AcDbEntity
8
WALLS
100
AcDbPolyline
90
4
70
1
10
-8142
20
8884
10
-4897
20
8884
10
-4897
20
8969
10
-8142
20
8969
0
LWPOLYLINE
100
AcDbEntity
8
WALLS
100
AcDbPolyline
90
4
70
1
10
-9525
20
6310
10
-8142
20
6310
10
-8142
20
6395
10
-9525
20
6395
0
LWPOLYLINE
100
AcDbEntity
8
WALLS
100
AcDbPolyline
90
4
70
1
10
-1003
20
7841
10
-918
20
7841
10
-918
20
10112
10
-1003
20
10112
0
LWPOLYLINE
100
AcDbEntity
8
WALLS
100
AcDbPolyline
90
4
70
1
10
-2497
20
10070
10
-960
20
10070
10
-960
20
10155
10
-2497
20
10155
0
LWPOLYLINE
100
AcDbEntity
8
WALLS
100
AcDbPolyline
90
4
70
1
10
-2539
20
7841
10
-2454
20
7841
10
-2454
20
10112
10
-2539
20
10112
0
LWPOLYLINE
100
AcDbEntity
8
WALLS
100
AcDbPolyline
90
4
70
1
10
-2539
20
10112
10
-2454
20
10112
10
-2454
20
13490
10
-2539
20
13490
0
LWPOLYLINE
100
AcDbEntity
8
WALLS
100
AcDbPolyline
90
4
70
1
10
-2497
20
13447
10
-2439
20
13447
10
-2439
20
13532
10
-2497
20
13532
0
LWPOLYLINE
100
AcDbEntity
8
WALLS
100
AcDbPolyline
90
4
70
1
10
-2481
20
13490
10
-2396
20
13490
10
-2396
20
14133
10
-2481
20
14133
0
LWPOLYLINE
100
AcDbEntity
8
WALLS
100
AcDbPolyline
90
4
70
1
10
-2497
20
14091
10
-2439
20
14091
10
-2439
20
14176
10
-2497
20
14176
0
LWPOLYLINE
100
AcDbEntity
8
WALLS
100
AcDbPolyline
90
4
70
1
10
-4939
20
13490
10
-4854
20
13490
10
-4854
20
14133
10
-4939
20
14133
0
LWPOLYLINE
100
AcDbEntity
8
WALLS
100
AcDbPolyline
90
4
70
1
10
-13255
20
9027
10
-13170
20
9027
10
-13170
20
14375
10
-13255
20
14375
0
LWPOLYLINE
100
AcDbEntity
8
WALLS
100
AcDbPolyline
90
4
70
1
10
-9932
20
14375
10
-9847
20
14375
10
-9847
20
17571
10
-9932
20
17571
0
LWPOLYLINE
100
AcDbEntity
8
WALLS
100
AcDbPolyline
90
4
70
1
10
-10024
20
17529
10
-9890
20
17529
10
-9890
20
17614
10
-10024
20
17614
0
LWPOLYLINE
100
AcDbEntity
8
WALLS
100
AcDbPolyline
90
4
70
1
10
-12540
20
14332
10
-10946
20
14332
10
-10946
20
14417
10
-12540
20
14417
0
LWPOLYLINE
100
AcDbEntity
8
WALLS
100
AcDbPolyline
90
4
70
1
10
-13212
20
14332
10
-13135
20
14332
10
-13135
20
14417
10
-13212
20
14417
0
LWPOLYLINE
100
AcDbEntity
8
WALLS
100
AcDbPolyline
90
4
70
1
10
-13255
20
14375
10
-13170
20
14375
10
-13170
20
16526
10
-13255
20
16526
0
LWPOLYLINE
100
AcDbEntity
8
WALLS
100
AcDbPolyline
90
4
70
1
10
-13255
20
17430
10
-13170
20
17430
10
-13170
20
17571
10
-13255
20
17571
0
LWPOLYLINE
100
AcDbEntity
8
WALLS
100
AcDbPolyline
90
4
70
1
10
-13212
20
17529
10
-10946
20
17529
10
-10946
20
17614
10
-13212
20
17614
0
LWPOLYLINE
100
AcDbEntity
8
WALLS
100
AcDbPolyline
90
4
70
1
10
-13212
20
15538
10
-11042
20
15538
10
-11042
20
15623
10
-13212
20
15623
0
LWPOLYLINE
100
AcDbEntity
8
WALLS
100
AcDbPolyline
90
4
70
1
10
-11085
20
15581
10
-11000
20
15581
10
-11000
20
16284
10
-11085
20
16284
0
LWPOLYLINE
100
AcDbEntity
8
WALLS
100
AcDbPolyline
90
4
70
1
10
-13212
20
16242
10
-11042
20
16242
10
-11042
20
16327
10
-13212
20
16327
0
LWPOLYLINE
100
AcDbEntity
8
WINDOWS
100
AcDbPolyline
90
4
70
1
10
-5285
20
13510
10
-5200
20
13510
10
-5200
20
15963
10
-5285
20
15963
0
LWPOLYLINE
100
AcDbEntity
8
WINDOWS
100
AcDbPolyline
90
4
70
1
10
-6510
20
15920
10
-5243
20
15920
10
-5243
20
16005
10
-6510
20
16005
0
LWPOLYLINE
100
AcDbEntity
8
WALLS
100
AcDbPolyline
90
4
70
1
10
-13212
20
8984
10
-12746
20
8984
10
-12746
20
9069
10
-13212
20
9069
0
LWPOLYLINE
100
AcDbEntity
8
WINDOWS
100
AcDbPolyline
90
4
70
1
10
-12746
20
8984
10
-10469
20
8984
10
-10469
20
9069
10
-12746
20
9069
0
LWPOLYLINE
100
AcDbEntity
8
WALLS
100
AcDbPolyline
90
4
70
1
10
-10469
20
8984
10
-9890
20
8984
10
-9890
20
9069
10
-10469
20
9069
0
LWPOLYLINE
100
AcDbEntity
8
WALLS
100
AcDbPolyline
90
4
70
1
10
-12540
20
14332
10
-11082
20
14332
10
-11082
20
14417
10
-12540
20
14417
0
LWPOLYLINE
100
AcDbEntity
8
WALLS
100
AcDbPolyline
90
4
70
1
10
-10091
20
14332
10
-9890
20
14332
10
-9890
20
14417
10
-10091
20
14417
0
LWPOLYLINE
100
AcDbEntity
8
WALLS
100
AcDbPolyline
90
4
70
1
10
-9932
20
12312
10
-9847
20
12312
10
-9847
20
14375
10
-9932
20
14375
0
LWPOLYLINE
100
AcDbEntity
8
WALLS
100
AcDbPolyline
90
4
70
1
10
-9890
20
8984
10
-8890
20
8984
10
-8890
20
9069
10
-9890
20
9069
0
LWPOLYLINE
100
AcDbEntity
8
WALLS
100
AcDbPolyline
90
4
70
1
10
-7990
20
8984
10
-4897
20
8984
10
-4897
20
9069
10
-7990
20
9069
0
LWPOLYLINE
100
AcDbEntity
8
WALLS
100
AcDbPolyline
90
4
70
1
10
-9890
20
12261
10
-9790
20
12261
10
-9790
20
12346
10
-9890
20
12346
0
LWPOLYLINE
100
AcDbEntity
8
WALLS
100
AcDbPolyline
90
4
70
1
10
-8890
20
12261
10
-6097
20
12261
10
-6097
20
12346
10
-8890
20
12346
0
LWPOLYLINE
100
AcDbEntity
8
WALLS
100
AcDbPolyline
90
4
70
1
10
-4939
20
10127
10
-4854
20
10127
10
-4854
20
12304
10
-4939
20
12304
0
LWPOLYLINE
100
AcDbEntity
8
WALLS
100
AcDbPolyline
90
4
70
1
10
-4003
20
7798
10
-2066
20
7798
10
-2066
20
7883
10
-4003
20
7883
0
LWPOLYLINE
100
AcDbEntity
8
WALLS
100
AcDbPolyline
90
4
70
1
10
-1370
20
7798
10
-960
20
7798
10
-960
20
7883
10
-1370
20
7883
0
LWPOLYLINE
100
AcDbEntity
8
WINDOWS
100
AcDbPolyline
90
4
70
1
10
-3138
20
3938
10
-2144
20
3938
10
-2144
20
4023
10
-3138
20
4023
0
LWPOLYLINE
100
AcDbEntity
8
WINDOWS
100
AcDbPolyline
90
4
70
1
10
-2144
20
3938
10
-960
20
3938
10
-960
20
4023
10
-2144
20
4023
0
LWPOLYLINE
100
AcDbEntity
8
WALLS
100
AcDbPolyline
90
4
70
1
10
-8142
20
3938
10
-7888
20
3938
10
-7888
20
4023
10
-8142
20
4023
0
LWPOLYLINE
100
AcDbEntity
8
WALLS
100
AcDbPolyline
90
4
70
1
10
-6513
20
3938
10
-6099
20
3938
10
-6099
20
4023
10
-6513
20
4023
0
LWPOLYLINE
100
AcDbEntity
8
WINDOWS
100
AcDbPolyline
90
4
70
1
10
-6099
20
3938
10
-5097
20
3938
10
-5097
20
4023
10
-6099
20
4023
0
LWPOLYLINE
100
AcDbEntity
8
WALLS
100
AcDbPolyline
90
4
70
1
10
-5097
20
3938
10
-4897
20
3938
10
-4897
20
4023
10
-5097
20
4023
0
LWPOLYLINE
100
AcDbEntity
8
WALLS
100
AcDbPolyline
90
4
70
1
10
-4939
20
3981
10
-4854
20
3981
10
-4854
20
8019
10
-4939
20
8019
0
LWPOLYLINE
100
AcDbEntity
8
WALLS
100
AcDbPolyline
90
4
70
1
10
-8185
20
6361
10
-8100
20
6361
10
-8100
20
8926
10
-8185
20
8926
0
LWPOLYLINE
100
AcDbEntity
8
WALLS
100
AcDbPolyline
90
4
70
1
10
-8185
20
3981
10
-8100
20
3981
10
-8100
20
4518
10
-8185
20
4518
0
LWPOLYLINE
100
AcDbEntity
8
WINDOWS
100
AcDbPolyline
90
4
70
1
10
-9525
20
3737
10
-8142
20
3737
10
-8142
20
3822
10
-9525
20
3822
0
LWPOLYLINE
100
AcDbEntity
8
WINDOWS
100
AcDbPolyline
90
4
70
1
10
-9568
20
3780
10
-9483
20
3780
10
-9483
20
6353
10
-9568
20
6353
0
LWPOLYLINE
100
AcDbEntity
8
WALLS
100
AcDbPolyline
90
4
70
1
10
-6553
20
12304
10
-6468
20
12304
10
-6468
20
13478
10
-6553
20
13478
0
LWPOLYLINE
100
AcDbEntity
8
WALLS
100
AcDbPolyline
90
4
70
1
10
-9890
20
15920
10
-9118
20
15920
10
-9118
20
16005
10
-9890
20
16005
0
LWPOLYLINE
100
AcDbEntity
8
WALLS
100
AcDbPolyline
90
4
70
1
10
-8463
20
15920
10
-7367
20
15920
10
-7367
20
16005
10
-8463
20
16005
0
LWPOLYLINE
100
AcDbEntity
8
WALLS
100
AcDbPolyline
90
4
70
1
10
-4014
20
10070
10
-2496
20
10070
10
-2496
20
10155
10
-4014
20
10155
0
LWPOLYLINE
100
AcDbEntity
8
WALLS
100
AcDbPolyline
90
4
70
1
10
-4897
20
14091
10
-4265
20
14091
10
-4265
20
14176
10
-4897
20
14176
0
LWPOLYLINE
100
AcDbEntity
8
WINDOWS
100
AcDbPolyline
90
4
70
1
10
-4265
20
14091
10
-3129
20
14091
10
-3129
20
14176
10
-4265
20
14176
0
LWPOLYLINE
100
AcDbEntity
8
WALLS
100
AcDbPolyline
90
4
70
1
10
-3129
20
14091
10
-2496
20
14091
10
-2496
20
14176
10
-3129
20
14176
0
LWPOLYLINE
100
AcDbEntity
8
WALLS
100
AcDbPolyline
90
4
70
1
10
-6501
20
13780
10
-5914
20
13780
10
-5914
20
13814
10
-6501
20
13814
0
LWPOLYLINE
100
AcDbEntity
8
WALLS
100
AcDbPolyline
90
4
70
1
10
-5896
20
13780
10
-5310
20
13780
10
-5310
20
13814
10
-5896
20
13814
0
TEXT
100
AcDbEntity
8
ROOM_LABELS
100
AcDbText
10
-2928.5865384615386
20
5910.662576687117
30
0
40
150
1
Bedroom 3
50
0
0
TEXT
100
AcDbEntity
8
ROOM_LABELS
100
AcDbText
10
-6519.70576923077
20
6453.478527607362
30
0
40
150
1
Study
50
0
0
TEXT
100
AcDbEntity
8
ROOM_LABELS
100
AcDbText
10
-8833.769230769232
20
5066.282208588957
30
0
40
150
1
Balcony office
50
0
0
TEXT
100
AcDbEntity
8
ROOM_LABELS
100
AcDbText
10
-6519.70576923077
20
2583.401840490798
30
0
40
150
1
Terrace
50
0
0
TEXT
100
AcDbEntity
8
ROOM_LABELS
100
AcDbText
10
-3696.7403846153848
20
12122.889570552148
30
0
40
150
1
Kitchen
50
0
0
TEXT
100
AcDbEntity
8
ROOM_LABELS
100
AcDbText
10
-7393.4807692307695
20
10665.328220858897
30
0
40
150
1
Lobby / Dining
50
0
0
TEXT
100
AcDbEntity
8
ROOM_LABELS
100
AcDbText
10
-11551.113461538462
20
11700.699386503067
30
0
40
150
1
Drawing Room
50
0
0
TEXT
100
AcDbEntity
8
ROOM_LABELS
100
AcDbText
10
-8200.042307692309
20
14133.319018404907
30
0
40
150
1
Bedroom 1
50
0
0
TEXT
100
AcDbEntity
8
ROOM_LABELS
100
AcDbText
10
-5876.376923076923
20
14736.447852760737
30
0
40
150
1
Bedroom 1 balcony
50
0
0
TEXT
100
AcDbEntity
8
ROOM_LABELS
100
AcDbText
10
-11551.113461538462
20
15972.861963190186
30
0
40
150
1
Main entry
50
0
0
ENDSEC
0
EOF
