<svg xmlns="http://www.w3.org/2000/svg" width="225" height="419" viewBox="0 0 225 419">
<rect width="100%" height="100%" fill="#fdfbf7"/>
<rect x="20" y="20" width="185.92000000000002" height="379.68" fill="#f6efe6" stroke="#7a6f63" stroke-width="2" rx="6"/>
<rect x="20.0" y="20.0" width="48.72" height="67.04" fill="#9aa0a6" stroke="#6b7076" stroke-width="1.5" rx="3"/>
<text x="44.36" y="49.52" text-anchor="middle" font-size="8" fill="#fff" font-weight="700">SHAFT</text>
<text x="44.36" y="60.52" text-anchor="middle" font-size="6" fill="#fff">838(L)×609(W)</text>
<text x="44.36" y="22.16" text-anchor="middle" font-size="7" fill="#6b7076">609→ north wall</text>
<text x="10" y="53.52" text-anchor="middle" font-size="7" fill="#6b7076" transform="rotate(-90 10 53.52)">838→ west wall</text>
<rect x="20" y="326.88" width="12" height="48.800000000000004" fill="#fffaf3" stroke="#b85c38" stroke-width="1.2" stroke-dasharray="4 3"/>
<text x="36" y="351.28" font-size="7" fill="#b85c38" font-weight="600">2ft GAP 610 y300-910</text>
<rect x="20" y="87.04" width="32.0" height="48.0" fill="#c8b39d" stroke="#9a8c7a" rx="2"/>
<text x="36.0" y="114.04" text-anchor="middle" font-size="6" fill="#4a3e33">westGarage</text>
<rect x="20" y="183.68" width="32.0" height="56.0" fill="#c8b39d" stroke="#9a8c7a" rx="2"/>
<text x="36.0" y="214.68" text-anchor="middle" font-size="6" fill="#4a3e33">gas</text>
<rect x="157.92000000000002" y="20.0" width="48.0" height="48.0" fill="#dac8b7" stroke="#9a8c7a" rx="2"/>
<text x="181.92000000000002" y="47.0" text-anchor="middle" font-size="6" fill="#4a3e33">garage_NE</text>
<rect x="157.92000000000002" y="20.0" width="48.0" height="48.0" fill="#dac8b7" stroke="#9a8c7a" rx="2"/>
<text x="181.92000000000002" y="47.0" text-anchor="middle" font-size="6" fill="#4a3e33">washing</text>
<rect x="180.32" y="68.0" width="25.6" height="28.0" fill="#dac8b7" stroke="#9a8c7a" rx="2"/>
<text x="193.12" y="85.0" text-anchor="middle" font-size="6" fill="#4a3e33">waterpurifier</text>
<rect x="157.92000000000002" y="96.0" width="48.0" height="64.0" fill="#dac8b7" stroke="#9a8c7a" rx="2"/>
<text x="181.92000000000002" y="131.0" text-anchor="middle" font-size="6" fill="#4a3e33">sink</text>
<rect x="180.32" y="96.0" width="25.6" height="64.0" fill="#dac8b7" stroke="#9a8c7a" rx="2"/>
<text x="193.12" y="131.0" text-anchor="middle" font-size="6" fill="#4a3e33">sinkUpperDishRack</text>
<rect x="157.92000000000002" y="160.0" width="48.0" height="48.0" fill="#dac8b7" stroke="#9a8c7a" rx="2"/>
<text x="181.92000000000002" y="187.0" text-anchor="middle" font-size="6" fill="#4a3e33">dishwasher</text>
<line x1="20" y1="20" x2="205.92000000000002" y2="20" stroke="#b85c38" stroke-width="1" stroke-dasharray="2 2" opacity="0.6"/>
<text x="112.96000000000001" y="14" text-anchor="middle" font-size="8" fill="#7a6f63">NORTH WALL — shaft attached (y+l = 4746, gap 0)</text>
<text x="112.96000000000001" y="413" text-anchor="middle" font-size="7" fill="#2a7a6b">west usable 3836 mm • west wall 838 • north wall 609 • door 2ft</text>
</svg>