0
SECTION
2
HEADER
9
$INSUNITS
70
4
0
ENDSEC
0
SECTION
2
ENTITIES
0
TEXT
8
NOTES
10
0
20
13800
30
0
40
300
1
FLOOR PLAN - RECONSTRUCTED FROM docs/FloorPlan/hanfd.jpeg (SCHEMATIC - VERIFY BEFORE USE)
0
TEXT
8
NOTES
10
0
20
13450
30
0
40
150
1
Reconstructed from a hand-marked photo. Room sizes use the WxH labels visible in the photo.
0
TEXT
8
NOTES
10
0
20
13200
30
0
40
150
1
Wall thickness and exact door/window placement are NOT modeled - schematic layout only.
0
TEXT
8
NOTES
10
0
20
12950
30
0
40
150
1
Entry, Shoe Area, Balcony, and the toilet near Bed Room-1 had no labeled depth - ESTIMATED.
0
TEXT
8
NOTES
10
0
20
12700
30
0
40
150
1
Toilet near Kitchen: source digits were unclear (read as 5524x2183) - used 1524x2183, PLEASE VERIFY.
0
TEXT
8
NOTES
10
0
20
12450
30
0
40
150
1
Units: millimeters.
0
LINE
8
DRAWING_ROOM
10
0
20
0
30
0
11
3353
21
0
31
0
0
LINE
8
DRAWING_ROOM
10
3353
20
0
30
0
11
3353
21
5535
31
0
0
LINE
8
DRAWING_ROOM
10
3353
20
5535
30
0
11
0
21
5535
31
0
0
LINE
8
DRAWING_ROOM
10
0
20
5535
30
0
11
0
21
0
31
0
0
TEXT
8
DRAWING_ROOM
10
1676.5
20
2767.5
30
0
40
200
1
DRAWING ROOM 3353x5535
0
LINE
8
ENTRY
10
0
20
5535
30
0
11
2134
21
5535
31
0
0
LINE
8
ENTRY
10
2134
20
5535
30
0
11
2134
21
6435
31
0
0
LINE
8
ENTRY
10
2134
20
6435
30
0
11
0
21
6435
31
0
0
LINE
8
ENTRY
10
0
20
6435
30
0
11
0
21
5535
31
0
0
TEXT
8
ENTRY
10
1067
20
5985
30
0
40
150
1
ENTRY 2134 wide (depth est. 900)
0
LINE
8
SHOE_AREA
10
2134
20
5535
30
0
11
3134
21
5535
31
0
0
LINE
8
SHOE_AREA
10
3134
20
5535
30
0
11
3134
21
6435
31
0
0
LINE
8
SHOE_AREA
10
3134
20
6435
30
0
11
2134
21
6435
31
0
0
LINE
8
SHOE_AREA
10
2134
20
6435
30
0
11
2134
21
5535
31
0
0
TEXT
8
SHOE_AREA
10
2634
20
5985
30
0
40
150
1
SHOE AREA 1000 wide (depth est. 900)
0
LINE
8
TOILET_1
10
3353
20
0
30
0
11
4877
21
0
31
0
0
LINE
8
TOILET_1
10
4877
20
0
30
0
11
4877
21
2285
31
0
0
LINE
8
TOILET_1
10
4877
20
2285
30
0
11
3353
21
2285
31
0
0
LINE
8
TOILET_1
10
3353
20
2285
30
0
11
3353
21
0
31
0
0
TEXT
8
TOILET_1
10
4115
20
1142.5
30
0
40
150
1
TOILET 1524x2285
0
LINE
8
BED_ROOM_2
10
4877
20
0
30
0
11
8116
21
0
31
0
0
LINE
8
BED_ROOM_2
10
8116
20
0
30
0
11
8116
21
4908
31
0
0
LINE
8
BED_ROOM_2
10
8116
20
4908
30
0
11
4877
21
4908
31
0
0
LINE
8
BED_ROOM_2
10
4877
20
4908
30
0
11
4877
21
0
31
0
0
TEXT
8
BED_ROOM_2
10
6496.5
20
2454
30
0
40
200
1
BED ROOM-2 3239x4908
0
LINE
8
LOBBY_DINING
10
3353
20
4908
30
0
11
8346
21
4908
31
0
0
LINE
8
LOBBY_DINING
10
8346
20
4908
30
0
11
8346
21
8185
31
0
0
LINE
8
LOBBY_DINING
10
8346
20
8185
30
0
11
3353
21
8185
31
0
0
LINE
8
LOBBY_DINING
10
3353
20
8185
30
0
11
3353
21
4908
31
0
0
TEXT
8
LOBBY_DINING
10
5849.5
20
6546.5
30
0
40
200
1
LOBBY/DINING 4993x3277
0
LINE
8
BED_ROOM_1
10
3353
20
8185
30
0
11
6706
21
8185
31
0
0
LINE
8
BED_ROOM_1
10
6706
20
8185
30
0
11
6706
21
11425
31
0
0
LINE
8
BED_ROOM_1
10
6706
20
11425
30
0
11
3353
21
11425
31
0
0
LINE
8
BED_ROOM_1
10
3353
20
11425
30
0
11
3353
21
8185
31
0
0
TEXT
8
BED_ROOM_1
10
5029.5
20
9805
30
0
40
200
1
BED ROOM-1 3353x3240
0
LINE
8
BED_ROOM_3
10
8116
20
0
30
0
11
12079
21
0
31
0
0
LINE
8
BED_ROOM_3
10
12079
20
0
30
0
11
12079
21
3726
31
0
0
LINE
8
BED_ROOM_3
10
12079
20
3726
30
0
11
8116
21
3726
31
0
0
LINE
8
BED_ROOM_3
10
8116
20
3726
30
0
11
8116
21
0
31
0
0
TEXT
8
BED_ROOM_3
10
10097.5
20
1863
30
0
40
200
1
BED ROOM-3 3963x3726
0
LINE
8
TOILET_2
10
8346
20
3726
30
0
11
9870
21
3726
31
0
0
LINE
8
TOILET_2
10
9870
20
3726
30
0
11
9870
21
5909
31
0
0
LINE
8
TOILET_2
10
9870
20
5909
30
0
11
8346
21
5909
31
0
0
LINE
8
TOILET_2
10
8346
20
5909
30
0
11
8346
21
3726
31
0
0
TEXT
8
TOILET_2
10
9108
20
4817.5
30
0
40
150
1
TOILET ~1524x2183 (unclear in source - VERIFY)
0
LINE
8
KITCHEN
10
8346
20
5909
30
0
11
10670
21
5909
31
0
0
LINE
8
KITCHEN
10
10670
20
5909
30
0
11
10670
21
8979
31
0
0
LINE
8
KITCHEN
10
10670
20
8979
30
0
11
8346
21
8979
31
0
0
LINE
8
KITCHEN
10
8346
20
8979
30
0
11
8346
21
5909
31
0
0
TEXT
8
KITCHEN
10
9508
20
7444
30
0
40
200
1
KITCHEN 2324x3070
0
LINE
8
UTILITY_NOOK
10
9870
20
5909
30
0
11
10479
21
5909
31
0
0
LINE
8
UTILITY_NOOK
10
10479
20
5909
30
0
11
10479
21
6747
31
0
0
LINE
8
UTILITY_NOOK
10
10479
20
6747
30
0
11
9870
21
6747
31
0
0
LINE
8
UTILITY_NOOK
10
9870
20
6747
30
0
11
9870
21
5909
31
0
0
TEXT
8
UTILITY_NOOK
10
10174.5
20
6328
30
0
40
120
1
UTILITY/SHAFT 609x838
0
LINE
8
BALCONY
10
6706
20
8185
30
0
11
8346
21
8185
31
0
0
LINE
8
BALCONY
10
8346
20
8185
30
0
11
8346
21
9385
31
0
0
LINE
8
BALCONY
10
8346
20
9385
30
0
11
6706
21
9385
31
0
0
LINE
8
BALCONY
10
6706
20
9385
30
0
11
6706
21
8185
31
0
0
TEXT
8
BALCONY
10
7526
20
8785
30
0
40
150
1
BALCONY (size est. 1640x1200)
0
LINE
8
TOILET_A
10
3353
20
11425
30
0
11
5791
21
11425
31
0
0
LINE
8
TOILET_A
10
5791
20
11425
30
0
11
5791
21
13025
31
0
0
LINE
8
TOILET_A
10
5791
20
13025
30
0
11
3353
21
13025
31
0
0
LINE
8
TOILET_A
10
3353
20
13025
30
0
11
3353
21
11425
31
0
0
TEXT
8
TOILET_A
10
4572
20
12225
30
0
40
150
1
TOILET 2438 wide (depth est. 1600)
0
ENDSEC
0
EOF
