0
SECTION
2
HEADER
9
$INSUNITS
70
4
0
ENDSEC
0
SECTION
2
ENTITIES
0
TEXT
8
NOTES
10
0
20
15700
30
0
40
300
1
FLOOR PLAN - CONVERTED FROM docs/FloorPlan/home a 501 floor - unmodified.png
0
TEXT
8
NOTES
10
0
20
15350
30
0
40
150
1
Room sizes use the WxH labels printed on the source drawing. Positions/adjacency read off the layout.
0
TEXT
8
NOTES
10
0
20
15100
30
0
40
150
1
Wall thickness and exact door/window placement are NOT modeled - schematic layout only.
0
TEXT
8
NOTES
10
0
20
14850
30
0
40
150
1
Toilet next to Bed Room-3 printed as "524X2133" (clipped digit) - read as 1524x2133.
0
TEXT
8
NOTES
10
0
20
14600
30
0
40
150
1
Bottom-right Wardrobe/Entry nook has no explicit WxH label - depth 1000mm ESTIMATED from nearby dim.
0
TEXT
8
NOTES
10
0
20
14350
30
0
40
150
1
Balcony (top-left) and Balcony (bottom-left) widths are approximate - only one edge was dimensioned.
0
TEXT
8
NOTES
10
0
20
14100
30
0
40
150
1
Drawing Room length labeled 3353x5535 on the room tag but 5333 on the dimension line - used 5535.
0
TEXT
8
NOTES
10
0
20
13850
30
0
40
150
1
Units: millimeters.
0
LINE
8
BALCONY_TL
10
0
20
14149
30
0
11
2383
21
14149
31
0
0
LINE
8
BALCONY_TL
10
2383
20
14149
30
0
11
2383
21
15349
31
0
0
LINE
8
BALCONY_TL
10
2383
20
15349
30
0
11
0
21
15349
31
0
0
LINE
8
BALCONY_TL
10
0
20
15349
30
0
11
0
21
14149
31
0
0
TEXT
8
BALCONY_TL
10
1191.5
20
14749
30
0
40
150
1
BALCONY (width est. 2383)
0
LINE
8
TERRACE
10
3963
20
12949
30
0
11
7507
21
12949
31
0
0
LINE
8
TERRACE
10
7507
20
12949
30
0
11
7507
21
15349
31
0
0
LINE
8
TERRACE
10
7507
20
15349
30
0
11
3963
21
15349
31
0
0
LINE
8
TERRACE
10
3963
20
15349
30
0
11
3963
21
12949
31
0
0
TEXT
8
TERRACE
10
5735
20
14149
30
0
40
180
1
DOUBLE HT. TERRACE 3544x2400 (1st,3rd,5th fl.)
0
LINE
8
BALCONY_TR
10
7507
20
12726
30
0
11
8707
21
12726
31
0
0
LINE
8
BALCONY_TR
10
8707
20
12726
30
0
11
8707
21
15349
31
0
0
LINE
8
BALCONY_TR
10
8707
20
15349
30
0
11
7507
21
15349
31
0
0
LINE
8
BALCONY_TR
10
7507
20
15349
30
0
11
7507
21
12726
31
0
0
TEXT
8
BALCONY_TR
10
8107
20
14037.5
30
0
40
150
1
BALCONY 1200x2623
0
LINE
8
BED_ROOM_3
10
0
20
10423
30
0
11
3963
21
10423
31
0
0
LINE
8
BED_ROOM_3
10
3963
20
10423
30
0
11
3963
21
14149
31
0
0
LINE
8
BED_ROOM_3
10
3963
20
14149
30
0
11
0
21
14149
31
0
0
LINE
8
BED_ROOM_3
10
0
20
14149
30
0
11
0
21
10423
31
0
0
TEXT
8
BED_ROOM_3
10
1981.5
20
12286
30
0
40
200
1
BED ROOM-3 3963x3726
0
LINE
8
BED_ROOM_2
10
3963
20
8041
30
0
11
7202
21
8041
31
0
0
LINE
8
BED_ROOM_2
10
7202
20
8041
30
0
11
7202
21
12949
31
0
0
LINE
8
BED_ROOM_2
10
7202
20
12949
30
0
11
3963
21
12949
31
0
0
LINE
8
BED_ROOM_2
10
3963
20
12949
30
0
11
3963
21
8041
31
0
0
TEXT
8
BED_ROOM_2
10
5582.5
20
10495
30
0
40
200
1
BED ROOM-2 3239x4908
0
LINE
8
TOILET_TR
10
7507
20
10441
30
0
11
9031
21
10441
31
0
0
LINE
8
TOILET_TR
10
9031
20
10441
30
0
11
9031
21
12726
31
0
0
LINE
8
TOILET_TR
10
9031
20
12726
30
0
11
7507
21
12726
31
0
0
LINE
8
TOILET_TR
10
7507
20
12726
30
0
11
7507
21
10441
31
0
0
TEXT
8
TOILET_TR
10
8269
20
11583.5
30
0
40
150
1
TOILET 1524x2285
0
LINE
8
TOILET_NW
10
0
20
8290
30
0
11
1524
21
8290
31
0
0
LINE
8
TOILET_NW
10
1524
20
8290
30
0
11
1524
21
10423
31
0
0
LINE
8
TOILET_NW
10
1524
20
10423
30
0
11
0
21
10423
31
0
0
LINE
8
TOILET_NW
10
0
20
10423
30
0
11
0
21
8290
31
0
0
TEXT
8
TOILET_NW
10
762
20
9356.5
30
0
40
150
1
TOILET 1524x2133
0
LINE
8
STORE
10
1524
20
8290
30
0
11
2833
21
8290
31
0
0
LINE
8
STORE
10
2833
20
8290
30
0
11
2833
21
10423
31
0
0
LINE
8
STORE
10
2833
20
10423
30
0
11
1524
21
10423
31
0
0
LINE
8
STORE
10
1524
20
10423
30
0
11
1524
21
8290
31
0
0
TEXT
8
STORE
10
2178.5
20
9356.5
30
0
40
150
1
STORE 1309x2133
0
LINE
8
KITCHEN
10
0
20
5220
30
0
11
2324
21
5220
31
0
0
LINE
8
KITCHEN
10
2324
20
5220
30
0
11
2324
21
8290
31
0
0
LINE
8
KITCHEN
10
2324
20
8290
30
0
11
0
21
8290
31
0
0
LINE
8
KITCHEN
10
0
20
8290
30
0
11
0
21
5220
31
0
0
TEXT
8
KITCHEN
10
1162
20
6755
30
0
40
200
1
KITCHEN 2324x3070
0
LINE
8
LOBBY_DINING
10
2833
20
4764
30
0
11
7826
21
4764
31
0
0
LINE
8
LOBBY_DINING
10
7826
20
4764
30
0
11
7826
21
8041
31
0
0
LINE
8
LOBBY_DINING
10
7826
20
8041
30
0
11
2833
21
8041
31
0
0
LINE
8
LOBBY_DINING
10
2833
20
8041
30
0
11
2833
21
4764
31
0
0
TEXT
8
LOBBY_DINING
10
5329.5
20
6402.5
30
0
40
200
1
LOBBY/DINING 4993x3277
0
LINE
8
DRAWING_ROOM
10
7826
20
4906
30
0
11
11179
21
4906
31
0
0
LINE
8
DRAWING_ROOM
10
11179
20
4906
30
0
11
11179
21
10441
31
0
0
LINE
8
DRAWING_ROOM
10
11179
20
10441
30
0
11
7826
21
10441
31
0
0
LINE
8
DRAWING_ROOM
10
7826
20
10441
30
0
11
7826
21
4906
31
0
0
TEXT
8
DRAWING_ROOM
10
9502.5
20
7673.5
30
0
40
200
1
DRAWING ROOM 3353x5535
0
LINE
8
BALCONY_BL
10
0
20
4020
30
0
11
1200
21
4020
31
0
0
LINE
8
BALCONY_BL
10
1200
20
4020
30
0
11
1200
21
5220
31
0
0
LINE
8
BALCONY_BL
10
1200
20
5220
30
0
11
0
21
5220
31
0
0
LINE
8
BALCONY_BL
10
0
20
5220
30
0
11
0
21
4020
31
0
0
TEXT
8
BALCONY_BL
10
600
20
4620
30
0
40
150
1
BALCONY (width est. 1200)
0
LINE
8
BED_ROOM_1
10
1200
20
1524
30
0
11
4553
21
1524
31
0
0
LINE
8
BED_ROOM_1
10
4553
20
1524
30
0
11
4553
21
4764
31
0
0
LINE
8
BED_ROOM_1
10
4553
20
4764
30
0
11
1200
21
4764
31
0
0
LINE
8
BED_ROOM_1
10
1200
20
4764
30
0
11
1200
21
1524
31
0
0
TEXT
8
BED_ROOM_1
10
2876.5
20
3144
30
0
40
200
1
BED ROOM-1 3353x3240
0
LINE
8
TOILET_S
10
4553
20
0
30
0
11
6687
21
0
31
0
0
LINE
8
TOILET_S
10
6687
20
0
30
0
11
6687
21
1524
31
0
0
LINE
8
TOILET_S
10
6687
20
1524
30
0
11
4553
21
1524
31
0
0
LINE
8
TOILET_S
10
4553
20
1524
30
0
11
4553
21
0
31
0
0
TEXT
8
TOILET_S
10
5620
20
762
30
0
40
150
1
TOILET 2134x1524
0
LINE
8
WARDROBE_ENTRY
10
6687
20
524
30
0
11
8821
21
524
31
0
0
LINE
8
WARDROBE_ENTRY
10
8821
20
524
30
0
11
8821
21
1524
31
0
0
LINE
8
WARDROBE_ENTRY
10
8821
20
1524
30
0
11
6687
21
1524
31
0
0
LINE
8
WARDROBE_ENTRY
10
6687
20
1524
30
0
11
6687
21
524
31
0
0
TEXT
8
WARDROBE_ENTRY
10
7754
20
1024
30
0
40
150
1
WARDROBE/ENTRY (approx 2134x1000)
0
ENDSEC
0
EOF
