0
SECTION
2
ENTITIES
0
LINE
8
ROOM
10
0
20
0
30
0
11
2324.0
21
0
31
0
0
LINE
8
ROOM
10
2324.0
20
0
30
0
11
2324.0
21
4746.0
31
0
0
LINE
8
ROOM
10
2324.0
20
4746.0
30
0
11
0
21
4746.0
31
0
0
LINE
8
ROOM
10
0
20
4746.0
30
0
11
0
21
0
31
0
0
LINE
8
East_600D_Base_Run
10
1724.0
20
0
30
0
11
2324.0
21
0
31
0
0
LINE
8
East_600D_Base_Run
10
2324.0
20
0
30
0
11
2324.0
21
4446.0
31
0
0
LINE
8
East_600D_Base_Run
10
2324.0
20
4446.0
30
0
11
1724.0
21
4446.0
31
0
0
LINE
8
East_600D_Base_Run
10
1724.0
20
4446.0
30
0
11
1724.0
21
0
31
0
0
LINE
8
West_400D_Counter_Run
10
0
20
920.0
30
0
11
400
21
920.0
31
0
0
LINE
8
West_400D_Counter_Run
10
400
20
920.0
30
0
11
400
21
4446.0
31
0
0
LINE
8
West_400D_Counter_Run
10
400
20
4446.0
30
0
11
0
21
4446.0
31
0
0
LINE
8
West_400D_Counter_Run
10
0
20
4446.0
30
0
11
0
21
920.0
31
0
0
LINE
8
West_Door_Clear_Zone_y0_y1220
10
0
20
0
30
0
11
400
21
0
31
0
0
LINE
8
West_Door_Clear_Zone_y0_y1220
10
400
20
0
30
0
11
400
21
920.0
31
0
0
LINE
8
West_Door_Clear_Zone_y0_y1220
10
400
20
920.0
30
0
11
0
21
920.0
31
0
0
LINE
8
West_Door_Clear_Zone_y0_y1220
10
0
20
920.0
30
0
11
0
21
0
31
0
0
ENDSEC
0
EOF