# Created by FreeCAD <https://www.freecad.org>
v 0.000000 0.000000 -30.000000
v 0.000000 0.000000 0.000000
v 0.000000 4746.000000 -30.000000
v 0.000000 4746.000000 0.000000
v 2324.000000 0.000000 0.000000
v 2324.000000 0.000000 -30.000000
v 2324.000000 4746.000000 -30.000000
v 2324.000000 4746.000000 0.000000
v -45.000000 4746.000000 0.000000
v -45.000000 0.000000 0.000000
v -45.000000 4746.000000 2700.000000
v -45.000000 0.000000 2700.000000
v 0.000000 0.000000 0.000000
v 0.000000 4746.000000 0.000000
v 0.000000 4746.000000 2700.000000
v 0.000000 0.000000 2700.000000
v 2324.000000 4746.000000 0.000000
v 2324.000000 0.000000 0.000000
v 2324.000000 4746.000000 2700.000000
v 2324.000000 0.000000 2700.000000
v 2369.000000 0.000000 0.000000
v 2369.000000 4746.000000 0.000000
v 2369.000000 4746.000000 2700.000000
v 2369.000000 0.000000 2700.000000
v 0.000000 4746.000000 0.000000
v 0.000000 4746.000000 2700.000000
v 0.000000 4791.000000 0.000000
v 0.000000 4791.000000 2700.000000
v 2324.000000 4746.000000 2700.000000
v 2324.000000 4746.000000 0.000000
v 2324.000000 4791.000000 0.000000
v 2324.000000 4791.000000 2700.000000
v 612.000000 -35.000000 0.000000
v 612.000000 -35.000000 2100.000000
v 612.000000 0.000000 0.000000
v 612.000000 0.000000 2100.000000
v 1712.000000 -35.000000 2100.000000
v 1712.000000 -35.000000 0.000000
v 1712.000000 0.000000 0.000000
v 1712.000000 0.000000 2100.000000
v 612.000000 4754.000000 900.000000
v 612.000000 4754.000000 2700.000000
v 612.000000 4778.000000 900.000000
v 612.000000 4778.000000 2700.000000
v 1712.000000 4754.000000 2700.000000
v 1712.000000 4754.000000 900.000000
v 1712.000000 4778.000000 900.000000
v 1712.000000 4778.000000 2700.000000
v 1724.000000 0.000000 0.000000
v 1724.000000 0.000000 900.000000
v 1724.000000 4446.000000 0.000000
v 1724.000000 4446.000000 900.000000
v 2324.000000 0.000000 900.000000
v 2324.000000 0.000000 0.000000
v 2324.000000 4446.000000 0.000000
v 2324.000000 4446.000000 900.000000
v 0.000000 0.000000 0.000000
v 0.000000 0.000000 2700.000000
v 0.000000 1220.000000 0.000000
v 0.000000 1220.000000 2700.000000
v 35.000000 0.000000 2700.000000
v 35.000000 0.000000 0.000000
v 35.000000 1220.000000 0.000000
v 35.000000 1220.000000 2700.000000
v 0.000000 1220.000000 0.000000
v 0.000000 1220.000000 900.000000
v 0.000000 4446.000000 0.000000
v 0.000000 4446.000000 900.000000
v 400.000000 1220.000000 900.000000
v 400.000000 1220.000000 0.000000
v 400.000000 4446.000000 0.000000
v 400.000000 4446.000000 900.000000
v 2004.000000 0.000000 1350.000000
v 2004.000000 0.000000 1850.000000
v 2004.000000 4446.000000 1350.000000
v 2004.000000 4446.000000 1850.000000
v 2324.000000 0.000000 1850.000000
v 2324.000000 0.000000 1350.000000
v 2324.000000 4446.000000 1350.000000
v 2324.000000 4446.000000 1850.000000
v 0.000000 1220.000000 1350.000000
v 0.000000 1220.000000 1850.000000
v 0.000000 4446.000000 1350.000000
v 0.000000 4446.000000 1850.000000
v 320.000000 1220.000000 1850.000000
v 320.000000 1220.000000 1350.000000
v 320.000000 4446.000000 1350.000000
v 320.000000 4446.000000 1850.000000
v 1774.000000 0.000000 1900.000000
v 1774.000000 0.000000 2700.000000
v 1774.000000 4446.000000 1900.000000
v 1774.000000 4446.000000 2700.000000
v 2324.000000 0.000000 2700.000000
v 2324.000000 0.000000 1900.000000
v 2324.000000 4446.000000 1900.000000
v 2324.000000 4446.000000 2700.000000
v 0.000000 1220.000000 1900.000000
v 0.000000 1220.000000 2700.000000
v 0.000000 4446.000000 1900.000000
v 0.000000 4446.000000 2700.000000
v 450.000000 1220.000000 2700.000000
v 450.000000 1220.000000 1900.000000
v 450.000000 4446.000000 1900.000000
v 450.000000 4446.000000 2700.000000
v 1994.000000 0.000000 1330.000000
v 1994.000000 0.000000 1365.000000
v 1994.000000 4446.000000 1330.000000
v 1994.000000 4446.000000 1365.000000
v 2012.000000 0.000000 1365.000000
v 2012.000000 0.000000 1330.000000
v 2012.000000 4446.000000 1330.000000
v 2012.000000 4446.000000 1365.000000
v 312.000000 1220.000000 1330.000000
v 312.000000 1220.000000 1365.000000
v 312.000000 4446.000000 1330.000000
v 312.000000 4446.000000 1365.000000
v 330.000000 1220.000000 1365.000000
v 330.000000 1220.000000 1330.000000
v 330.000000 4446.000000 1330.000000
v 330.000000 4446.000000 1365.000000
v 1724.000000 2700.000000 900.000000
v 1724.000000 2000.000000 900.000000
v 1724.000000 2700.000000 945.000000
v 1724.000000 2000.000000 945.000000
v 2324.000000 2000.000000 900.000000
v 2324.000000 2700.000000 900.000000
v 2324.000000 2700.000000 945.000000
v 2324.000000 2000.000000 945.000000
v 1804.000000 2610.000000 948.000000
v 1804.000000 2090.000000 948.000000
v 1804.000000 2610.000000 956.000000
v 1804.000000 2090.000000 956.000000
v 2234.000000 2090.000000 948.000000
v 2234.000000 2610.000000 948.000000
v 2234.000000 2610.000000 956.000000
v 2234.000000 2090.000000 956.000000
v 1964.000000 2610.000000 1450.000000
v 1964.000000 2090.000000 1450.000000
v 1964.000000 2610.000000 1710.000000
v 1964.000000 2090.000000 1710.000000
v 2294.000000 2090.000000 1450.000000
v 2294.000000 2610.000000 1450.000000
v 2294.000000 2610.000000 1710.000000
v 2294.000000 2090.000000 1710.000000
v 1824.000000 1850.000000 0.000000
v 1824.000000 1850.000000 900.000000
v 1824.000000 2000.000000 0.000000
v 1824.000000 2000.000000 900.000000
v 2324.000000 1850.000000 900.000000
v 2324.000000 1850.000000 0.000000
v 2324.000000 2000.000000 0.000000
v 2324.000000 2000.000000 900.000000
v 1724.000000 2850.000000 0.000000
v 1724.000000 2850.000000 880.000000
v 1724.000000 3450.000000 0.000000
v 1724.000000 3450.000000 880.000000
v 2324.000000 2850.000000 880.000000
v 2324.000000 2850.000000 0.000000
v 2324.000000 3450.000000 0.000000
v 2324.000000 3450.000000 880.000000
v 1724.000000 3800.000000 0.000000
v 1724.000000 3800.000000 880.000000
v 1724.000000 4400.000000 0.000000
v 1724.000000 4400.000000 880.000000
v 2324.000000 3800.000000 880.000000
v 2324.000000 3800.000000 0.000000
v 2324.000000 4400.000000 0.000000
v 2324.000000 4400.000000 880.000000
v 0.000000 1800.000000 900.000000
v 0.000000 1300.000000 900.000000
v 0.000000 1800.000000 1350.000000
v 0.000000 1300.000000 1350.000000
v 400.000000 1300.000000 900.000000
v 400.000000 1800.000000 900.000000
v 400.000000 1800.000000 1350.000000
v 400.000000 1300.000000 1350.000000
v 0.000000 1900.000000 900.000000
v 0.000000 1900.000000 1250.000000
v 0.000000 2400.000000 900.000000
v 0.000000 2400.000000 1250.000000
v 400.000000 1900.000000 1250.000000
v 400.000000 1900.000000 900.000000
v 400.000000 2400.000000 900.000000
v 400.000000 2400.000000 1250.000000
v 0.000000 3350.000000 0.000000
v 0.000000 3350.000000 400.000000
v 0.000000 3650.000000 0.000000
v 0.000000 3650.000000 400.000000
v 300.000000 3350.000000 400.000000
v 300.000000 3350.000000 0.000000
v 300.000000 3650.000000 0.000000
v 300.000000 3650.000000 400.000000
v 0.000000 3550.000000 0.000000
v 0.000000 3550.000000 900.000000
v 0.000000 4150.000000 0.000000
v 0.000000 4150.000000 900.000000
v 400.000000 3550.000000 900.000000
v 400.000000 3550.000000 0.000000
v 400.000000 4150.000000 0.000000
v 400.000000 4150.000000 900.000000
v 0.000000 3908.000000 0.000000
v 0.000000 4746.000000 2700.000000
v 0.000000 4746.000000 0.000000
v 0.000000 3908.000000 2700.000000
v 610.000000 4746.000000 2700.000000
v 610.000000 3908.000000 0.000000
v 610.000000 4746.000000 0.000000
v 610.000000 3908.000000 2700.000000
vn -1.000000 0.000000 0.000000
vn -1.000000 0.000000 0.000000
vn 1.000000 0.000000 0.000000
vn 1.000000 -0.000000 0.000000
vn 0.000000 -1.000000 0.000000
vn 0.000000 -1.000000 0.000000
vn 0.000000 1.000000 0.000000
vn 0.000000 1.000000 0.000000
vn 0.000000 0.000000 -1.000000
vn 0.000000 0.000000 -1.000000
vn 0.000000 0.000000 1.000000
vn 0.000000 0.000000 1.000000
vn -1.000000 0.000000 0.000000
vn -1.000000 0.000000 0.000000
vn 1.000000 0.000000 0.000000
vn 1.000000 -0.000000 0.000000
vn 0.000000 -1.000000 0.000000
vn 0.000000 -1.000000 0.000000
vn 0.000000 1.000000 0.000000
vn 0.000000 1.000000 0.000000
vn 0.000000 0.000000 -1.000000
vn 0.000000 0.000000 -1.000000
vn 0.000000 0.000000 1.000000
vn 0.000000 0.000000 1.000000
vn -1.000000 0.000000 0.000000
vn -1.000000 0.000000 0.000000
vn 1.000000 0.000000 0.000000
vn 1.000000 -0.000000 0.000000
vn 0.000000 -1.000000 0.000000
vn 0.000000 -1.000000 0.000000
vn 0.000000 1.000000 0.000000
vn 0.000000 1.000000 0.000000
vn 0.000000 0.000000 -1.000000
vn 0.000000 0.000000 -1.000000
vn 0.000000 0.000000 1.000000
vn 0.000000 0.000000 1.000000
vn -1.000000 0.000000 0.000000
vn -1.000000 0.000000 0.000000
vn 1.000000 0.000000 0.000000
vn 1.000000 -0.000000 0.000000
vn 0.000000 -1.000000 0.000000
vn 0.000000 -1.000000 0.000000
vn 0.000000 1.000000 0.000000
vn 0.000000 1.000000 0.000000
vn 0.000000 0.000000 -1.000000
vn 0.000000 0.000000 -1.000000
vn 0.000000 0.000000 1.000000
vn 0.000000 0.000000 1.000000
vn -1.000000 0.000000 0.000000
vn -1.000000 0.000000 0.000000
vn 1.000000 0.000000 0.000000
vn 1.000000 -0.000000 0.000000
vn 0.000000 -1.000000 0.000000
vn 0.000000 -1.000000 0.000000
vn 0.000000 1.000000 0.000000
vn 0.000000 1.000000 0.000000
vn 0.000000 0.000000 -1.000000
vn 0.000000 0.000000 -1.000000
vn 0.000000 0.000000 1.000000
vn 0.000000 0.000000 1.000000
vn -1.000000 0.000000 0.000000
vn -1.000000 0.000000 0.000000
vn 1.000000 0.000000 0.000000
vn 1.000000 -0.000000 0.000000
vn 0.000000 -1.000000 0.000000
vn 0.000000 -1.000000 0.000000
vn 0.000000 1.000000 0.000000
vn 0.000000 1.000000 0.000000
vn 0.000000 0.000000 -1.000000
vn 0.000000 0.000000 -1.000000
vn 0.000000 0.000000 1.000000
vn 0.000000 0.000000 1.000000
vn -1.000000 0.000000 0.000000
vn -1.000000 0.000000 0.000000
vn 1.000000 0.000000 0.000000
vn 1.000000 -0.000000 0.000000
vn 0.000000 -1.000000 0.000000
vn 0.000000 -1.000000 0.000000
vn 0.000000 1.000000 0.000000
vn 0.000000 1.000000 0.000000
vn 0.000000 0.000000 -1.000000
vn 0.000000 0.000000 -1.000000
vn 0.000000 0.000000 1.000000
vn 0.000000 0.000000 1.000000
vn -1.000000 0.000000 0.000000
vn -1.000000 0.000000 0.000000
vn 1.000000 0.000000 0.000000
vn 1.000000 -0.000000 0.000000
vn 0.000000 -1.000000 0.000000
vn 0.000000 -1.000000 0.000000
vn 0.000000 1.000000 0.000000
vn 0.000000 1.000000 0.000000
vn 0.000000 0.000000 -1.000000
vn 0.000000 0.000000 -1.000000
vn 0.000000 0.000000 1.000000
vn 0.000000 0.000000 1.000000
vn -1.000000 0.000000 0.000000
vn -1.000000 0.000000 0.000000
vn 1.000000 0.000000 0.000000
vn 1.000000 -0.000000 0.000000
vn 0.000000 -1.000000 0.000000
vn 0.000000 -1.000000 0.000000
vn 0.000000 1.000000 0.000000
vn 0.000000 1.000000 0.000000
vn 0.000000 0.000000 -1.000000
vn 0.000000 0.000000 -1.000000
vn 0.000000 0.000000 1.000000
vn 0.000000 0.000000 1.000000
vn -1.000000 0.000000 0.000000
vn -1.000000 0.000000 0.000000
vn 1.000000 0.000000 0.000000
vn 1.000000 -0.000000 0.000000
vn 0.000000 -1.000000 0.000000
vn 0.000000 -1.000000 0.000000
vn 0.000000 1.000000 0.000000
vn 0.000000 1.000000 0.000000
vn 0.000000 0.000000 -1.000000
vn 0.000000 0.000000 -1.000000
vn 0.000000 0.000000 1.000000
vn 0.000000 0.000000 1.000000
vn -1.000000 0.000000 0.000000
vn -1.000000 0.000000 0.000000
vn 1.000000 0.000000 0.000000
vn 1.000000 -0.000000 0.000000
vn 0.000000 -1.000000 0.000000
vn 0.000000 -1.000000 0.000000
vn 0.000000 1.000000 0.000000
vn 0.000000 1.000000 0.000000
vn 0.000000 0.000000 -1.000000
vn 0.000000 0.000000 -1.000000
vn 0.000000 0.000000 1.000000
vn 0.000000 0.000000 1.000000
vn -1.000000 0.000000 0.000000
vn -1.000000 0.000000 0.000000
vn 1.000000 0.000000 0.000000
vn 1.000000 -0.000000 0.000000
vn 0.000000 -1.000000 0.000000
vn 0.000000 -1.000000 0.000000
vn 0.000000 1.000000 0.000000
vn 0.000000 1.000000 0.000000
vn 0.000000 0.000000 -1.000000
vn 0.000000 0.000000 -1.000000
vn 0.000000 0.000000 1.000000
vn 0.000000 0.000000 1.000000
vn -1.000000 0.000000 0.000000
vn -1.000000 0.000000 0.000000
vn 1.000000 0.000000 0.000000
vn 1.000000 -0.000000 0.000000
vn 0.000000 -1.000000 0.000000
vn 0.000000 -1.000000 0.000000
vn 0.000000 1.000000 0.000000
vn 0.000000 1.000000 0.000000
vn 0.000000 0.000000 -1.000000
vn 0.000000 0.000000 -1.000000
vn 0.000000 0.000000 1.000000
vn 0.000000 0.000000 1.000000
vn -1.000000 0.000000 0.000000
vn -1.000000 0.000000 0.000000
vn 1.000000 0.000000 0.000000
vn 1.000000 -0.000000 0.000000
vn 0.000000 -1.000000 0.000000
vn 0.000000 -1.000000 0.000000
vn 0.000000 1.000000 0.000000
vn 0.000000 1.000000 0.000000
vn 0.000000 0.000000 -1.000000
vn 0.000000 0.000000 -1.000000
vn 0.000000 0.000000 1.000000
vn 0.000000 0.000000 1.000000
vn -1.000000 0.000000 0.000000
vn -1.000000 0.000000 0.000000
vn 1.000000 0.000000 0.000000
vn 1.000000 -0.000000 0.000000
vn 0.000000 -1.000000 0.000000
vn 0.000000 -1.000000 0.000000
vn 0.000000 1.000000 0.000000
vn 0.000000 1.000000 0.000000
vn 0.000000 0.000000 -1.000000
vn 0.000000 0.000000 -1.000000
vn 0.000000 0.000000 1.000000
vn 0.000000 0.000000 1.000000
vn -1.000000 0.000000 0.000000
vn -1.000000 0.000000 0.000000
vn 1.000000 0.000000 0.000000
vn 1.000000 -0.000000 0.000000
vn 0.000000 -1.000000 0.000000
vn 0.000000 -1.000000 0.000000
vn 0.000000 1.000000 0.000000
vn 0.000000 1.000000 0.000000
vn 0.000000 0.000000 -1.000000
vn 0.000000 0.000000 -1.000000
vn 0.000000 0.000000 1.000000
vn 0.000000 0.000000 1.000000
vn -1.000000 0.000000 0.000000
vn -1.000000 0.000000 0.000000
vn 1.000000 0.000000 0.000000
vn 1.000000 -0.000000 0.000000
vn 0.000000 -1.000000 0.000000
vn 0.000000 -1.000000 0.000000
vn 0.000000 1.000000 0.000000
vn 0.000000 1.000000 0.000000
vn 0.000000 0.000000 -1.000000
vn 0.000000 0.000000 -1.000000
vn 0.000000 0.000000 1.000000
vn 0.000000 0.000000 1.000000
vn -1.000000 0.000000 0.000000
vn -1.000000 0.000000 0.000000
vn 1.000000 0.000000 0.000000
vn 1.000000 -0.000000 0.000000
vn 0.000000 -1.000000 0.000000
vn 0.000000 -1.000000 0.000000
vn 0.000000 1.000000 0.000000
vn 0.000000 1.000000 0.000000
vn 0.000000 0.000000 -1.000000
vn 0.000000 0.000000 -1.000000
vn 0.000000 0.000000 1.000000
vn 0.000000 0.000000 1.000000
vn -1.000000 0.000000 0.000000
vn -1.000000 0.000000 0.000000
vn 1.000000 0.000000 0.000000
vn 1.000000 -0.000000 0.000000
vn 0.000000 -1.000000 0.000000
vn 0.000000 -1.000000 0.000000
vn 0.000000 1.000000 0.000000
vn 0.000000 1.000000 0.000000
vn 0.000000 0.000000 -1.000000
vn 0.000000 0.000000 -1.000000
vn 0.000000 0.000000 1.000000
vn 0.000000 0.000000 1.000000
vn -1.000000 0.000000 0.000000
vn -1.000000 0.000000 0.000000
vn 1.000000 0.000000 0.000000
vn 1.000000 -0.000000 0.000000
vn 0.000000 -1.000000 0.000000
vn 0.000000 -1.000000 0.000000
vn 0.000000 1.000000 0.000000
vn 0.000000 1.000000 0.000000
vn 0.000000 0.000000 -1.000000
vn 0.000000 0.000000 -1.000000
vn 0.000000 0.000000 1.000000
vn 0.000000 0.000000 1.000000
vn -1.000000 0.000000 0.000000
vn -1.000000 0.000000 0.000000
vn 1.000000 0.000000 0.000000
vn 1.000000 -0.000000 0.000000
vn 0.000000 -1.000000 0.000000
vn 0.000000 -1.000000 0.000000
vn 0.000000 1.000000 0.000000
vn 0.000000 1.000000 0.000000
vn 0.000000 0.000000 -1.000000
vn 0.000000 0.000000 -1.000000
vn 0.000000 0.000000 1.000000
vn 0.000000 0.000000 1.000000
vn -1.000000 0.000000 0.000000
vn -1.000000 0.000000 0.000000
vn 1.000000 0.000000 0.000000
vn 1.000000 -0.000000 0.000000
vn 0.000000 -1.000000 0.000000
vn 0.000000 -1.000000 0.000000
vn 0.000000 1.000000 0.000000
vn 0.000000 1.000000 0.000000
vn 0.000000 0.000000 -1.000000
vn 0.000000 0.000000 -1.000000
vn 0.000000 0.000000 1.000000
vn 0.000000 0.000000 1.000000
vn -1.000000 0.000000 0.000000
vn -1.000000 0.000000 0.000000
vn 1.000000 0.000000 0.000000
vn 1.000000 -0.000000 0.000000
vn 0.000000 -1.000000 0.000000
vn 0.000000 -1.000000 0.000000
vn 0.000000 1.000000 0.000000
vn 0.000000 1.000000 0.000000
vn 0.000000 0.000000 -1.000000
vn 0.000000 0.000000 -1.000000
vn 0.000000 0.000000 1.000000
vn 0.000000 0.000000 1.000000
vn -1.000000 0.000000 0.000000
vn -1.000000 0.000000 0.000000
vn 1.000000 0.000000 0.000000
vn 1.000000 -0.000000 0.000000
vn 0.000000 -1.000000 0.000000
vn 0.000000 -1.000000 0.000000
vn 0.000000 1.000000 0.000000
vn 0.000000 1.000000 0.000000
vn 0.000000 0.000000 -1.000000
vn 0.000000 0.000000 -1.000000
vn 0.000000 0.000000 1.000000
vn 0.000000 0.000000 1.000000
vn -1.000000 0.000000 0.000000
vn -1.000000 0.000000 0.000000
vn 1.000000 0.000000 0.000000
vn 1.000000 -0.000000 0.000000
vn 0.000000 -1.000000 0.000000
vn 0.000000 -1.000000 0.000000
vn 0.000000 1.000000 0.000000
vn 0.000000 1.000000 0.000000
vn 0.000000 0.000000 -1.000000
vn 0.000000 0.000000 -1.000000
vn 0.000000 0.000000 1.000000
vn 0.000000 0.000000 1.000000
vn -1.000000 0.000000 0.000000
vn -1.000000 0.000000 0.000000
vn 1.000000 0.000000 0.000000
vn 1.000000 -0.000000 0.000000
vn 0.000000 -1.000000 0.000000
vn 0.000000 -1.000000 0.000000
vn 0.000000 1.000000 0.000000
vn 0.000000 1.000000 0.000000
vn 0.000000 0.000000 -1.000000
vn 0.000000 0.000000 -1.000000
vn 0.000000 0.000000 1.000000
vn 0.000000 0.000000 1.000000
g Floor_2324x4746
f 1//1 2//1 3//1
f 3//2 2//2 4//2
f 5//3 6//3 7//3
f 5//4 7//4 8//4
f 6//5 5//5 1//5
f 1//6 5//6 2//6
f 8//7 7//7 3//7
f 8//8 3//8 4//8
f 1//9 3//9 6//9
f 3//10 7//10 6//10
f 4//11 2//11 5//11
f 8//12 4//12 5//12
g West_wall
f 9//13 10//13 11//13
f 10//14 12//14 11//14
f 13//15 14//15 15//15
f 16//16 13//16 15//16
f 13//17 16//17 10//17
f 10//18 16//18 12//18
f 15//19 14//19 9//19
f 15//20 9//20 11//20
f 9//21 14//21 10//21
f 10//22 14//22 13//22
f 15//23 11//23 12//23
f 15//24 12//24 16//24
g East_wall
f 17//25 18//25 19//25
f 18//26 20//26 19//26
f 21//27 22//27 23//27
f 24//28 21//28 23//28
f 21//29 24//29 18//29
f 18//30 24//30 20//30
f 23//31 22//31 17//31
f 23//32 17//32 19//32
f 17//33 22//33 18//33
f 18//34 22//34 21//34
f 23//35 19//35 20//35
f 23//36 20//36 24//36
g North_wall_window_side
f 25//37 26//37 27//37
f 27//38 26//38 28//38
f 29//39 30//39 31//39
f 29//40 31//40 32//40
f 30//41 29//41 25//41
f 25//42 29//42 26//42
f 32//43 31//43 27//43
f 32//44 27//44 28//44
f 27//45 31//45 25//45
f 25//46 31//46 30//46
f 32//47 28//47 26//47
f 32//48 26//48 29//48
g Door_opening_south_1100
f 33//49 34//49 35//49
f 35//50 34//50 36//50
f 37//51 38//51 39//51
f 37//52 39//52 40//52
f 38//53 37//53 33//53
f 33//54 37//54 34//54
f 40//55 39//55 35//55
f 40//56 35//56 36//56
f 35//57 38//57 33//57
f 35//58 39//58 38//58
f 37//59 36//59 34//59
f 40//60 36//60 37//60
g North_window_1100x1800_sill900
f 41//61 42//61 43//61
f 43//62 42//62 44//62
f 45//63 46//63 47//63
f 45//64 47//64 48//64
f 46//65 45//65 41//65
f 41//66 45//66 42//66
f 48//67 47//67 43//67
f 48//68 43//68 44//68
f 43//69 46//69 41//69
f 43//70 47//70 46//70
f 45//71 44//71 42//71
f 48//72 44//72 45//72
g East_600D_Base_Run
f 49//73 50//73 51//73
f 51//74 50//74 52//74
f 53//75 54//75 55//75
f 53//76 55//76 56//76
f 54//77 53//77 49//77
f 49//78 53//78 50//78
f 56//79 55//79 51//79
f 56//80 51//80 52//80
f 51//81 55//81 49//81
f 49//82 55//82 54//82
f 56//83 52//83 50//83
f 56//84 50//84 53//84
g West_Door_Clear_Zone_y0_y1220
f 57//85 58//85 59//85
f 59//86 58//86 60//86
f 61//87 62//87 63//87
f 61//88 63//88 64//88
f 62//89 61//89 57//89
f 57//90 61//90 58//90
f 64//91 63//91 59//91
f 64//92 59//92 60//92
f 59//93 63//93 57//93
f 57//94 63//94 62//94
f 64//95 60//95 58//95
f 64//96 58//96 61//96
g West_400D_Counter_Run
f 65//97 66//97 67//97
f 67//98 66//98 68//98
f 69//99 70//99 71//99
f 69//100 71//100 72//100
f 70//101 69//101 65//101
f 65//102 69//102 66//102
f 72//103 71//103 67//103
f 72//104 67//104 68//104
f 67//105 71//105 65//105
f 65//106 71//106 70//106
f 72//107 68//107 66//107
f 72//108 66//108 69//108
g East_320D_Lower_Upper
f 73//109 74//109 75//109
f 75//110 74//110 76//110
f 77//111 78//111 79//111
f 77//112 79//112 80//112
f 78//113 77//113 73//113
f 73//114 77//114 74//114
f 80//115 79//115 75//115
f 80//116 75//116 76//116
f 75//117 79//117 73//117
f 73//118 79//118 78//118
f 80//119 76//119 74//119
f 80//120 74//120 77//120
g West_320D_Lower_Upper
f 81//121 82//121 83//121
f 83//122 82//122 84//122
f 85//123 86//123 87//123
f 85//124 87//124 88//124
f 86//125 85//125 81//125
f 81//126 85//126 82//126
f 88//127 87//127 83//127
f 88//128 83//128 84//128
f 81//129 83//129 86//129
f 83//130 87//130 86//130
f 84//131 82//131 85//131
f 88//132 84//132 85//132
g East_550D_Top_Upper
f 89//133 90//133 91//133
f 91//134 90//134 92//134
f 93//135 94//135 95//135
f 93//136 95//136 96//136
f 94//137 93//137 89//137
f 89//138 93//138 90//138
f 96//139 95//139 91//139
f 96//140 91//140 92//140
f 91//141 95//141 89//141
f 89//142 95//142 94//142
f 96//143 92//143 90//143
f 96//144 90//144 93//144
g West_450D_Top_Upper
f 97//145 98//145 99//145
f 99//146 98//146 100//146
f 101//147 102//147 103//147
f 101//148 103//148 104//148
f 102//149 98//149 97//149
f 102//150 101//150 98//150
f 100//151 103//151 99//151
f 104//152 103//152 100//152
f 97//153 99//153 102//153
f 99//154 103//154 102//154
f 100//155 98//155 101//155
f 104//156 100//156 101//156
g Warm_LED_East
f 105//157 106//157 107//157
f 107//158 106//158 108//158
f 109//159 110//159 111//159
f 109//160 111//160 112//160
f 110//161 109//161 105//161
f 105//162 109//162 106//162
f 112//163 111//163 107//163
f 112//164 107//164 108//164
f 107//165 111//165 105//165
f 105//166 111//166 110//166
f 112//167 108//167 106//167
f 112//168 106//168 109//168
g Warm_LED_West
f 113//169 114//169 115//169
f 115//170 114//170 116//170
f 117//171 118//171 119//171
f 117//172 119//172 120//172
f 118//173 117//173 113//173
f 113//174 117//174 114//174
f 120//175 119//175 115//175
f 120//176 115//176 116//176
f 115//177 119//177 113//177
f 113//178 119//178 118//178
f 120//179 116//179 114//179
f 120//180 114//180 117//180
g East_Gas_Cooktop_Slab
f 121//181 122//181 123//181
f 122//182 124//182 123//182
f 125//183 126//183 127//183
f 128//184 125//184 127//184
f 125//185 128//185 122//185
f 122//186 128//186 124//186
f 127//187 126//187 121//187
f 127//188 121//188 123//188
f 121//189 126//189 122//189
f 122//190 126//190 125//190
f 127//191 123//191 124//191
f 127//192 124//192 128//192
g East_Gas_Burner_Ring_Markers
f 129//193 130//193 131//193
f 130//194 132//194 131//194
f 133//195 134//195 135//195
f 136//196 133//196 135//196
f 133//197 136//197 130//197
f 130//198 136//198 132//198
f 135//199 134//199 129//199
f 135//200 129//200 131//200
f 130//201 129//201 133//201
f 129//202 134//202 133//202
f 131//203 132//203 136//203
f 135//204 131//204 136//204
g East_Compact_Chimney_Hood
f 137//205 138//205 139//205
f 138//206 140//206 139//206
f 141//207 142//207 143//207
f 144//208 141//208 143//208
f 138//209 141//209 140//209
f 141//210 144//210 140//210
f 142//211 137//211 139//211
f 143//212 142//212 139//212
f 137//213 142//213 138//213
f 138//214 142//214 141//214
f 143//215 139//215 140//215
f 143//216 140//216 144//216
g East_spice
f 145//217 146//217 147//217
f 147//218 146//218 148//218
f 149//219 150//219 151//219
f 149//220 151//220 152//220
f 150//221 149//221 145//221
f 145//222 149//222 146//222
f 152//223 151//223 147//223
f 152//224 147//224 148//224
f 147//225 151//225 145//225
f 145//226 151//226 150//226
f 152//227 148//227 146//227
f 152//228 146//228 149//228
g East_dishwasher
f 153//229 154//229 155//229
f 155//230 154//230 156//230
f 157//231 158//231 159//231
f 157//232 159//232 160//232
f 158//233 157//233 153//233
f 153//234 157//234 154//234
f 160//235 159//235 155//235
f 160//236 155//236 156//236
f 155//237 159//237 153//237
f 153//238 159//238 158//238
f 160//239 156//239 154//239
f 160//240 154//240 157//240
g East_washing
f 161//241 162//241 163//241
f 163//242 162//242 164//242
f 165//243 166//243 167//243
f 165//244 167//244 168//244
f 166//245 165//245 161//245
f 161//246 165//246 162//246
f 168//247 167//247 163//247
f 168//248 163//248 164//248
f 163//249 167//249 161//249
f 161//250 167//250 166//250
f 168//251 164//251 162//251
f 168//252 162//252 165//252
g West_microwave
f 169//253 170//253 171//253
f 170//254 172//254 171//254
f 173//255 174//255 175//255
f 176//256 173//256 175//256
f 173//257 176//257 170//257
f 170//258 176//258 172//258
f 175//259 174//259 169//259
f 175//260 169//260 171//260
f 169//261 174//261 170//261
f 170//262 174//262 173//262
f 175//263 171//263 172//263
f 175//264 172//264 176//264
g West_foodprocessor
f 177//265 178//265 179//265
f 179//266 178//266 180//266
f 181//267 182//267 183//267
f 181//268 183//268 184//268
f 182//269 181//269 177//269
f 177//270 181//270 178//270
f 184//271 183//271 179//271
f 184//272 179//272 180//272
f 179//273 183//273 177//273
f 177//274 183//274 182//274
f 184//275 180//275 178//275
f 184//276 178//276 181//276
g West_waterpurifier
f 185//277 186//277 187//277
f 187//278 186//278 188//278
f 189//279 190//279 191//279
f 189//280 191//280 192//280
f 190//281 189//281 185//281
f 185//282 189//282 186//282
f 192//283 191//283 187//283
f 192//284 187//284 188//284
f 187//285 191//285 185//285
f 185//286 191//286 190//286
f 192//287 188//287 186//287
f 192//288 186//288 189//288
g West_sink
f 193//289 194//289 195//289
f 195//290 194//290 196//290
f 197//291 198//291 199//291
f 197//292 199//292 200//292
f 198//293 197//293 193//293
f 193//294 197//294 194//294
f 200//295 199//295 195//295
f 200//296 195//296 196//296
f 195//297 199//297 193//297
f 193//298 199//298 198//298
f 200//299 196//299 194//299
f 200//300 194//300 197//300
g West_shaft_LAST_NW_610x838
f 201//301 202//301 203//301
f 201//302 204//302 202//302
f 205//303 206//303 207//303
f 208//304 206//304 205//304
f 206//305 208//305 201//305
f 201//306 208//306 204//306
f 205//307 207//307 203//307
f 205//308 203//308 202//308
f 201//309 203//309 206//309
f 203//310 207//310 206//310
f 202//311 204//311 208//311
f 205//312 202//312 208//312
