# Home A-501 Floor Plan 3D Model
# Ceiling height 3000 mm
# Empty rooms - import into Sweet Home 3D / Blender / FreeCAD
# Units: mm

# Room: Lobby_Dining
o Lobby_Dining
v 0.0 0.0 0.0
v 4993.0 0.0 0.0
v 4993.0 3277.0 0.0
v 0.0 3277.0 0.0
v 0.0 0.0 3000.0
v 4993.0 0.0 3000.0
v 4993.0 3277.0 3000.0
v 0.0 3277.0 3000.0
f 1 2 3 4
f 1 2 6 5
f 2 3 7 6
f 3 4 8 7
f 4 1 5 8

# Room: Drawing_Room
o Drawing_Room
v 4993.0 -2000.0 0.0
v 8346.0 -2000.0 0.0
v 8346.0 3335.0 0.0
v 4993.0 3335.0 0.0
v 4993.0 -2000.0 3000.0
v 8346.0 -2000.0 3000.0
v 8346.0 3335.0 3000.0
v 4993.0 3335.0 3000.0
f 9 10 11 12
f 9 10 14 13
f 10 11 15 14
f 11 12 16 15
f 12 9 13 16

# Room: Bedroom_1
o Bedroom_1
v 800.0 -3240.0 0.0
v 4153.0 -3240.0 0.0
v 4153.0 0.0 0.0
v 800.0 0.0 0.0
v 800.0 -3240.0 3000.0
v 4153.0 -3240.0 3000.0
v 4153.0 0.0 3000.0
v 800.0 0.0 3000.0
f 17 18 19 20
f 17 18 22 21
f 18 19 23 22
f 19 20 24 23
f 20 17 21 24

# Room: Kitchen
o Kitchen
v -2324.0 200.0 0.0
v 0.0 200.0 0.0
v 0.0 3270.0 0.0
v -2324.0 3270.0 0.0
v -2324.0 200.0 3000.0
v 0.0 200.0 3000.0
v 0.0 3270.0 3000.0
v -2324.0 3270.0 3000.0
f 25 26 27 28
f 25 26 30 29
f 26 27 31 30
f 27 28 32 31
f 28 25 29 32

# Room: Bedroom_3
o Bedroom_3
v -800.0 3277.0 0.0
v 3163.0 3277.0 0.0
v 3163.0 7003.0 0.0
v -800.0 7003.0 0.0
v -800.0 3277.0 3000.0
v 3163.0 3277.0 3000.0
v 3163.0 7003.0 3000.0
v -800.0 7003.0 3000.0
f 33 34 35 36
f 33 34 38 37
f 34 35 39 38
f 35 36 40 39
f 36 33 37 40

# Room: Bedroom_2
o Bedroom_2
v 3163.0 3277.0 0.0
v 6402.0 3277.0 0.0
v 6402.0 8185.0 0.0
v 3163.0 8185.0 0.0
v 3163.0 3277.0 3000.0
v 6402.0 3277.0 3000.0
v 6402.0 8185.0 3000.0
v 3163.0 8185.0 3000.0
f 41 42 43 44
f 41 42 46 45
f 42 43 47 46
f 43 44 48 47
f 44 41 45 48

# Room: Toilet_BR3
o Toilet_BR3
v -2324.0 3277.0 0.0
v -800.0 3277.0 0.0
v -800.0 5410.0 0.0
v -2324.0 5410.0 0.0
v -2324.0 3277.0 3000.0
v -800.0 3277.0 3000.0
v -800.0 5410.0 3000.0
v -2324.0 5410.0 3000.0
f 49 50 51 52
f 49 50 54 53
f 50 51 55 54
f 51 52 56 55
f 52 49 53 56

# Room: Toilet_BR2
o Toilet_BR2
v 6402.0 3277.0 0.0
v 7926.0 3277.0 0.0
v 7926.0 5562.0 0.0
v 6402.0 5562.0 0.0
v 6402.0 3277.0 3000.0
v 7926.0 3277.0 3000.0
v 7926.0 5562.0 3000.0
v 6402.0 5562.0 3000.0
f 57 58 59 60
f 57 58 62 61
f 58 59 63 62
f 59 60 64 63
f 60 57 61 64

# Room: Toilet_Entry
o Toilet_Entry
v 2000.0 -4240.0 0.0
v 4438.0 -4240.0 0.0
v 4438.0 -3240.0 0.0
v 2000.0 -3240.0 0.0
v 2000.0 -4240.0 3000.0
v 4438.0 -4240.0 3000.0
v 4438.0 -3240.0 3000.0
v 2000.0 -3240.0 3000.0
f 65 66 67 68
f 65 66 70 69
f 66 67 71 70
f 67 68 72 71
f 68 65 69 72

# Room: Balcony
o Balcony
v -400.0 -3240.0 0.0
v 800.0 -3240.0 0.0
v 800.0 0.0 0.0
v -400.0 0.0 0.0
v -400.0 -3240.0 1000.0
v 800.0 -3240.0 1000.0
v 800.0 0.0 1000.0
v -400.0 0.0 1000.0
f 73 74 75 76
f 73 74 78 77
f 74 75 79 78
f 75 76 80 79
f 76 73 77 80

# Room: Terrace
o Terrace
v 2800.0 8185.0 0.0
v 6344.0 8185.0 0.0
v 6344.0 10585.0 0.0
v 2800.0 10585.0 0.0
v 2800.0 8185.0 6000.0
v 6344.0 8185.0 6000.0
v 6344.0 10585.0 6000.0
v 2800.0 10585.0 6000.0
f 81 82 83 84
f 81 82 86 85
f 82 83 87 86
f 83 84 88 87
f 84 81 85 88

# End of model
