0
SECTION
2
HEADER
9
$ACADVER
1
AC1009
9
$INSUNITS
70
4
0
ENDSEC
0
SECTION
2
TABLES
0
TABLE
2
LAYER
70
1
0
LAYER
2
0
70
0
62
7
6
CONTINUOUS
0
ENDTAB
0
ENDSEC
0
SECTION
2
ENTITIES
0
LWPOLYLINE
8
0
90
5
70
1
10
0.000
20
0.000
10
4993.000
20
0.000
10
4993.000
20
3277.000
10
0.000
20
3277.000
10
0.000
20
0.000
0
LWPOLYLINE
8
0
90
5
70
1
10
4993.000
20
-2000.000
10
8346.000
20
-2000.000
10
8346.000
20
3335.000
10
4993.000
20
3335.000
10
4993.000
20
-2000.000
0
LWPOLYLINE
8
0
90
5
70
1
10
800.000
20
-3240.000
10
4153.000
20
-3240.000
10
4153.000
20
0.000
10
800.000
20
0.000
10
800.000
20
-3240.000
0
LWPOLYLINE
8
0
90
5
70
1
10
-2324.000
20
200.000
10
0.000
20
200.000
10
0.000
20
3270.000
10
-2324.000
20
3270.000
10
-2324.000
20
200.000
0
LWPOLYLINE
8
0
90
5
70
1
10
-800.000
20
3277.000
10
3163.000
20
3277.000
10
3163.000
20
7003.000
10
-800.000
20
7003.000
10
-800.000
20
3277.000
0
LWPOLYLINE
8
0
90
5
70
1
10
3163.000
20
3277.000
10
6402.000
20
3277.000
10
6402.000
20
8185.000
10
3163.000
20
8185.000
10
3163.000
20
3277.000
0
LWPOLYLINE
8
0
90
5
70
1
10
-2324.000
20
3277.000
10
-800.000
20
3277.000
10
-800.000
20
5410.000
10
-2324.000
20
5410.000
10
-2324.000
20
3277.000
0
LWPOLYLINE
8
0
90
5
70
1
10
6402.000
20
3277.000
10
7926.000
20
3277.000
10
7926.000
20
5562.000
10
6402.000
20
5562.000
10
6402.000
20
3277.000
0
LWPOLYLINE
8
0
90
5
70
1
10
2000.000
20
-4240.000
10
4438.000
20
-4240.000
10
4438.000
20
-3240.000
10
2000.000
20
-3240.000
10
2000.000
20
-4240.000
0
LWPOLYLINE
8
0
90
5
70
1
10
-400.000
20
-3240.000
10
800.000
20
-3240.000
10
800.000
20
0.000
10
-400.000
20
0.000
10
-400.000
20
-3240.000
0
LWPOLYLINE
8
0
90
5
70
1
10
2800.000
20
8185.000
10
6344.000
20
8185.000
10
6344.000
20
10585.000
10
2800.000
20
10585.000
10
2800.000
20
8185.000
0
ENDSEC
0
EOF
