0
SECTION
2
HEADER
9
$ACADVER
1
AC1015
9
$INSUNITS
70
4
9
$MEASUREMENT
70
1
0
ENDSEC
0
SECTION
2
TABLES
0
TABLE
2
LAYER
70
4
0
LAYER
100
AcDbSymbolTableRecord
100
AcDbLayerTableRecord
2
WALLS
70
0
62
7
6
CONTINUOUS
0
LAYER
100
AcDbSymbolTableRecord
100
AcDbLayerTableRecord
2
WINDOWS
70
0
62
4
6
CONTINUOUS
0
LAYER
100
AcDbSymbolTableRecord
100
AcDbLayerTableRecord
2
FURNITURE
70
0
62
8
6
CONTINUOUS
0
LAYER
100
AcDbSymbolTableRecord
100
AcDbLayerTableRecord
2
ROOM_LABELS
70
0
62
3
6
CONTINUOUS
0
ENDTAB
0
ENDSEC
0
SECTION
2
ENTITIES
0
LWPOLYLINE
100
AcDbEntity
8
WALLS
100
AcDbPolyline
90
4
70
1
10
-1003
20
3981
10
-918
20
3981
10
-918
20
7841
10
-1003
20
7841
0
LWPOLYLINE
100
AcDbEntity
8
WALLS
100
AcDbPolyline
90
4
70
1
10
-8142
20
8884
10
-4897
20
8884
10
-4897
20
8969
10
-8142
20
8969
0
LWPOLYLINE
100
AcDbEntity
8
WALLS
100
AcDbPolyline
90
4
70
1
10
-9525
20
6310
10
-8142
20
6310
10
-8142
20
6395
10
-9525
20
6395
0
LWPOLYLINE
100
AcDbEntity
8
WALLS
100
AcDbPolyline
90
4
70
1
10
-1003
20
7841
10
-918
20
7841
10
-918
20
10112
10
-1003
20
10112
0
LWPOLYLINE
100
AcDbEntity
8
WALLS
100
AcDbPolyline
90
4
70
1
10
-2497
20
10070
10
-960
20
10070
10
-960
20
10155
10
-2497
20
10155
0
LWPOLYLINE
100
AcDbEntity
8
WALLS
100
AcDbPolyline
90
4
70
1
10
-2539
20
7841
10
-2454
20
7841
10
-2454
20
10112
10
-2539
20
10112
0
LWPOLYLINE
100
AcDbEntity
8
WALLS
100
AcDbPolyline
90
4
70
1
10
-2539
20
10112
10
-2454
20
10112
10
-2454
20
13490
10
-2539
20
13490
0
LWPOLYLINE
100
AcDbEntity
8
WALLS
100
AcDbPolyline
90
4
70
1
10
-2497
20
13447
10
-2439
20
13447
10
-2439
20
13532
10
-2497
20
13532
0
LWPOLYLINE
100
AcDbEntity
8
WALLS
100
AcDbPolyline
90
4
70
1
10
-2481
20
13490
10
-2396
20
13490
10
-2396
20
14133
10
-2481
20
14133
0
LWPOLYLINE
100
AcDbEntity
8
WALLS
100
AcDbPolyline
90
4
70
1
10
-2497
20
14091
10
-2439
20
14091
10
-2439
20
14176
10
-2497
20
14176
0
LWPOLYLINE
100
AcDbEntity
8
WALLS
100
AcDbPolyline
90
4
70
1
10
-4939
20
13490
10
-4854
20
13490
10
-4854
20
14133
10
-4939
20
14133
0
LWPOLYLINE
100
AcDbEntity
8
WALLS
100
AcDbPolyline
90
4
70
1
10
-13255
20
9027
10
-13170
20
9027
10
-13170
20
14375
10
-13255
20
14375
0
LWPOLYLINE
100
AcDbEntity
8
WALLS
100
AcDbPolyline
90
4
70
1
10
-9932
20
14375
10
-9847
20
14375
10
-9847
20
17571
10
-9932
20
17571
0
LWPOLYLINE
100
AcDbEntity
8
WALLS
100
AcDbPolyline
90
4
70
1
10
-10024
20
17529
10
-9890
20
17529
10
-9890
20
17614
10
-10024
20
17614
0
LWPOLYLINE
100
AcDbEntity
8
WALLS
100
AcDbPolyline
90
4
70
1
10
-12540
20
14332
10
-10946
20
14332
10
-10946
20
14417
10
-12540
20
14417
0
LWPOLYLINE
100
AcDbEntity
8
WALLS
100
AcDbPolyline
90
4
70
1
10
-13212
20
14332
10
-13135
20
14332
10
-13135
20
14417
10
-13212
20
14417
0
LWPOLYLINE
100
AcDbEntity
8
WALLS
100
AcDbPolyline
90
4
70
1
10
-13255
20
14375
10
-13170
20
14375
10
-13170
20
16526
10
-13255
20
16526
0
LWPOLYLINE
100
AcDbEntity
8
WALLS
100
AcDbPolyline
90
4
70
1
10
-13255
20
17430
10
-13170
20
17430
10
-13170
20
17571
10
-13255
20
17571
0
LWPOLYLINE
100
AcDbEntity
8
WALLS
100
AcDbPolyline
90
4
70
1
10
-13212
20
17529
10
-10946
20
17529
10
-10946
20
17614
10
-13212
20
17614
0
LWPOLYLINE
100
AcDbEntity
8
WALLS
100
AcDbPolyline
90
4
70
1
10
-13212
20
15538
10
-11042
20
15538
10
-11042
20
15623
10
-13212
20
15623
0
LWPOLYLINE
100
AcDbEntity
8
WALLS
100
AcDbPolyline
90
4
70
1
10
-11085
20
15581
10
-11000
20
15581
10
-11000
20
16284
10
-11085
20
16284
0
LWPOLYLINE
100
AcDbEntity
8
WALLS
100
AcDbPolyline
90
4
70
1
10
-13212
20
16242
10
-11042
20
16242
10
-11042
20
16327
10
-13212
20
16327
0
LWPOLYLINE
100
AcDbEntity
8
WINDOWS
100
AcDbPolyline
90
4
70
1
10
-5285
20
13510
10
-5200
20
13510
10
-5200
20
15963
10
-5285
20
15963
0
LWPOLYLINE
100
AcDbEntity
8
WINDOWS
100
AcDbPolyline
90
4
70
1
10
-6510
20
15920
10
-5243
20
15920
10
-5243
20
16005
10
-6510
20
16005
0
LWPOLYLINE
100
AcDbEntity
8
WALLS
100
AcDbPolyline
90
4
70
1
10
-13212
20
8984
10
-12746
20
8984
10
-12746
20
9069
10
-13212
20
9069
0
LWPOLYLINE
100
AcDbEntity
8
WINDOWS
100
AcDbPolyline
90
4
70
1
10
-12746
20
8984
10
-10469
20
8984
10
-10469
20
9069
10
-12746
20
9069
0
LWPOLYLINE
100
AcDbEntity
8
WALLS
100
AcDbPolyline
90
4
70
1
10
-10469
20
8984
10
-9890
20
8984
10
-9890
20
9069
10
-10469
20
9069
0
LWPOLYLINE
100
AcDbEntity
8
WALLS
100
AcDbPolyline
90
4
70
1
10
-12540
20
14332
10
-11082
20
14332
10
-11082
20
14417
10
-12540
20
14417
0
LWPOLYLINE
100
AcDbEntity
8
WALLS
100
AcDbPolyline
90
4
70
1
10
-10091
20
14332
10
-9890
20
14332
10
-9890
20
14417
10
-10091
20
14417
0
LWPOLYLINE
100
AcDbEntity
8
WALLS
100
AcDbPolyline
90
4
70
1
10
-9932
20
12312
10
-9847
20
12312
10
-9847
20
14375
10
-9932
20
14375
0
LWPOLYLINE
100
AcDbEntity
8
WALLS
100
AcDbPolyline
90
4
70
1
10
-9890
20
8984
10
-8890
20
8984
10
-8890
20
9069
10
-9890
20
9069
0
LWPOLYLINE
100
AcDbEntity
8
WALLS
100
AcDbPolyline
90
4
70
1
10
-7990
20
8984
10
-4897
20
8984
10
-4897
20
9069
10
-7990
20
9069
0
LWPOLYLINE
100
AcDbEntity
8
WALLS
100
AcDbPolyline
90
4
70
1
10
-9890
20
12261
10
-9790
20
12261
10
-9790
20
12346
10
-9890
20
12346
0
LWPOLYLINE
100
AcDbEntity
8
WALLS
100
AcDbPolyline
90
4
70
1
10
-8890
20
12261
10
-6097
20
12261
10
-6097
20
12346
10
-8890
20
12346
0
LWPOLYLINE
100
AcDbEntity
8
WALLS
100
AcDbPolyline
90
4
70
1
10
-4939
20
10127
10
-4854
20
10127
10
-4854
20
12304
10
-4939
20
12304
0
LWPOLYLINE
100
AcDbEntity
8
WALLS
100
AcDbPolyline
90
4
70
1
10
-4003
20
7798
10
-2066
20
7798
10
-2066
20
7883
10
-4003
20
7883
0
LWPOLYLINE
100
AcDbEntity
8
WALLS
100
AcDbPolyline
90
4
70
1
10
-1370
20
7798
10
-960
20
7798
10
-960
20
7883
10
-1370
20
7883
0
LWPOLYLINE
100
AcDbEntity
8
WINDOWS
100
AcDbPolyline
90
4
70
1
10
-3138
20
3938
10
-2144
20
3938
10
-2144
20
4023
10
-3138
20
4023
0
LWPOLYLINE
100
AcDbEntity
8
WINDOWS
100
AcDbPolyline
90
4
70
1
10
-2144
20
3938
10
-960
20
3938
10
-960
20
4023
10
-2144
20
4023
0
LWPOLYLINE
100
AcDbEntity
8
WALLS
100
AcDbPolyline
90
4
70
1
10
-8142
20
3938
10
-7888
20
3938
10
-7888
20
4023
10
-8142
20
4023
0
LWPOLYLINE
100
AcDbEntity
8
WALLS
100
AcDbPolyline
90
4
70
1
10
-6513
20
3938
10
-6099
20
3938
10
-6099
20
4023
10
-6513
20
4023
0
LWPOLYLINE
100
AcDbEntity
8
WINDOWS
100
AcDbPolyline
90
4
70
1
10
-6099
20
3938
10
-5097
20
3938
10
-5097
20
4023
10
-6099
20
4023
0
LWPOLYLINE
100
AcDbEntity
8
WALLS
100
AcDbPolyline
90
4
70
1
10
-5097
20
3938
10
-4897
20
3938
10
-4897
20
4023
10
-5097
20
4023
0
LWPOLYLINE
100
AcDbEntity
8
WALLS
100
AcDbPolyline
90
4
70
1
10
-4939
20
3981
10
-4854
20
3981
10
-4854
20
8019
10
-4939
20
8019
0
LWPOLYLINE
100
AcDbEntity
8
WALLS
100
AcDbPolyline
90
4
70
1
10
-8185
20
6361
10
-8100
20
6361
10
-8100
20
8926
10
-8185
20
8926
0
LWPOLYLINE
100
AcDbEntity
8
WALLS
100
AcDbPolyline
90
4
70
1
10
-8185
20
3981
10
-8100
20
3981
10
-8100
20
4518
10
-8185
20
4518
0
LWPOLYLINE
100
AcDbEntity
8
WINDOWS
100
AcDbPolyline
90
4
70
1
10
-9525
20
3737
10
-8142
20
3737
10
-8142
20
3822
10
-9525
20
3822
0
LWPOLYLINE
100
AcDbEntity
8
WINDOWS
100
AcDbPolyline
90
4
70
1
10
-9568
20
3780
10
-9483
20
3780
10
-9483
20
6353
10
-9568
20
6353
0
LWPOLYLINE
100
AcDbEntity
8
WALLS
100
AcDbPolyline
90
4
70
1
10
-6553
20
12304
10
-6468
20
12304
10
-6468
20
13478
10
-6553
20
13478
0
LWPOLYLINE
100
AcDbEntity
8
WALLS
100
AcDbPolyline
90
4
70
1
10
-9890
20
15920
10
-9118
20
15920
10
-9118
20
16005
10
-9890
20
16005
0
LWPOLYLINE
100
AcDbEntity
8
WALLS
100
AcDbPolyline
90
4
70
1
10
-8463
20
15920
10
-7367
20
15920
10
-7367
20
16005
10
-8463
20
16005
0
LWPOLYLINE
100
AcDbEntity
8
WALLS
100
AcDbPolyline
90
4
70
1
10
-4014
20
10070
10
-2496
20
10070
10
-2496
20
10155
10
-4014
20
10155
0
LWPOLYLINE
100
AcDbEntity
8
WALLS
100
AcDbPolyline
90
4
70
1
10
-4897
20
14091
10
-4265
20
14091
10
-4265
20
14176
10
-4897
20
14176
0
LWPOLYLINE
100
AcDbEntity
8
WINDOWS
100
AcDbPolyline
90
4
70
1
10
-4265
20
14091
10
-3129
20
14091
10
-3129
20
14176
10
-4265
20
14176
0
LWPOLYLINE
100
AcDbEntity
8
WALLS
100
AcDbPolyline
90
4
70
1
10
-3129
20
14091
10
-2496
20
14091
10
-2496
20
14176
10
-3129
20
14176
0
LWPOLYLINE
100
AcDbEntity
8
WALLS
100
AcDbPolyline
90
4
70
1
10
-6501
20
13780
10
-5914
20
13780
10
-5914
20
13814
10
-6501
20
13814
0
LWPOLYLINE
100
AcDbEntity
8
WALLS
100
AcDbPolyline
90
4
70
1
10
-5896
20
13780
10
-5310
20
13780
10
-5310
20
13814
10
-5896
20
13814
0
LWPOLYLINE
100
AcDbEntity
8
FURNITURE
100
AcDbPolyline
90
4
70
1
10
-11102
20
16284
10
-10982
20
16284
10
-10982
20
16334
10
-11102
20
16334
0
LWPOLYLINE
100
AcDbEntity
8
FURNITURE
100
AcDbPolyline
90
4
70
1
10
-11102
20
17521
10
-10982
20
17521
10
-10982
20
17571
10
-11102
20
17571
0
LWPOLYLINE
100
AcDbEntity
8
FURNITURE
100
AcDbPolyline
90
4
70
1
10
-11102
20
16284
10
-10982
20
16284
10
-10982
20
17571
10
-11102
20
17571
0
LWPOLYLINE
100
AcDbEntity
8
FURNITURE
100
AcDbPolyline
90
4
70
1
10
-11085
20
16284
10
-11000
20
16284
10
-11000
20
17571
10
-11085
20
17571
0
LWPOLYLINE
100
AcDbEntity
8
FURNITURE
100
AcDbPolyline
90
4
70
1
10
-12225
20
17341
10
-12217
20
17296
10
-11038
20
17504
10
-11046
20
17548
0
LWPOLYLINE
100
AcDbEntity
8
FURNITURE
100
AcDbPolyline
90
4
70
1
10
-12091
20
17317
10
-12084
20
17277
10
-12059
20
17282
10
-12066
20
17321
0
LWPOLYLINE
100
AcDbEntity
8
FURNITURE
100
AcDbPolyline
90
4
70
1
10
-12106
20
17404
10
-12099
20
17364
10
-12075
20
17368
10
-12082
20
17408
0
LWPOLYLINE
100
AcDbEntity
8
FURNITURE
100
AcDbPolyline
90
4
70
1
10
-12482
20
14395
10
-12463
20
14395
10
-12463
20
15541
10
-12482
20
15541
0
LWPOLYLINE
100
AcDbEntity
8
FURNITURE
100
AcDbPolyline
90
4
70
1
10
-13212
20
15541
10
-12463
20
15541
10
-12463
20
15561
10
-13212
20
15561
0
LWPOLYLINE
100
AcDbEntity
8
FURNITURE
100
AcDbPolyline
90
4
70
1
10
-13193
20
15159
10
-12482
20
15159
10
-12482
20
15541
10
-13193
20
15541
0
LWPOLYLINE
100
AcDbEntity
8
FURNITURE
100
AcDbPolyline
90
4
70
1
10
-13135
20
14334
10
-12540
20
14334
10
-12540
20
14415
10
-13135
20
14415
0
LWPOLYLINE
100
AcDbEntity
8
FURNITURE
100
AcDbPolyline
90
4
70
1
10
-12579
20
14334
10
-12540
20
14334
10
-12540
20
14415
10
-12579
20
14415
0
LWPOLYLINE
100
AcDbEntity
8
FURNITURE
100
AcDbPolyline
90
4
70
1
10
-13135
20
14334
10
-13097
20
14334
10
-13097
20
14415
10
-13135
20
14415
0
LWPOLYLINE
100
AcDbEntity
8
FURNITURE
100
AcDbPolyline
90
4
70
1
10
-12832
20
14354
10
-12579
20
14354
10
-12579
20
14385
10
-12832
20
14385
0
LWPOLYLINE
100
AcDbEntity
8
FURNITURE
100
AcDbPolyline
90
4
70
1
10
-13097
20
14354
10
-12844
20
14354
10
-12844
20
14385
10
-13097
20
14385
0
LWPOLYLINE
100
AcDbEntity
8
FURNITURE
100
AcDbPolyline
90
4
70
1
10
-12813
20
14324
10
-12799
20
14324
10
-12799
20
14354
10
-12813
20
14354
0
LWPOLYLINE
100
AcDbEntity
8
FURNITURE
100
AcDbPolyline
90
4
70
1
10
-12870
20
14324
10
-12857
20
14324
10
-12857
20
14354
10
-12870
20
14354
0
LWPOLYLINE
100
AcDbEntity
8
FURNITURE
100
AcDbPolyline
90
4
70
1
10
-10889
20
17566
10
-10024
20
17566
10
-10024
20
17871
10
-10889
20
17871
0
LWPOLYLINE
100
AcDbEntity
8
FURNITURE
100
AcDbPolyline
90
4
70
1
10
-10450
20
17541
10
-10030
20
17541
10
-10030
20
17566
10
-10450
20
17566
0
LWPOLYLINE
100
AcDbEntity
8
FURNITURE
100
AcDbPolyline
90
4
70
1
10
-10392
20
17520
10
-10374
20
17520
10
-10374
20
17542
10
-10392
20
17542
0
LWPOLYLINE
100
AcDbEntity
8
FURNITURE
100
AcDbPolyline
90
4
70
1
10
-10883
20
17541
10
-10462
20
17541
10
-10462
20
17566
10
-10883
20
17566
0
LWPOLYLINE
100
AcDbEntity
8
FURNITURE
100
AcDbPolyline
90
4
70
1
10
-10539
20
17520
10
-10521
20
17520
10
-10521
20
17542
10
-10539
20
17542
0
LWPOLYLINE
100
AcDbEntity
8
FURNITURE
100
AcDbPolyline
90
4
70
1
10
-13183
20
11438
10
-12965
20
11438
10
-12965
20
12460
10
-13183
20
12460
0
LWPOLYLINE
100
AcDbEntity
8
FURNITURE
100
AcDbPolyline
90
4
70
1
10
-12962
20
11503
10
-12947
20
11503
10
-12947
20
12395
10
-12962
20
12395
0
LWPOLYLINE
100
AcDbEntity
8
FURNITURE
100
AcDbPolyline
90
4
70
1
10
-12962
20
11528
10
-12947
20
11528
10
-12947
20
12370
10
-12962
20
12370
0
LWPOLYLINE
100
AcDbEntity
8
FURNITURE
100
AcDbPolyline
90
32
70
1
10
-11567
20
11949
10
-11566
20
11932
10
-11561
20
11916
10
-11553
20
11901
10
-11543
20
11889
10
-11530
20
11878
10
-11515
20
11870
10
-11500
20
11865
10
-11483
20
11864
10
-11467
20
11865
10
-11451
20
11870
10
-11436
20
11878
10
-11424
20
11889
10
-11413
20
11901
10
-11405
20
11916
10
-11401
20
11932
10
-11399
20
11949
10
-11401
20
11965
10
-11405
20
11981
10
-11413
20
11996
10
-11424
20
12009
10
-11436
20
12020
10
-11451
20
12028
10
-11467
20
12032
10
-11483
20
12034
10
-11500
20
12032
10
-11515
20
12028
10
-11530
20
12020
10
-11543
20
12009
10
-11553
20
11996
10
-11561
20
11981
10
-11566
20
11965
0
LWPOLYLINE
100
AcDbEntity
8
FURNITURE
100
AcDbPolyline
90
4
70
1
10
-11489
20
11943
10
-11477
20
11943
10
-11477
20
11955
10
-11489
20
11955
0
LWPOLYLINE
100
AcDbEntity
8
FURNITURE
100
AcDbPolyline
90
48
70
1
10
-11834
20
11949
10
-11831
20
11902
10
-11822
20
11857
10
-11807
20
11813
10
-11787
20
11771
10
-11762
20
11733
10
-11731
20
11698
10
-11697
20
11667
10
-11659
20
11641
10
-11617
20
11621
10
-11574
20
11606
10
-11529
20
11597
10
-11483
20
11594
10
-11437
20
11597
10
-11392
20
11606
10
-11349
20
11621
10
-11308
20
11641
10
-11270
20
11667
10
-11235
20
11698
10
-11205
20
11733
10
-11179
20
11771
10
-11159
20
11813
10
-11144
20
11857
10
-11135
20
11902
10
-11132
20
11949
10
-11135
20
11995
10
-11144
20
12041
10
-11159
20
12085
10
-11179
20
12126
10
-11205
20
12165
10
-11235
20
12200
10
-11270
20
12230
10
-11308
20
12256
10
-11349
20
12277
10
-11392
20
12292
10
-11437
20
12301
10
-11483
20
12304
10
-11529
20
12301
10
-11574
20
12292
10
-11617
20
12277
10
-11659
20
12256
10
-11697
20
12230
10
-11731
20
12200
10
-11762
20
12165
10
-11787
20
12126
10
-11807
20
12085
10
-11822
20
12041
10
-11831
20
11995
0
LWPOLYLINE
100
AcDbEntity
8
FURNITURE
100
AcDbPolyline
90
48
70
1
10
-11799
20
11949
10
-11797
20
11907
10
-11789
20
11866
10
-11775
20
11826
10
-11757
20
11789
10
-11734
20
11754
10
-11707
20
11723
10
-11676
20
11695
10
-11641
20
11672
10
-11604
20
11653
10
-11565
20
11640
10
-11524
20
11632
10
-11483
20
11629
10
-11442
20
11632
10
-11401
20
11640
10
-11362
20
11653
10
-11325
20
11672
10
-11291
20
11695
10
-11260
20
11723
10
-11232
20
11754
10
-11210
20
11789
10
-11191
20
11826
10
-11178
20
11866
10
-11170
20
11907
10
-11167
20
11949
10
-11170
20
11991
10
-11178
20
12032
10
-11191
20
12071
10
-11210
20
12109
10
-11232
20
12143
10
-11260
20
12175
10
-11291
20
12202
10
-11325
20
12226
10
-11362
20
12244
10
-11401
20
12258
10
-11442
20
12266
10
-11483
20
12269
10
-11524
20
12266
10
-11565
20
12258
10
-11604
20
12244
10
-11641
20
12226
10
-11676
20
12202
10
-11707
20
12175
10
-11734
20
12143
10
-11757
20
12109
10
-11775
20
12071
10
-11789
20
12032
10
-11797
20
11991
0
LWPOLYLINE
100
AcDbEntity
8
FURNITURE
100
AcDbPolyline
90
4
70
1
10
-13200
20
13452
10
-13155
20
13452
10
-13155
20
13593
10
-13200
20
13593
0
LWPOLYLINE
100
AcDbEntity
8
FURNITURE
100
AcDbPolyline
90
4
70
1
10
-13198
20
13470
10
-13143
20
13470
10
-13143
20
13575
10
-13198
20
13575
0
LWPOLYLINE
100
AcDbEntity
8
FURNITURE
100
AcDbPolyline
90
4
70
1
10
-13173
20
9668
10
-13133
20
9668
10
-13133
20
9769
10
-13173
20
9769
0
LWPOLYLINE
100
AcDbEntity
8
FURNITURE
100
AcDbPolyline
90
4
70
1
10
-13153
20
9706
10
-12935
20
9706
10
-12935
20
9731
10
-13153
20
9731
0
LWPOLYLINE
100
AcDbEntity
8
FURNITURE
100
AcDbPolyline
90
4
70
1
10
-13004
20
9658
10
-12885
20
9658
10
-12885
20
9779
10
-13004
20
9779
0
LWPOLYLINE
100
AcDbEntity
8
FURNITURE
100
AcDbPolyline
90
4
70
1
10
-12994
20
9668
10
-12895
20
9668
10
-12895
20
9769
10
-12994
20
9769
0
LWPOLYLINE
100
AcDbEntity
8
FURNITURE
100
AcDbPolyline
90
4
70
1
10
-12563
20
9561
10
-10591
20
9561
10
-10591
20
9586
10
-12563
20
9586
0
LWPOLYLINE
100
AcDbEntity
8
FURNITURE
100
AcDbPolyline
90
4
70
1
10
-9935
20
12862
10
-9921
20
12862
10
-9921
20
12880
10
-9935
20
12880
0
LWPOLYLINE
100
AcDbEntity
8
FURNITURE
100
AcDbPolyline
90
4
70
1
10
-9932
20
12711
10
-9907
20
12711
10
-9907
20
13031
10
-9932
20
13031
0
LWPOLYLINE
100
AcDbEntity
8
FURNITURE
100
AcDbPolyline
90
4
70
1
10
-10361
20
12848
10
-9915
20
12848
10
-9915
20
12894
10
-10361
20
12894
0
LWPOLYLINE
100
AcDbEntity
8
FURNITURE
100
AcDbPolyline
90
4
70
1
10
-10832
20
13291
10
-9970
20
12419
10
-9939
20
12451
10
-10801
20
13323
0
LWPOLYLINE
100
AcDbEntity
8
FURNITURE
100
AcDbPolyline
90
4
70
1
10
-10826
20
13280
10
-9981
20
12425
10
-9979
20
12427
10
-10824
20
13282
0
LWPOLYLINE
100
AcDbEntity
8
FURNITURE
100
AcDbPolyline
90
4
70
1
10
-10005
20
12445
10
-10001
20
12440
10
-9998
20
12443
10
-10003
20
12447
0
LWPOLYLINE
100
AcDbEntity
8
FURNITURE
100
AcDbPolyline
90
4
70
1
10
-9927
20
9027
10
-9853
20
9027
10
-9853
20
12312
10
-9927
20
12312
0
LWPOLYLINE
100
AcDbEntity
8
FURNITURE
100
AcDbPolyline
90
4
70
1
10
-9917
20
12294
10
-9863
20
12294
10
-9863
20
12329
10
-9917
20
12329
0
LWPOLYLINE
100
AcDbEntity
8
FURNITURE
100
AcDbPolyline
90
4
70
1
10
-9917
20
9009
10
-9863
20
9009
10
-9863
20
9044
10
-9917
20
9044
0
LWPOLYLINE
100
AcDbEntity
8
FURNITURE
100
AcDbPolyline
90
4
70
1
10
-9905
20
9029
10
-9875
20
9029
10
-9875
20
9353
10
-9905
20
9353
0
LWPOLYLINE
100
AcDbEntity
8
FURNITURE
100
AcDbPolyline
90
4
70
1
10
-9905
20
9358
10
-9875
20
9358
10
-9875
20
9681
10
-9905
20
9681
0
LWPOLYLINE
100
AcDbEntity
8
FURNITURE
100
AcDbPolyline
90
4
70
1
10
-9905
20
9686
10
-9875
20
9686
10
-9875
20
10010
10
-9905
20
10010
0
LWPOLYLINE
100
AcDbEntity
8
FURNITURE
100
AcDbPolyline
90
4
70
1
10
-9905
20
10015
10
-9875
20
10015
10
-9875
20
10338
10
-9905
20
10338
0
LWPOLYLINE
100
AcDbEntity
8
FURNITURE
100
AcDbPolyline
90
4
70
1
10
-9905
20
10343
10
-9875
20
10343
10
-9875
20
10667
10
-9905
20
10667
0
LWPOLYLINE
100
AcDbEntity
8
FURNITURE
100
AcDbPolyline
90
4
70
1
10
-9905
20
10672
10
-9875
20
10672
10
-9875
20
10995
10
-9905
20
10995
0
LWPOLYLINE
100
AcDbEntity
8
FURNITURE
100
AcDbPolyline
90
4
70
1
10
-9905
20
11000
10
-9875
20
11000
10
-9875
20
11324
10
-9905
20
11324
0
LWPOLYLINE
100
AcDbEntity
8
FURNITURE
100
AcDbPolyline
90
4
70
1
10
-9905
20
11329
10
-9875
20
11329
10
-9875
20
11652
10
-9905
20
11652
0
LWPOLYLINE
100
AcDbEntity
8
FURNITURE
100
AcDbPolyline
90
4
70
1
10
-9905
20
11657
10
-9875
20
11657
10
-9875
20
11981
10
-9905
20
11981
0
LWPOLYLINE
100
AcDbEntity
8
FURNITURE
100
AcDbPolyline
90
4
70
1
10
-9905
20
11986
10
-9875
20
11986
10
-9875
20
12309
10
-9905
20
12309
0
LWPOLYLINE
100
AcDbEntity
8
FURNITURE
100
AcDbPolyline
90
4
70
1
10
-9934
20
12236
10
-9906
20
12236
10
-9906
20
12257
10
-9934
20
12257
0
LWPOLYLINE
100
AcDbEntity
8
FURNITURE
100
AcDbPolyline
90
4
70
1
10
-9874
20
12236
10
-9846
20
12236
10
-9846
20
12257
10
-9874
20
12257
0
LWPOLYLINE
100
AcDbEntity
8
FURNITURE
100
AcDbPolyline
90
4
70
1
10
-13074
20
10821
10
-12202
20
10821
10
-12202
20
13076
10
-13074
20
13076
0
LWPOLYLINE
100
AcDbEntity
8
FURNITURE
100
AcDbPolyline
90
4
70
1
10
-13074
20
10821
10
-12915
20
10821
10
-12915
20
13076
10
-13074
20
13076
0
LWPOLYLINE
100
AcDbEntity
8
FURNITURE
100
AcDbPolyline
90
48
70
1
10
-11805
20
11949
10
-11803
20
11877
10
-11794
20
11806
10
-11781
20
11738
10
-11762
20
11673
10
-11739
20
11613
10
-11711
20
11559
10
-11679
20
11511
10
-11644
20
11471
10
-11606
20
11439
10
-11567
20
11416
10
-11525
20
11402
10
-11483
20
11397
10
-11441
20
11402
10
-11400
20
11416
10
-11360
20
11439
10
-11322
20
11471
10
-11287
20
11511
10
-11256
20
11559
10
-11228
20
11613
10
-11204
20
11673
10
-11186
20
11738
10
-11172
20
11806
10
-11164
20
11877
10
-11161
20
11949
10
-11164
20
12021
10
-11172
20
12091
10
-11186
20
12160
10
-11204
20
12224
10
-11228
20
12284
10
-11256
20
12339
10
-11287
20
12386
10
-11322
20
12426
10
-11360
20
12458
10
-11400
20
12481
10
-11441
20
12495
10
-11483
20
12500
10
-11525
20
12495
10
-11567
20
12481
10
-11606
20
12458
10
-11644
20
12426
10
-11679
20
12386
10
-11711
20
12339
10
-11739
20
12284
10
-11762
20
12224
10
-11781
20
12160
10
-11794
20
12091
10
-11803
20
12021
0
LWPOLYLINE
100
AcDbEntity
8
FURNITURE
100
AcDbPolyline
90
4
70
1
10
-11699
20
12232
10
-11664
20
12232
10
-11664
20
12267
10
-11699
20
12267
0
LWPOLYLINE
100
AcDbEntity
8
FURNITURE
100
AcDbPolyline
90
4
70
1
10
-11699
20
11631
10
-11664
20
11631
10
-11664
20
11666
10
-11699
20
11666
0
LWPOLYLINE
100
AcDbEntity
8
FURNITURE
100
AcDbPolyline
90
4
70
1
10
-11302
20
12232
10
-11268
20
12232
10
-11268
20
12267
10
-11302
20
12267
0
LWPOLYLINE
100
AcDbEntity
8
FURNITURE
100
AcDbPolyline
90
4
70
1
10
-11302
20
11631
10
-11268
20
11631
10
-11268
20
11666
10
-11302
20
11666
0
LWPOLYLINE
100
AcDbEntity
8
FURNITURE
100
AcDbPolyline
90
4
70
1
10
-12643
20
9062
10
-10512
20
9062
10
-10512
20
9573
10
-12643
20
9573
0
LWPOLYLINE
100
AcDbEntity
8
FURNITURE
100
AcDbPolyline
90
4
70
1
10
-7820
20
12054
10
-6800
20
12054
10
-6800
20
12274
10
-7820
20
12274
0
LWPOLYLINE
100
AcDbEntity
8
FURNITURE
100
AcDbPolyline
90
4
70
1
10
-7755
20
12036
10
-6865
20
12036
10
-6865
20
12051
10
-7755
20
12051
0
LWPOLYLINE
100
AcDbEntity
8
FURNITURE
100
AcDbPolyline
90
4
70
1
10
-7730
20
12036
10
-6890
20
12036
10
-6890
20
12051
10
-7730
20
12051
0
LWPOLYLINE
100
AcDbEntity
8
FURNITURE
100
AcDbPolyline
90
4
70
1
10
-7740
20
11309
10
-7640
20
11309
10
-7640
20
12059
10
-7740
20
12059
0
LWPOLYLINE
100
AcDbEntity
8
FURNITURE
100
AcDbPolyline
90
4
70
1
10
-7693
20
11981
10
-7687
20
11981
10
-7687
20
11987
10
-7693
20
11987
0
LWPOLYLINE
100
AcDbEntity
8
FURNITURE
100
AcDbPolyline
90
4
70
1
10
-7693
20
11381
10
-7687
20
11381
10
-7687
20
11387
10
-7693
20
11387
0
LWPOLYLINE
100
AcDbEntity
8
FURNITURE
100
AcDbPolyline
90
4
70
1
10
-7770
20
11234
10
-7610
20
11234
10
-7610
20
12134
10
-7770
20
12134
0
LWPOLYLINE
100
AcDbEntity
8
FURNITURE
100
AcDbPolyline
90
4
70
1
10
-7755
20
11249
10
-7625
20
11249
10
-7625
20
12119
10
-7755
20
12119
0
LWPOLYLINE
100
AcDbEntity
8
FURNITURE
100
AcDbPolyline
90
4
70
1
10
-9890
20
9077
10
-8890
20
9077
10
-8890
20
9102
10
-9890
20
9102
0
LWPOLYLINE
100
AcDbEntity
8
FURNITURE
100
AcDbPolyline
90
4
70
1
10
-9741
20
9102
10
-9738
20
9102
10
-9738
20
9103
10
-9741
20
9103
0
LWPOLYLINE
100
AcDbEntity
8
FURNITURE
100
AcDbPolyline
90
4
70
1
10
-9591
20
9102
10
-9588
20
9102
10
-9588
20
9103
10
-9591
20
9103
0
LWPOLYLINE
100
AcDbEntity
8
FURNITURE
100
AcDbPolyline
90
4
70
1
10
-9441
20
9102
10
-9438
20
9102
10
-9438
20
9103
10
-9441
20
9103
0
LWPOLYLINE
100
AcDbEntity
8
FURNITURE
100
AcDbPolyline
90
4
70
1
10
-9291
20
9102
10
-9288
20
9102
10
-9288
20
9103
10
-9291
20
9103
0
LWPOLYLINE
100
AcDbEntity
8
FURNITURE
100
AcDbPolyline
90
4
70
1
10
-9141
20
9102
10
-9138
20
9102
10
-9138
20
9103
10
-9141
20
9103
0
LWPOLYLINE
100
AcDbEntity
8
FURNITURE
100
AcDbPolyline
90
4
70
1
10
-8991
20
9102
10
-8988
20
9102
10
-8988
20
9103
10
-8991
20
9103
0
LWPOLYLINE
100
AcDbEntity
8
FURNITURE
100
AcDbPolyline
90
4
70
1
10
-8890
20
9077
10
-7990
20
9077
10
-7990
20
9102
10
-8890
20
9102
0
LWPOLYLINE
100
AcDbEntity
8
FURNITURE
100
AcDbPolyline
90
4
70
1
10
-8841
20
9102
10
-8838
20
9102
10
-8838
20
9103
10
-8841
20
9103
0
LWPOLYLINE
100
AcDbEntity
8
FURNITURE
100
AcDbPolyline
90
4
70
1
10
-8691
20
9102
10
-8688
20
9102
10
-8688
20
9103
10
-8691
20
9103
0
LWPOLYLINE
100
AcDbEntity
8
FURNITURE
100
AcDbPolyline
90
4
70
1
10
-8541
20
9102
10
-8538
20
9102
10
-8538
20
9103
10
-8541
20
9103
0
LWPOLYLINE
100
AcDbEntity
8
FURNITURE
100
AcDbPolyline
90
4
70
1
10
-8391
20
9102
10
-8388
20
9102
10
-8388
20
9103
10
-8391
20
9103
0
LWPOLYLINE
100
AcDbEntity
8
FURNITURE
100
AcDbPolyline
90
4
70
1
10
-8241
20
9102
10
-8238
20
9102
10
-8238
20
9103
10
-8241
20
9103
0
LWPOLYLINE
100
AcDbEntity
8
FURNITURE
100
AcDbPolyline
90
4
70
1
10
-8091
20
9102
10
-8088
20
9102
10
-8088
20
9103
10
-8091
20
9103
0
LWPOLYLINE
100
AcDbEntity
8
FURNITURE
100
AcDbPolyline
90
4
70
1
10
-7990
20
9077
10
-4897
20
9077
10
-4897
20
9102
10
-7990
20
9102
0
LWPOLYLINE
100
AcDbEntity
8
FURNITURE
100
AcDbPolyline
90
4
70
1
10
-7941
20
9102
10
-7938
20
9102
10
-7938
20
9103
10
-7941
20
9103
0
LWPOLYLINE
100
AcDbEntity
8
FURNITURE
100
AcDbPolyline
90
4
70
1
10
-7791
20
9102
10
-7788
20
9102
10
-7788
20
9103
10
-7791
20
9103
0
LWPOLYLINE
100
AcDbEntity
8
FURNITURE
100
AcDbPolyline
90
4
70
1
10
-7641
20
9102
10
-7638
20
9102
10
-7638
20
9103
10
-7641
20
9103
0
LWPOLYLINE
100
AcDbEntity
8
FURNITURE
100
AcDbPolyline
90
4
70
1
10
-7491
20
9102
10
-7488
20
9102
10
-7488
20
9103
10
-7491
20
9103
0
LWPOLYLINE
100
AcDbEntity
8
FURNITURE
100
AcDbPolyline
90
4
70
1
10
-7341
20
9102
10
-7338
20
9102
10
-7338
20
9103
10
-7341
20
9103
0
LWPOLYLINE
100
AcDbEntity
8
FURNITURE
100
AcDbPolyline
90
4
70
1
10
-7191
20
9102
10
-7188
20
9102
10
-7188
20
9103
10
-7191
20
9103
0
LWPOLYLINE
100
AcDbEntity
8
FURNITURE
100
AcDbPolyline
90
4
70
1
10
-7041
20
9102
10
-7038
20
9102
10
-7038
20
9103
10
-7041
20
9103
0
LWPOLYLINE
100
AcDbEntity
8
FURNITURE
100
AcDbPolyline
90
4
70
1
10
-6891
20
9102
10
-6888
20
9102
10
-6888
20
9103
10
-6891
20
9103
0
LWPOLYLINE
100
AcDbEntity
8
FURNITURE
100
AcDbPolyline
90
4
70
1
10
-6741
20
9102
10
-6738
20
9102
10
-6738
20
9103
10
-6741
20
9103
0
LWPOLYLINE
100
AcDbEntity
8
FURNITURE
100
AcDbPolyline
90
4
70
1
10
-6591
20
9102
10
-6588
20
9102
10
-6588
20
9103
10
-6591
20
9103
0
LWPOLYLINE
100
AcDbEntity
8
FURNITURE
100
AcDbPolyline
90
4
70
1
10
-6441
20
9102
10
-6438
20
9102
10
-6438
20
9103
10
-6441
20
9103
0
LWPOLYLINE
100
AcDbEntity
8
FURNITURE
100
AcDbPolyline
90
4
70
1
10
-6291
20
9102
10
-6288
20
9102
10
-6288
20
9103
10
-6291
20
9103
0
LWPOLYLINE
100
AcDbEntity
8
FURNITURE
100
AcDbPolyline
90
4
70
1
10
-6141
20
9102
10
-6138
20
9102
10
-6138
20
9103
10
-6141
20
9103
0
LWPOLYLINE
100
AcDbEntity
8
FURNITURE
100
AcDbPolyline
90
4
70
1
10
-5991
20
9102
10
-5988
20
9102
10
-5988
20
9103
10
-5991
20
9103
0
LWPOLYLINE
100
AcDbEntity
8
FURNITURE
100
AcDbPolyline
90
4
70
1
10
-5841
20
9102
10
-5838
20
9102
10
-5838
20
9103
10
-5841
20
9103
0
LWPOLYLINE
100
AcDbEntity
8
FURNITURE
100
AcDbPolyline
90
4
70
1
10
-5691
20
9102
10
-5688
20
9102
10
-5688
20
9103
10
-5691
20
9103
0
LWPOLYLINE
100
AcDbEntity
8
FURNITURE
100
AcDbPolyline
90
4
70
1
10
-5541
20
9102
10
-5538
20
9102
10
-5538
20
9103
10
-5541
20
9103
0
LWPOLYLINE
100
AcDbEntity
8
FURNITURE
100
AcDbPolyline
90
4
70
1
10
-5391
20
9102
10
-5388
20
9102
10
-5388
20
9103
10
-5391
20
9103
0
LWPOLYLINE
100
AcDbEntity
8
FURNITURE
100
AcDbPolyline
90
4
70
1
10
-5241
20
9102
10
-5238
20
9102
10
-5238
20
9103
10
-5241
20
9103
0
LWPOLYLINE
100
AcDbEntity
8
FURNITURE
100
AcDbPolyline
90
4
70
1
10
-5091
20
9102
10
-5088
20
9102
10
-5088
20
9103
10
-5091
20
9103
0
LWPOLYLINE
100
AcDbEntity
8
FURNITURE
100
AcDbPolyline
90
4
70
1
10
-4941
20
9102
10
-4938
20
9102
10
-4938
20
9103
10
-4941
20
9103
0
LWPOLYLINE
100
AcDbEntity
8
FURNITURE
100
AcDbPolyline
90
4
70
1
10
-8887
20
9077
10
-7993
20
9077
10
-7993
20
9102
10
-8887
20
9102
0
LWPOLYLINE
100
AcDbEntity
8
FURNITURE
100
AcDbPolyline
90
4
70
1
10
-8062
20
9103
10
-8048
20
9103
10
-8048
20
9105
10
-8062
20
9105
0
LWPOLYLINE
100
AcDbEntity
8
FURNITURE
100
AcDbPolyline
90
4
70
1
10
-5297
20
10204
10
-4897
20
10204
10
-4897
20
11654
10
-5297
20
11654
0
LWPOLYLINE
100
AcDbEntity
8
FURNITURE
100
AcDbPolyline
90
4
70
1
10
-5297
20
11604
10
-4897
20
11604
10
-4897
20
11654
10
-5297
20
11654
0
LWPOLYLINE
100
AcDbEntity
8
FURNITURE
100
AcDbPolyline
90
4
70
1
10
-5297
20
10204
10
-4897
20
10204
10
-4897
20
10254
10
-5297
20
10254
0
LWPOLYLINE
100
AcDbEntity
8
FURNITURE
100
AcDbPolyline
90
4
70
1
10
-4929
20
10204
10
-4904
20
10204
10
-4904
20
11654
10
-4929
20
11654
0
LWPOLYLINE
100
AcDbEntity
8
FURNITURE
100
AcDbPolyline
90
4
70
1
10
-5326
20
11235
10
-5298
20
11235
10
-5298
20
11648
10
-5326
20
11648
0
LWPOLYLINE
100
AcDbEntity
8
FURNITURE
100
AcDbPolyline
90
4
70
1
10
-5349
20
11429
10
-5325
20
11429
10
-5325
20
11454
10
-5349
20
11454
0
LWPOLYLINE
100
AcDbEntity
8
FURNITURE
100
AcDbPolyline
90
4
70
1
10
-5277
20
11220
10
-4917
20
11220
10
-4917
20
11238
10
-5277
20
11238
0
LWPOLYLINE
100
AcDbEntity
8
FURNITURE
100
AcDbPolyline
90
4
70
1
10
-5326
20
10635
10
-5298
20
10635
10
-5298
20
11223
10
-5326
20
11223
0
LWPOLYLINE
100
AcDbEntity
8
FURNITURE
100
AcDbPolyline
90
4
70
1
10
-5349
20
10916
10
-5325
20
10916
10
-5325
20
10941
10
-5349
20
10941
0
LWPOLYLINE
100
AcDbEntity
8
FURNITURE
100
AcDbPolyline
90
4
70
1
10
-5349
20
10859
10
-5325
20
10859
10
-5325
20
10999
10
-5349
20
10999
0
LWPOLYLINE
100
AcDbEntity
8
FURNITURE
100
AcDbPolyline
90
4
70
1
10
-5277
20
10620
10
-4917
20
10620
10
-4917
20
10638
10
-5277
20
10638
0
LWPOLYLINE
100
AcDbEntity
8
FURNITURE
100
AcDbPolyline
90
4
70
1
10
-5326
20
10210
10
-5298
20
10210
10
-5298
20
10623
10
-5326
20
10623
0
LWPOLYLINE
100
AcDbEntity
8
FURNITURE
100
AcDbPolyline
90
4
70
1
10
-5349
20
10404
10
-5325
20
10404
10
-5325
20
10429
10
-5349
20
10429
0
LWPOLYLINE
100
AcDbEntity
8
FURNITURE
100
AcDbPolyline
90
4
70
1
10
-8040
20
11084
10
-7340
20
11084
10
-7340
20
12284
10
-8040
20
12284
0
LWPOLYLINE
100
AcDbEntity
8
FURNITURE
100
AcDbPolyline
90
4
70
1
10
-7735
20
11639
10
-7645
20
11639
10
-7645
20
11729
10
-7735
20
11729
0
LWPOLYLINE
100
AcDbEntity
8
FURNITURE
100
AcDbPolyline
90
4
70
1
10
-8530
20
11799
10
-8090
20
11799
10
-8090
20
12229
10
-8530
20
12229
0
LWPOLYLINE
100
AcDbEntity
8
FURNITURE
100
AcDbPolyline
90
4
70
1
10
-8545
20
11799
10
-8475
20
11799
10
-8475
20
12229
10
-8545
20
12229
0
LWPOLYLINE
100
AcDbEntity
8
FURNITURE
100
AcDbPolyline
90
4
70
1
10
-8530
20
11139
10
-8090
20
11139
10
-8090
20
11569
10
-8530
20
11569
0
LWPOLYLINE
100
AcDbEntity
8
FURNITURE
100
AcDbPolyline
90
4
70
1
10
-8545
20
11139
10
-8475
20
11139
10
-8475
20
11569
10
-8545
20
11569
0
LWPOLYLINE
100
AcDbEntity
8
FURNITURE
100
AcDbPolyline
90
4
70
1
10
-7290
20
11799
10
-6850
20
11799
10
-6850
20
12229
10
-7290
20
12229
0
LWPOLYLINE
100
AcDbEntity
8
FURNITURE
100
AcDbPolyline
90
4
70
1
10
-6905
20
11799
10
-6835
20
11799
10
-6835
20
12229
10
-6905
20
12229
0
LWPOLYLINE
100
AcDbEntity
8
FURNITURE
100
AcDbPolyline
90
4
70
1
10
-7290
20
11139
10
-6850
20
11139
10
-6850
20
11569
10
-7290
20
11569
0
LWPOLYLINE
100
AcDbEntity
8
FURNITURE
100
AcDbPolyline
90
4
70
1
10
-6905
20
11139
10
-6835
20
11139
10
-6835
20
11569
10
-6905
20
11569
0
LWPOLYLINE
100
AcDbEntity
8
FURNITURE
100
AcDbPolyline
90
4
70
1
10
-6097
20
12304
10
-4897
20
12304
10
-4897
20
13304
10
-6097
20
13304
0
LWPOLYLINE
100
AcDbEntity
8
FURNITURE
100
AcDbPolyline
90
4
70
1
10
-6087
20
12314
10
-4907
20
12314
10
-4907
20
13294
10
-6087
20
13294
0
LWPOLYLINE
100
AcDbEntity
8
FURNITURE
100
AcDbPolyline
90
4
70
1
10
-6047
20
12304
10
-4947
20
12304
10
-4947
20
12854
10
-6047
20
12854
0
LWPOLYLINE
100
AcDbEntity
8
FURNITURE
100
AcDbPolyline
90
4
70
1
10
-6047
20
12296
10
-4947
20
12296
10
-4947
20
12305
10
-6047
20
12305
0
LWPOLYLINE
100
AcDbEntity
8
FURNITURE
100
AcDbPolyline
90
4
70
1
10
-6027
20
12273
10
-4967
20
12273
10
-4967
20
12295
10
-6027
20
12295
0
LWPOLYLINE
100
AcDbEntity
8
FURNITURE
100
AcDbPolyline
90
4
70
1
10
-5587
20
12242
10
-5407
20
12242
10
-5407
20
12268
10
-5587
20
12268
0
LWPOLYLINE
100
AcDbEntity
8
FURNITURE
100
AcDbPolyline
90
4
70
1
10
-6097
20
12209
10
-6017
20
12209
10
-6017
20
12329
10
-6097
20
12329
0
LWPOLYLINE
100
AcDbEntity
8
FURNITURE
100
AcDbPolyline
90
4
70
1
10
-4977
20
12209
10
-4897
20
12209
10
-4897
20
12329
10
-4977
20
12329
0
LWPOLYLINE
100
AcDbEntity
8
FURNITURE
100
AcDbPolyline
90
4
70
1
10
-6097
20
12209
10
-4897
20
12209
10
-4897
20
12329
10
-6097
20
12329
0
LWPOLYLINE
100
AcDbEntity
8
FURNITURE
100
AcDbPolyline
90
4
70
1
10
-6097
20
12249
10
-4897
20
12249
10
-4897
20
12359
10
-6097
20
12359
0
LWPOLYLINE
100
AcDbEntity
8
FURNITURE
100
AcDbPolyline
90
8
70
1
10
-4977
20
11743
10
-4973
20
11805
10
-4968
20
11883
10
-4952
20
12139
10
-4952
20
12147
10
-4953
20
12132
10
-4961
20
12008
10
-4977
20
11752
0
LWPOLYLINE
100
AcDbEntity
8
FURNITURE
100
AcDbPolyline
90
5
70
1
10
-4971
20
11743
10
-4970
20
11758
10
-4962
20
11883
10
-4964
20
11860
10
-4971
20
11752
0
LWPOLYLINE
100
AcDbEntity
8
FURNITURE
100
AcDbPolyline
90
5
70
1
10
-4955
20
12007
10
-4953
20
12030
10
-4946
20
12138
10
-4946
20
12147
10
-4947
20
12132
0
LWPOLYLINE
100
AcDbEntity
8
FURNITURE
100
AcDbPolyline
90
4
70
1
10
-4979
20
12142
10
-4924
20
12138
10
-4920
20
12203
10
-4975
20
12206
0
LWPOLYLINE
100
AcDbEntity
8
FURNITURE
100
AcDbPolyline
90
4
70
1
10
-5007
20
11688
10
-4952
20
11684
10
-4948
20
11749
10
-5003
20
11752
0
LWPOLYLINE
100
AcDbEntity
8
FURNITURE
100
AcDbPolyline
90
4
70
1
10
-5006
20
11715
10
-4951
20
11712
10
-4921
20
12176
10
-4976
20
12179
0
LWPOLYLINE
100
AcDbEntity
8
FURNITURE
100
AcDbPolyline
90
4
70
1
10
-4974
20
11743
10
-4962
20
11742
10
-4937
20
12146
10
-4949
20
12147
0
LWPOLYLINE
100
AcDbEntity
8
FURNITURE
100
AcDbPolyline
90
4
70
1
10
-4960
20
11755
10
-4958
20
11755
10
-4958
20
11758
10
-4960
20
11758
0
LWPOLYLINE
100
AcDbEntity
8
FURNITURE
100
AcDbPolyline
90
4
70
1
10
-4959
20
11784
10
-4957
20
11784
10
-4956
20
11787
10
-4958
20
11787
0
LWPOLYLINE
100
AcDbEntity
8
FURNITURE
100
AcDbPolyline
90
4
70
1
10
-4957
20
11813
10
-4955
20
11813
10
-4955
20
11816
10
-4957
20
11816
0
LWPOLYLINE
100
AcDbEntity
8
FURNITURE
100
AcDbPolyline
90
4
70
1
10
-4955
20
11842
10
-4953
20
11842
10
-4953
20
11845
10
-4955
20
11845
0
LWPOLYLINE
100
AcDbEntity
8
FURNITURE
100
AcDbPolyline
90
4
70
1
10
-4953
20
11871
10
-4951
20
11871
10
-4951
20
11874
10
-4953
20
11874
0
LWPOLYLINE
100
AcDbEntity
8
FURNITURE
100
AcDbPolyline
90
4
70
1
10
-4951
20
11900
10
-4949
20
11899
10
-4949
20
11902
10
-4951
20
11903
0
LWPOLYLINE
100
AcDbEntity
8
FURNITURE
100
AcDbPolyline
90
4
70
1
10
-4950
20
11928
10
-4948
20
11928
10
-4947
20
11931
10
-4949
20
11931
0
LWPOLYLINE
100
AcDbEntity
8
FURNITURE
100
AcDbPolyline
90
4
70
1
10
-4948
20
11957
10
-4946
20
11957
10
-4946
20
11960
10
-4948
20
11960
0
LWPOLYLINE
100
AcDbEntity
8
FURNITURE
100
AcDbPolyline
90
4
70
1
10
-4946
20
11986
10
-4944
20
11986
10
-4944
20
11989
10
-4946
20
11989
0
LWPOLYLINE
100
AcDbEntity
8
FURNITURE
100
AcDbPolyline
90
4
70
1
10
-4944
20
12015
10
-4942
20
12015
10
-4942
20
12018
10
-4944
20
12018
0
LWPOLYLINE
100
AcDbEntity
8
FURNITURE
100
AcDbPolyline
90
4
70
1
10
-4942
20
12044
10
-4940
20
12044
10
-4940
20
12047
10
-4942
20
12047
0
LWPOLYLINE
100
AcDbEntity
8
FURNITURE
100
AcDbPolyline
90
4
70
1
10
-4940
20
12073
10
-4938
20
12073
10
-4938
20
12076
10
-4940
20
12076
0
LWPOLYLINE
100
AcDbEntity
8
FURNITURE
100
AcDbPolyline
90
4
70
1
10
-4939
20
12102
10
-4937
20
12102
10
-4936
20
12104
10
-4938
20
12105
0
LWPOLYLINE
100
AcDbEntity
8
FURNITURE
100
AcDbPolyline
90
4
70
1
10
-4937
20
12131
10
-4935
20
12130
10
-4935
20
12133
10
-4937
20
12133
0
LWPOLYLINE
100
AcDbEntity
8
FURNITURE
100
AcDbPolyline
90
4
70
1
10
-4958
20
11742
10
-4956
20
11742
10
-4931
20
12146
10
-4933
20
12146
0
LWPOLYLINE
100
AcDbEntity
8
FURNITURE
100
AcDbPolyline
90
4
70
1
10
-4976
20
11743
10
-4967
20
11743
10
-4941
20
12147
10
-4950
20
12147
0
LWPOLYLINE
100
AcDbEntity
8
FURNITURE
100
AcDbPolyline
90
16
70
1
10
-4960
20
11890
10
-4958
20
11884
10
-4952
20
11881
10
-4947
20
11883
10
-4944
20
11889
10
-4942
20
11916
10
-4941
20
11930
10
-4937
20
11997
10
-4937
20
11999
10
-4939
20
12005
10
-4945
20
12007
10
-4950
20
12005
10
-4953
20
12000
10
-4954
20
11992
10
-4957
20
11945
10
-4960
20
11897
0
LWPOLYLINE
100
AcDbEntity
8
FURNITURE
100
AcDbPolyline
90
8
70
1
10
-4952
20
11910
10
-4951
20
11898
10
-4948
20
11892
10
-4944
20
11897
10
-4941
20
11910
10
-4942
20
11923
10
-4946
20
11928
10
-4950
20
11923
0
LWPOLYLINE
100
AcDbEntity
8
FURNITURE
100
AcDbPolyline
90
8
70
1
10
-4948
20
11978
10
-4947
20
11966
10
-4944
20
11960
10
-4939
20
11965
10
-4937
20
11978
10
-4938
20
11990
10
-4941
20
11996
10
-4945
20
11991
0
LWPOLYLINE
100
AcDbEntity
8
FURNITURE
100
AcDbPolyline
90
4
70
1
10
-4950
20
11797
10
-4925
20
11795
10
-4924
20
11810
10
-4949
20
11812
0
LWPOLYLINE
100
AcDbEntity
8
FURNITURE
100
AcDbPolyline
90
9
70
1
10
-5058
20
12139
10
-5057
20
12123
10
-5037
20
11805
10
-5033
20
11743
10
-5033
20
11752
10
-5041
20
11883
10
-5049
20
12008
10
-5057
20
12132
10
-5058
20
12147
0
LWPOLYLINE
100
AcDbEntity
8
FURNITURE
100
AcDbPolyline
90
5
70
1
10
-5064
20
12138
10
-5057
20
12030
10
-5055
20
12007
10
-5063
20
12132
10
-5064
20
12147
0
LWPOLYLINE
100
AcDbEntity
8
FURNITURE
100
AcDbPolyline
90
8
70
1
10
-5047
20
11883
10
-5046
20
11860
10
-5045
20
11840
10
-5044
20
11821
10
-5043
20
11805
10
-5040
20
11758
10
-5039
20
11743
10
-5039
20
11752
0
LWPOLYLINE
100
AcDbEntity
8
FURNITURE
100
AcDbPolyline
90
4
70
1
10
-5062
20
11749
10
-5057
20
11684
10
-5003
20
11688
10
-5007
20
11752
0
LWPOLYLINE
100
AcDbEntity
8
FURNITURE
100
AcDbPolyline
90
4
70
1
10
-5090
20
12203
10
-5086
20
12138
10
-5031
20
12142
10
-5035
20
12206
0
LWPOLYLINE
100
AcDbEntity
8
FURNITURE
100
AcDbPolyline
90
4
70
1
10
-5088
20
12176
10
-5059
20
11712
10
-5004
20
11715
10
-5034
20
12179
0
LWPOLYLINE
100
AcDbEntity
8
FURNITURE
100
AcDbPolyline
90
4
70
1
10
-5073
20
12146
10
-5048
20
11742
10
-5036
20
11743
10
-5061
20
12147
0
LWPOLYLINE
100
AcDbEntity
8
FURNITURE
100
AcDbPolyline
90
4
70
1
10
-5075
20
12130
10
-5073
20
12131
10
-5073
20
12133
10
-5075
20
12133
0
LWPOLYLINE
100
AcDbEntity
8
FURNITURE
100
AcDbPolyline
90
4
70
1
10
-5073
20
12102
10
-5071
20
12102
10
-5071
20
12105
10
-5073
20
12104
0
LWPOLYLINE
100
AcDbEntity
8
FURNITURE
100
AcDbPolyline
90
4
70
1
10
-5072
20
12076
10
-5071
20
12073
10
-5069
20
12073
10
-5070
20
12076
0
LWPOLYLINE
100
AcDbEntity
8
FURNITURE
100
AcDbPolyline
90
4
70
1
10
-5070
20
12044
10
-5068
20
12044
10
-5068
20
12047
10
-5070
20
12047
0
LWPOLYLINE
100
AcDbEntity
8
FURNITURE
100
AcDbPolyline
90
4
70
1
10
-5068
20
12015
10
-5066
20
12015
10
-5066
20
12018
10
-5068
20
12018
0
LWPOLYLINE
100
AcDbEntity
8
FURNITURE
100
AcDbPolyline
90
4
70
1
10
-5066
20
11986
10
-5064
20
11986
10
-5064
20
11989
10
-5066
20
11989
0
LWPOLYLINE
100
AcDbEntity
8
FURNITURE
100
AcDbPolyline
90
4
70
1
10
-5064
20
11957
10
-5062
20
11957
10
-5062
20
11960
10
-5064
20
11960
0
LWPOLYLINE
100
AcDbEntity
8
FURNITURE
100
AcDbPolyline
90
4
70
1
10
-5063
20
11931
10
-5062
20
11928
10
-5060
20
11928
10
-5061
20
11931
0
LWPOLYLINE
100
AcDbEntity
8
FURNITURE
100
AcDbPolyline
90
4
70
1
10
-5061
20
11899
10
-5059
20
11900
10
-5059
20
11903
10
-5061
20
11902
0
LWPOLYLINE
100
AcDbEntity
8
FURNITURE
100
AcDbPolyline
90
4
70
1
10
-5059
20
11871
10
-5057
20
11871
10
-5057
20
11874
10
-5059
20
11874
0
LWPOLYLINE
100
AcDbEntity
8
FURNITURE
100
AcDbPolyline
90
4
70
1
10
-5057
20
11842
10
-5055
20
11842
10
-5055
20
11845
10
-5057
20
11845
0
LWPOLYLINE
100
AcDbEntity
8
FURNITURE
100
AcDbPolyline
90
4
70
1
10
-5055
20
11813
10
-5053
20
11813
10
-5053
20
11816
10
-5055
20
11816
0
LWPOLYLINE
100
AcDbEntity
8
FURNITURE
100
AcDbPolyline
90
4
70
1
10
-5053
20
11784
10
-5051
20
11784
10
-5051
20
11787
10
-5053
20
11787
0
LWPOLYLINE
100
AcDbEntity
8
FURNITURE
100
AcDbPolyline
90
4
70
1
10
-5052
20
11758
10
-5051
20
11755
10
-5049
20
11755
10
-5050
20
11758
0
LWPOLYLINE
100
AcDbEntity
8
FURNITURE
100
AcDbPolyline
90
4
70
1
10
-5079
20
12146
10
-5054
20
11742
10
-5052
20
11742
10
-5077
20
12146
0
LWPOLYLINE
100
AcDbEntity
8
FURNITURE
100
AcDbPolyline
90
4
70
1
10
-5069
20
12147
10
-5043
20
11743
10
-5034
20
11743
10
-5060
20
12147
0
LWPOLYLINE
100
AcDbEntity
8
FURNITURE
100
AcDbPolyline
90
15
70
1
10
-5073
20
11997
10
-5068
20
11916
10
-5066
20
11889
10
-5063
20
11883
10
-5057
20
11881
10
-5052
20
11884
10
-5050
20
11890
10
-5050
20
11897
10
-5052
20
11931
10
-5056
20
11992
10
-5057
20
12000
10
-5060
20
12005
10
-5065
20
12007
10
-5071
20
12005
10
-5073
20
11999
0
LWPOLYLINE
100
AcDbEntity
8
FURNITURE
100
AcDbPolyline
90
8
70
1
10
-5073
20
11978
10
-5070
20
11965
10
-5066
20
11960
10
-5063
20
11966
10
-5062
20
11978
10
-5064
20
11991
10
-5069
20
11996
10
-5072
20
11990
0
LWPOLYLINE
100
AcDbEntity
8
FURNITURE
100
AcDbPolyline
90
8
70
1
10
-5069
20
11910
10
-5066
20
11897
10
-5062
20
11892
10
-5059
20
11898
10
-5058
20
11910
10
-5060
20
11923
10
-5064
20
11928
10
-5068
20
11923
0
LWPOLYLINE
100
AcDbEntity
8
FURNITURE
100
AcDbPolyline
90
4
70
1
10
-5103
20
12090
10
-5102
20
12075
10
-5077
20
12076
10
-5078
20
12091
0
LWPOLYLINE
100
AcDbEntity
8
FURNITURE
100
AcDbPolyline
90
10
70
1
10
-5017
20
11686
10
-5015
20
11678
10
-5009
20
11674
10
-5002
20
11673
10
-4996
20
11677
10
-4993
20
11684
10
-4995
20
11691
10
-5001
20
11696
10
-5008
20
11696
10
-5014
20
11693
0
LWPOLYLINE
100
AcDbEntity
8
FURNITURE
100
AcDbPolyline
90
4
70
1
10
-6022
20
12156
10
-4972
20
12156
10
-4972
20
12191
10
-6022
20
12191
0
LWPOLYLINE
100
AcDbEntity
8
FURNITURE
100
AcDbPolyline
90
4
70
1
10
-6032
20
13239
10
-4962
20
13239
10
-4962
20
13259
10
-6032
20
13259
0
LWPOLYLINE
100
AcDbEntity
8
FURNITURE
100
AcDbPolyline
90
4
70
1
10
-6062
20
12404
10
-6042
20
12404
10
-6042
20
13204
10
-6062
20
13204
0
LWPOLYLINE
100
AcDbEntity
8
FURNITURE
100
AcDbPolyline
90
4
70
1
10
-5151
20
12444
10
-4897
20
12444
10
-4897
20
13164
10
-5151
20
13164
0
LWPOLYLINE
100
AcDbEntity
8
FURNITURE
100
AcDbPolyline
90
4
70
1
10
-4935
20
12444
10
-4908
20
12444
10
-4908
20
13164
10
-4935
20
13164
0
LWPOLYLINE
100
AcDbEntity
8
FURNITURE
100
AcDbPolyline
90
4
70
1
10
-4974
20
13055
10
-4939
20
13055
10
-4939
20
13093
10
-4974
20
13093
0
LWPOLYLINE
100
AcDbEntity
8
FURNITURE
100
AcDbPolyline
90
4
70
1
10
-4974
20
12515
10
-4939
20
12515
10
-4939
20
12553
10
-4974
20
12553
0
LWPOLYLINE
100
AcDbEntity
8
FURNITURE
100
AcDbPolyline
90
4
70
1
10
-4997
20
12514
10
-4957
20
12514
10
-4957
20
13094
10
-4997
20
13094
0
LWPOLYLINE
100
AcDbEntity
8
FURNITURE
100
AcDbPolyline
90
16
70
1
10
-5907
20
12804
10
-5891
20
12723
10
-5845
20
12655
10
-5777
20
12610
10
-5697
20
12594
10
-5617
20
12610
10
-5548
20
12655
10
-5503
20
12723
10
-5487
20
12804
10
-5503
20
12884
10
-5548
20
12952
10
-5617
20
12998
10
-5697
20
13014
10
-5777
20
12998
10
-5845
20
12952
10
-5891
20
12884
0
LWPOLYLINE
100
AcDbEntity
8
FURNITURE
100
AcDbPolyline
90
16
70
1
10
-5817
20
12804
10
-5808
20
12758
10
-5782
20
12719
10
-5743
20
12693
10
-5697
20
12684
10
-5651
20
12693
10
-5612
20
12719
10
-5586
20
12758
10
-5577
20
12804
10
-5586
20
12850
10
-5612
20
12889
10
-5651
20
12915
10
-5697
20
12924
10
-5743
20
12915
10
-5782
20
12889
10
-5808
20
12850
0
LWPOLYLINE
100
AcDbEntity
8
FURNITURE
100
AcDbPolyline
90
10
70
1
10
-5612
20
12804
10
-5605
20
12783
10
-5588
20
12771
10
-5566
20
12771
10
-5549
20
12783
10
-5542
20
12804
10
-5549
20
12824
10
-5566
20
12837
10
-5588
20
12837
10
-5605
20
12824
0
LWPOLYLINE
100
AcDbEntity
8
FURNITURE
100
AcDbPolyline
90
12
70
1
10
-5837
20
12974
10
-5801
20
12909
10
-5702
20
12861
10
-5567
20
12844
10
-5432
20
12861
10
-5333
20
12909
10
-5297
20
12974
10
-5333
20
13039
10
-5432
20
13086
10
-5567
20
13104
10
-5702
20
13086
10
-5801
20
13039
0
LWPOLYLINE
100
AcDbEntity
8
FURNITURE
100
AcDbPolyline
90
12
70
1
10
-5733
20
12950
10
-5725
20
12927
10
-5712
20
12919
10
-5382
20
12914
10
-5368
20
12923
10
-5359
20
12948
10
-5359
20
12979
10
-5368
20
13004
10
-5382
20
13014
10
-5712
20
13009
10
-5725
20
13000
10
-5733
20
12978
0
LWPOLYLINE
100
AcDbEntity
8
FURNITURE
100
AcDbPolyline
90
10
70
1
10
-5452
20
12964
10
-5443
20
12937
10
-5421
20
12921
10
-5393
20
12921
10
-5371
20
12937
10
-5362
20
12964
10
-5371
20
12990
10
-5393
20
13007
10
-5421
20
13007
10
-5443
20
12990
0
LWPOLYLINE
100
AcDbEntity
8
FURNITURE
100
AcDbPolyline
90
12
70
1
10
-5837
20
12634
10
-5801
20
12569
10
-5702
20
12521
10
-5567
20
12504
10
-5432
20
12521
10
-5333
20
12569
10
-5297
20
12634
10
-5333
20
12699
10
-5432
20
12746
10
-5567
20
12764
10
-5702
20
12746
10
-5801
20
12699
0
LWPOLYLINE
100
AcDbEntity
8
FURNITURE
100
AcDbPolyline
90
12
70
1
10
-5733
20
12630
10
-5725
20
12607
10
-5712
20
12599
10
-5382
20
12594
10
-5368
20
12603
10
-5359
20
12628
10
-5359
20
12659
10
-5368
20
12684
10
-5382
20
12694
10
-5712
20
12689
10
-5725
20
12680
10
-5733
20
12658
0
LWPOLYLINE
100
AcDbEntity
8
FURNITURE
100
AcDbPolyline
90
10
70
1
10
-5452
20
12644
10
-5443
20
12617
10
-5421
20
12601
10
-5393
20
12601
10
-5371
20
12617
10
-5362
20
12644
10
-5371
20
12670
10
-5393
20
12687
10
-5421
20
12687
10
-5443
20
12670
0
LWPOLYLINE
100
AcDbEntity
8
FURNITURE
100
AcDbPolyline
90
4
70
1
10
-4897
20
3390
10
-3138
20
3390
10
-3138
20
4022
10
-4897
20
4022
0
LWPOLYLINE
100
AcDbEntity
8
FURNITURE
100
AcDbPolyline
90
4
70
1
10
-4897
20
4035
10
-4261
20
4035
10
-4261
20
4061
10
-4897
20
4061
0
LWPOLYLINE
100
AcDbEntity
8
FURNITURE
100
AcDbPolyline
90
4
70
1
10
-4252
20
4035
10
-3708
20
4035
10
-3708
20
4061
10
-4252
20
4061
0
LWPOLYLINE
100
AcDbEntity
8
FURNITURE
100
AcDbPolyline
90
4
70
1
10
-3798
20
4055
10
-3780
20
4055
10
-3780
20
4082
10
-3798
20
4082
0
LWPOLYLINE
100
AcDbEntity
8
FURNITURE
100
AcDbPolyline
90
4
70
1
10
-3691
20
4035
10
-3147
20
4035
10
-3147
20
4061
10
-3691
20
4061
0
LWPOLYLINE
100
AcDbEntity
8
FURNITURE
100
AcDbPolyline
90
4
70
1
10
-3237
20
4055
10
-3219
20
4055
10
-3219
20
4082
10
-3237
20
4082
0
LWPOLYLINE
100
AcDbEntity
8
FURNITURE
100
AcDbPolyline
90
4
70
1
10
-3155
20
2737
10
-3120
20
2737
10
-3120
20
3349
10
-3155
20
3349
0
LWPOLYLINE
100
AcDbEntity
8
FURNITURE
100
AcDbPolyline
90
4
70
1
10
-3153
20
2737
10
-3123
20
2737
10
-3123
20
3349
10
-3153
20
3349
0
LWPOLYLINE
100
AcDbEntity
8
FURNITURE
100
AcDbPolyline
90
4
70
1
10
-3160
20
3325
10
-3115
20
3325
10
-3115
20
3372
10
-3160
20
3372
0
LWPOLYLINE
100
AcDbEntity
8
FURNITURE
100
AcDbPolyline
90
4
70
1
10
-3160
20
2714
10
-3115
20
2714
10
-3115
20
2761
10
-3160
20
2761
0
LWPOLYLINE
100
AcDbEntity
8
FURNITURE
100
AcDbPolyline
90
4
70
1
10
-3145
20
3219
10
-3131
20
3219
10
-3131
20
3234
10
-3145
20
3234
0
LWPOLYLINE
100
AcDbEntity
8
FURNITURE
100
AcDbPolyline
90
4
70
1
10
-3145
20
3097
10
-3131
20
3097
10
-3131
20
3111
10
-3145
20
3111
0
LWPOLYLINE
100
AcDbEntity
8
FURNITURE
100
AcDbPolyline
90
4
70
1
10
-3145
20
2975
10
-3131
20
2975
10
-3131
20
2989
10
-3145
20
2989
0
LWPOLYLINE
100
AcDbEntity
8
FURNITURE
100
AcDbPolyline
90
4
70
1
10
-3145
20
2852
10
-3131
20
2852
10
-3131
20
2867
10
-3145
20
2867
0
LWPOLYLINE
100
AcDbEntity
8
FURNITURE
100
AcDbPolyline
90
4
70
1
10
-3138
20
2719
10
-960
20
2719
10
-960
20
2756
10
-3138
20
2756
0
LWPOLYLINE
100
AcDbEntity
8
FURNITURE
100
AcDbPolyline
90
4
70
1
10
-3138
20
2722
10
-960
20
2722
10
-960
20
2753
10
-3138
20
2753
0
LWPOLYLINE
100
AcDbEntity
8
FURNITURE
100
AcDbPolyline
90
4
70
1
10
-2434
20
2714
10
-2390
20
2714
10
-2390
20
2761
10
-2434
20
2761
0
LWPOLYLINE
100
AcDbEntity
8
FURNITURE
100
AcDbPolyline
90
4
70
1
10
-1708
20
2714
10
-1664
20
2714
10
-1664
20
2761
10
-1708
20
2761
0
LWPOLYLINE
100
AcDbEntity
8
FURNITURE
100
AcDbPolyline
90
4
70
1
10
-983
20
2714
10
-938
20
2714
10
-938
20
2761
10
-983
20
2761
0
LWPOLYLINE
100
AcDbEntity
8
FURNITURE
100
AcDbPolyline
90
4
70
1
10
-3030
20
2730
10
-3016
20
2730
10
-3016
20
2745
10
-3030
20
2745
0
LWPOLYLINE
100
AcDbEntity
8
FURNITURE
100
AcDbPolyline
90
4
70
1
10
-2915
20
2730
10
-2902
20
2730
10
-2902
20
2745
10
-2915
20
2745
0
LWPOLYLINE
100
AcDbEntity
8
FURNITURE
100
AcDbPolyline
90
4
70
1
10
-2801
20
2730
10
-2787
20
2730
10
-2787
20
2745
10
-2801
20
2745
0
LWPOLYLINE
100
AcDbEntity
8
FURNITURE
100
AcDbPolyline
90
4
70
1
10
-2686
20
2730
10
-2672
20
2730
10
-2672
20
2745
10
-2686
20
2745
0
LWPOLYLINE
100
AcDbEntity
8
FURNITURE
100
AcDbPolyline
90
4
70
1
10
-2572
20
2730
10
-2558
20
2730
10
-2558
20
2745
10
-2572
20
2745
0
LWPOLYLINE
100
AcDbEntity
8
FURNITURE
100
AcDbPolyline
90
4
70
1
10
-2457
20
2730
10
-2443
20
2730
10
-2443
20
2745
10
-2457
20
2745
0
LWPOLYLINE
100
AcDbEntity
8
FURNITURE
100
AcDbPolyline
90
4
70
1
10
-2342
20
2730
10
-2329
20
2730
10
-2329
20
2745
10
-2342
20
2745
0
LWPOLYLINE
100
AcDbEntity
8
FURNITURE
100
AcDbPolyline
90
4
70
1
10
-2228
20
2730
10
-2214
20
2730
10
-2214
20
2745
10
-2228
20
2745
0
LWPOLYLINE
100
AcDbEntity
8
FURNITURE
100
AcDbPolyline
90
4
70
1
10
-2113
20
2730
10
-2099
20
2730
10
-2099
20
2745
10
-2113
20
2745
0
LWPOLYLINE
100
AcDbEntity
8
FURNITURE
100
AcDbPolyline
90
4
70
1
10
-1999
20
2730
10
-1985
20
2730
10
-1985
20
2745
10
-1999
20
2745
0
LWPOLYLINE
100
AcDbEntity
8
FURNITURE
100
AcDbPolyline
90
4
70
1
10
-1884
20
2730
10
-1870
20
2730
10
-1870
20
2745
10
-1884
20
2745
0
LWPOLYLINE
100
AcDbEntity
8
FURNITURE
100
AcDbPolyline
90
4
70
1
10
-1769
20
2730
10
-1755
20
2730
10
-1755
20
2745
10
-1769
20
2745
0
LWPOLYLINE
100
AcDbEntity
8
FURNITURE
100
AcDbPolyline
90
4
70
1
10
-1655
20
2730
10
-1641
20
2730
10
-1641
20
2745
10
-1655
20
2745
0
LWPOLYLINE
100
AcDbEntity
8
FURNITURE
100
AcDbPolyline
90
4
70
1
10
-1540
20
2730
10
-1526
20
2730
10
-1526
20
2745
10
-1540
20
2745
0
LWPOLYLINE
100
AcDbEntity
8
FURNITURE
100
AcDbPolyline
90
4
70
1
10
-1426
20
2730
10
-1412
20
2730
10
-1412
20
2745
10
-1426
20
2745
0
LWPOLYLINE
100
AcDbEntity
8
FURNITURE
100
AcDbPolyline
90
4
70
1
10
-1311
20
2730
10
-1297
20
2730
10
-1297
20
2745
10
-1311
20
2745
0
LWPOLYLINE
100
AcDbEntity
8
FURNITURE
100
AcDbPolyline
90
4
70
1
10
-1196
20
2730
10
-1182
20
2730
10
-1182
20
2745
10
-1196
20
2745
0
LWPOLYLINE
100
AcDbEntity
8
FURNITURE
100
AcDbPolyline
90
4
70
1
10
-1082
20
2730
10
-1068
20
2730
10
-1068
20
2745
10
-1082
20
2745
0
LWPOLYLINE
100
AcDbEntity
8
FURNITURE
100
AcDbPolyline
90
4
70
1
10
-978
20
2737
10
-943
20
2737
10
-943
20
3981
10
-978
20
3981
0
LWPOLYLINE
100
AcDbEntity
8
FURNITURE
100
AcDbPolyline
90
4
70
1
10
-975
20
2737
10
-945
20
2737
10
-945
20
3981
10
-975
20
3981
0
LWPOLYLINE
100
AcDbEntity
8
FURNITURE
100
AcDbPolyline
90
4
70
1
10
-983
20
3336
10
-938
20
3336
10
-938
20
3382
10
-983
20
3382
0
LWPOLYLINE
100
AcDbEntity
8
FURNITURE
100
AcDbPolyline
90
4
70
1
10
-983
20
3957
10
-938
20
3957
10
-938
20
4004
10
-983
20
4004
0
LWPOLYLINE
100
AcDbEntity
8
FURNITURE
100
AcDbPolyline
90
4
70
1
10
-967
20
2843
10
-953
20
2843
10
-953
20
2858
10
-967
20
2858
0
LWPOLYLINE
100
AcDbEntity
8
FURNITURE
100
AcDbPolyline
90
4
70
1
10
-967
20
2956
10
-953
20
2956
10
-953
20
2971
10
-967
20
2971
0
LWPOLYLINE
100
AcDbEntity
8
FURNITURE
100
AcDbPolyline
90
4
70
1
10
-967
20
3069
10
-953
20
3069
10
-953
20
3084
10
-967
20
3084
0
LWPOLYLINE
100
AcDbEntity
8
FURNITURE
100
AcDbPolyline
90
4
70
1
10
-967
20
3182
10
-953
20
3182
10
-953
20
3197
10
-967
20
3197
0
LWPOLYLINE
100
AcDbEntity
8
FURNITURE
100
AcDbPolyline
90
4
70
1
10
-967
20
3295
10
-953
20
3295
10
-953
20
3310
10
-967
20
3310
0
LWPOLYLINE
100
AcDbEntity
8
FURNITURE
100
AcDbPolyline
90
4
70
1
10
-967
20
3408
10
-953
20
3408
10
-953
20
3423
10
-967
20
3423
0
LWPOLYLINE
100
AcDbEntity
8
FURNITURE
100
AcDbPolyline
90
4
70
1
10
-967
20
3521
10
-953
20
3521
10
-953
20
3536
10
-967
20
3536
0
LWPOLYLINE
100
AcDbEntity
8
FURNITURE
100
AcDbPolyline
90
4
70
1
10
-967
20
3634
10
-953
20
3634
10
-953
20
3649
10
-967
20
3649
0
LWPOLYLINE
100
AcDbEntity
8
FURNITURE
100
AcDbPolyline
90
4
70
1
10
-967
20
3747
10
-953
20
3747
10
-953
20
3762
10
-967
20
3762
0
LWPOLYLINE
100
AcDbEntity
8
FURNITURE
100
AcDbPolyline
90
4
70
1
10
-967
20
3860
10
-953
20
3860
10
-953
20
3875
10
-967
20
3875
0
LWPOLYLINE
100
AcDbEntity
8
FURNITURE
100
AcDbPolyline
90
4
70
1
10
-2777
20
4963
10
-960
20
4963
10
-960
20
6858
10
-2777
20
6858
0
LWPOLYLINE
100
AcDbEntity
8
FURNITURE
100
AcDbPolyline
90
4
70
1
10
-2760
20
4981
10
-978
20
4981
10
-978
20
6840
10
-2760
20
6840
0
LWPOLYLINE
100
AcDbEntity
8
FURNITURE
100
AcDbPolyline
90
4
70
1
10
-2747
20
5015
10
-1328
20
5015
10
-1328
20
6806
10
-2747
20
6806
0
LWPOLYLINE
100
AcDbEntity
8
FURNITURE
100
AcDbPolyline
90
4
70
1
10
-1045
20
4963
10
-961
20
4963
10
-961
20
6858
10
-1045
20
6858
0
LWPOLYLINE
100
AcDbEntity
8
FURNITURE
100
AcDbPolyline
90
4
70
1
10
-1407
20
6030
10
-1030
20
6030
10
-1030
20
6662
10
-1407
20
6662
0
LWPOLYLINE
100
AcDbEntity
8
FURNITURE
100
AcDbPolyline
90
4
70
1
10
-1407
20
5159
10
-1030
20
5159
10
-1030
20
5791
10
-1407
20
5791
0
LWPOLYLINE
100
AcDbEntity
8
FURNITURE
100
AcDbPolyline
90
4
70
1
10
-4860
20
6152
10
-4844
20
6152
10
-4844
20
6732
10
-4860
20
6732
0
LWPOLYLINE
100
AcDbEntity
8
FURNITURE
100
AcDbPolyline
90
4
70
1
10
-4852
20
6162
10
-4366
20
6162
10
-4366
20
6722
10
-4852
20
6722
0
LWPOLYLINE
100
AcDbEntity
8
FURNITURE
100
AcDbPolyline
90
4
70
1
10
-4808
20
6173
10
-4390
20
6173
10
-4390
20
6711
10
-4808
20
6711
0
LWPOLYLINE
100
AcDbEntity
8
FURNITURE
100
AcDbPolyline
90
4
70
1
10
-4312
20
6160
10
-4286
20
6160
10
-4286
20
6724
10
-4312
20
6724
0
LWPOLYLINE
100
AcDbEntity
8
FURNITURE
100
AcDbPolyline
90
4
70
1
10
-4282
20
6370
10
-4272
20
6370
10
-4272
20
6515
10
-4282
20
6515
0
LWPOLYLINE
100
AcDbEntity
8
FURNITURE
100
AcDbPolyline
90
4
70
1
10
-4267
20
6721
10
-3707
20
6685
10
-3705
20
6710
10
-4265
20
6747
0
LWPOLYLINE
100
AcDbEntity
8
FURNITURE
100
AcDbPolyline
90
11
70
1
10
-4197
20
6691
10
-4183
20
6690
10
-4123
20
6686
10
-3770
20
6663
10
-3752
20
6662
10
-3746
20
6662
10
-3759
20
6663
10
-3819
20
6667
10
-4142
20
6688
10
-4173
20
6690
10
-4191
20
6691
0
LWPOLYLINE
100
AcDbEntity
8
FURNITURE
100
AcDbPolyline
90
7
70
1
10
-4180
20
6684
10
-4157
20
6682
10
-4112
20
6679
10
-3776
20
6657
10
-3763
20
6657
10
-4067
20
6677
10
-4174
20
6684
0
LWPOLYLINE
100
AcDbEntity
8
FURNITURE
100
AcDbPolyline
90
4
70
1
10
-3771
20
6733
10
-3746
20
6731
10
-3745
20
6752
10
-3770
20
6754
0
LWPOLYLINE
100
AcDbEntity
8
FURNITURE
100
AcDbPolyline
90
4
70
1
10
-4897
20
7779
10
-4003
20
7779
10
-4003
20
7903
10
-4897
20
7903
0
LWPOLYLINE
100
AcDbEntity
8
FURNITURE
100
AcDbPolyline
90
4
70
1
10
-4897
20
7779
10
-4847
20
7779
10
-4847
20
7903
10
-4897
20
7903
0
LWPOLYLINE
100
AcDbEntity
8
FURNITURE
100
AcDbPolyline
90
4
70
1
10
-4053
20
7779
10
-4003
20
7779
10
-4003
20
7903
10
-4053
20
7903
0
LWPOLYLINE
100
AcDbEntity
8
FURNITURE
100
AcDbPolyline
90
4
70
1
10
-4871
20
7833
10
-4573
20
7048
10
-4536
20
7063
10
-4834
20
7848
0
LWPOLYLINE
100
AcDbEntity
8
FURNITURE
100
AcDbPolyline
90
4
70
1
10
-4687
20
7193
10
-4659
20
7121
10
-4604
20
7144
10
-4631
20
7216
0
LWPOLYLINE
100
AcDbEntity
8
FURNITURE
100
AcDbPolyline
90
4
70
1
10
-2066
20
7779
10
-1370
20
7779
10
-1370
20
7903
10
-2066
20
7903
0
LWPOLYLINE
100
AcDbEntity
8
FURNITURE
100
AcDbPolyline
90
4
70
1
10
-2066
20
7779
10
-2016
20
7779
10
-2016
20
7903
10
-2066
20
7903
0
LWPOLYLINE
100
AcDbEntity
8
FURNITURE
100
AcDbPolyline
90
4
70
1
10
-1420
20
7779
10
-1370
20
7779
10
-1370
20
7903
10
-1420
20
7903
0
LWPOLYLINE
100
AcDbEntity
8
FURNITURE
100
AcDbPolyline
90
4
70
1
10
-2040
20
7848
10
-2003
20
7833
10
-1778
20
8425
10
-1815
20
8441
0
LWPOLYLINE
100
AcDbEntity
8
FURNITURE
100
AcDbPolyline
90
4
70
1
10
-1845
20
8261
10
-1790
20
8238
10
-1763
20
8311
10
-1818
20
8333
0
LWPOLYLINE
100
AcDbEntity
8
FURNITURE
100
AcDbPolyline
90
4
70
1
10
-4897
20
3981
10
-4321
20
3981
10
-4321
20
6753
10
-4897
20
6753
0
LWPOLYLINE
100
AcDbEntity
8
FURNITURE
100
AcDbPolyline
90
4
70
1
10
-4897
20
6707
10
-4321
20
6707
10
-4321
20
6753
10
-4897
20
6753
0
LWPOLYLINE
100
AcDbEntity
8
FURNITURE
100
AcDbPolyline
90
4
70
1
10
-4897
20
3980
10
-4321
20
3980
10
-4321
20
4027
10
-4897
20
4027
0
LWPOLYLINE
100
AcDbEntity
8
FURNITURE
100
AcDbPolyline
90
4
70
1
10
-4875
20
3981
10
-4850
20
3981
10
-4850
20
6753
10
-4875
20
6753
0
LWPOLYLINE
100
AcDbEntity
8
FURNITURE
100
AcDbPolyline
90
4
70
1
10
-4897
20
6118
10
-4321
20
6118
10
-4321
20
6144
10
-4897
20
6144
0
LWPOLYLINE
100
AcDbEntity
8
FURNITURE
100
AcDbPolyline
90
4
70
1
10
-4328
20
5407
10
-4301
20
5407
10
-4301
20
6139
10
-4328
20
6139
0
LWPOLYLINE
100
AcDbEntity
8
FURNITURE
100
AcDbPolyline
90
4
70
1
10
-4314
20
5400
10
-4280
20
5400
10
-4280
20
5413
10
-4314
20
5413
0
LWPOLYLINE
100
AcDbEntity
8
FURNITURE
100
AcDbPolyline
90
4
70
1
10
-4293
20
5542
10
-4268
20
5542
10
-4268
20
5568
10
-4293
20
5568
0
LWPOLYLINE
100
AcDbEntity
8
FURNITURE
100
AcDbPolyline
90
4
70
1
10
-4306
20
4690
10
-4280
20
4690
10
-4280
20
5422
10
-4306
20
5422
0
LWPOLYLINE
100
AcDbEntity
8
FURNITURE
100
AcDbPolyline
90
4
70
1
10
-4293
20
5416
10
-4258
20
5416
10
-4258
20
5428
10
-4293
20
5428
0
LWPOLYLINE
100
AcDbEntity
8
FURNITURE
100
AcDbPolyline
90
4
70
1
10
-4271
20
5261
10
-4246
20
5261
10
-4246
20
5286
10
-4271
20
5286
0
LWPOLYLINE
100
AcDbEntity
8
FURNITURE
100
AcDbPolyline
90
4
70
1
10
-4328
20
3973
10
-4301
20
3973
10
-4301
20
4705
10
-4328
20
4705
0
LWPOLYLINE
100
AcDbEntity
8
FURNITURE
100
AcDbPolyline
90
4
70
1
10
-4314
20
3967
10
-4280
20
3967
10
-4280
20
3979
10
-4314
20
3979
0
LWPOLYLINE
100
AcDbEntity
8
FURNITURE
100
AcDbPolyline
90
4
70
1
10
-4293
20
4109
10
-4268
20
4109
10
-4268
20
4134
10
-4293
20
4134
0
LWPOLYLINE
100
AcDbEntity
8
FURNITURE
100
AcDbPolyline
90
4
70
1
10
-8160
20
1368
10
-8125
20
1368
10
-8125
20
3981
10
-8160
20
3981
0
LWPOLYLINE
100
AcDbEntity
8
FURNITURE
100
AcDbPolyline
90
4
70
1
10
-8165
20
3958
10
-8120
20
3958
10
-8120
20
4003
10
-8165
20
4003
0
LWPOLYLINE
100
AcDbEntity
8
FURNITURE
100
AcDbPolyline
90
4
70
1
10
-8165
20
3305
10
-8120
20
3305
10
-8120
20
3350
10
-8165
20
3350
0
LWPOLYLINE
100
AcDbEntity
8
FURNITURE
100
AcDbPolyline
90
4
70
1
10
-8165
20
2652
10
-8120
20
2652
10
-8120
20
2697
10
-8165
20
2697
0
LWPOLYLINE
100
AcDbEntity
8
FURNITURE
100
AcDbPolyline
90
4
70
1
10
-8165
20
1998
10
-8120
20
1998
10
-8120
20
2044
10
-8165
20
2044
0
LWPOLYLINE
100
AcDbEntity
8
FURNITURE
100
AcDbPolyline
90
4
70
1
10
-8165
20
1345
10
-8120
20
1345
10
-8120
20
1390
10
-8165
20
1390
0
LWPOLYLINE
100
AcDbEntity
8
FURNITURE
100
AcDbPolyline
90
4
70
1
10
-8149
20
3855
10
-8135
20
3855
10
-8135
20
3869
10
-8149
20
3869
0
LWPOLYLINE
100
AcDbEntity
8
FURNITURE
100
AcDbPolyline
90
4
70
1
10
-8149
20
3736
10
-8135
20
3736
10
-8135
20
3750
10
-8149
20
3750
0
LWPOLYLINE
100
AcDbEntity
8
FURNITURE
100
AcDbPolyline
90
4
70
1
10
-8149
20
3617
10
-8135
20
3617
10
-8135
20
3631
10
-8149
20
3631
0
LWPOLYLINE
100
AcDbEntity
8
FURNITURE
100
AcDbPolyline
90
4
70
1
10
-8149
20
3499
10
-8135
20
3499
10
-8135
20
3513
10
-8149
20
3513
0
LWPOLYLINE
100
AcDbEntity
8
FURNITURE
100
AcDbPolyline
90
4
70
1
10
-8149
20
3380
10
-8135
20
3380
10
-8135
20
3394
10
-8149
20
3394
0
LWPOLYLINE
100
AcDbEntity
8
FURNITURE
100
AcDbPolyline
90
4
70
1
10
-8149
20
3142
10
-8135
20
3142
10
-8135
20
3156
10
-8149
20
3156
0
LWPOLYLINE
100
AcDbEntity
8
FURNITURE
100
AcDbPolyline
90
4
70
1
10
-8149
20
3023
10
-8135
20
3023
10
-8135
20
3038
10
-8149
20
3038
0
LWPOLYLINE
100
AcDbEntity
8
FURNITURE
100
AcDbPolyline
90
4
70
1
10
-8149
20
2905
10
-8135
20
2905
10
-8135
20
2919
10
-8149
20
2919
0
LWPOLYLINE
100
AcDbEntity
8
FURNITURE
100
AcDbPolyline
90
4
70
1
10
-8149
20
2786
10
-8135
20
2786
10
-8135
20
2800
10
-8149
20
2800
0
LWPOLYLINE
100
AcDbEntity
8
FURNITURE
100
AcDbPolyline
90
4
70
1
10
-8149
20
2667
10
-8135
20
2667
10
-8135
20
2681
10
-8149
20
2681
0
LWPOLYLINE
100
AcDbEntity
8
FURNITURE
100
AcDbPolyline
90
4
70
1
10
-8149
20
2430
10
-8135
20
2430
10
-8135
20
2444
10
-8149
20
2444
0
LWPOLYLINE
100
AcDbEntity
8
FURNITURE
100
AcDbPolyline
90
4
70
1
10
-8149
20
2311
10
-8135
20
2311
10
-8135
20
2325
10
-8149
20
2325
0
LWPOLYLINE
100
AcDbEntity
8
FURNITURE
100
AcDbPolyline
90
4
70
1
10
-8149
20
2192
10
-8135
20
2192
10
-8135
20
2206
10
-8149
20
2206
0
LWPOLYLINE
100
AcDbEntity
8
FURNITURE
100
AcDbPolyline
90
4
70
1
10
-8149
20
2073
10
-8135
20
2073
10
-8135
20
2087
10
-8149
20
2087
0
LWPOLYLINE
100
AcDbEntity
8
FURNITURE
100
AcDbPolyline
90
4
70
1
10
-8149
20
1955
10
-8135
20
1955
10
-8135
20
1969
10
-8149
20
1969
0
LWPOLYLINE
100
AcDbEntity
8
FURNITURE
100
AcDbPolyline
90
4
70
1
10
-8149
20
1717
10
-8135
20
1717
10
-8135
20
1731
10
-8149
20
1731
0
LWPOLYLINE
100
AcDbEntity
8
FURNITURE
100
AcDbPolyline
90
4
70
1
10
-8149
20
1598
10
-8135
20
1598
10
-8135
20
1612
10
-8149
20
1612
0
LWPOLYLINE
100
AcDbEntity
8
FURNITURE
100
AcDbPolyline
90
4
70
1
10
-8149
20
1479
10
-8135
20
1479
10
-8135
20
1494
10
-8149
20
1494
0
LWPOLYLINE
100
AcDbEntity
8
FURNITURE
100
AcDbPolyline
90
4
70
1
10
-8142
20
1350
10
-4897
20
1350
10
-4897
20
1385
10
-8142
20
1385
0
LWPOLYLINE
100
AcDbEntity
8
FURNITURE
100
AcDbPolyline
90
4
70
1
10
-7516
20
1345
10
-7471
20
1345
10
-7471
20
1390
10
-7516
20
1390
0
LWPOLYLINE
100
AcDbEntity
8
FURNITURE
100
AcDbPolyline
90
4
70
1
10
-6867
20
1345
10
-6822
20
1345
10
-6822
20
1390
10
-6867
20
1390
0
LWPOLYLINE
100
AcDbEntity
8
FURNITURE
100
AcDbPolyline
90
4
70
1
10
-6218
20
1345
10
-6173
20
1345
10
-6173
20
1390
10
-6218
20
1390
0
LWPOLYLINE
100
AcDbEntity
8
FURNITURE
100
AcDbPolyline
90
4
70
1
10
-5569
20
1345
10
-5524
20
1345
10
-5524
20
1390
10
-5569
20
1390
0
LWPOLYLINE
100
AcDbEntity
8
FURNITURE
100
AcDbPolyline
90
4
70
1
10
-4920
20
1345
10
-4874
20
1345
10
-4874
20
1390
10
-4920
20
1390
0
LWPOLYLINE
100
AcDbEntity
8
FURNITURE
100
AcDbPolyline
90
4
70
1
10
-8029
20
1361
10
-8015
20
1361
10
-8015
20
1375
10
-8029
20
1375
0
LWPOLYLINE
100
AcDbEntity
8
FURNITURE
100
AcDbPolyline
90
4
70
1
10
-7909
20
1361
10
-7895
20
1361
10
-7895
20
1375
10
-7909
20
1375
0
LWPOLYLINE
100
AcDbEntity
8
FURNITURE
100
AcDbPolyline
90
4
70
1
10
-7789
20
1361
10
-7775
20
1361
10
-7775
20
1375
10
-7789
20
1375
0
LWPOLYLINE
100
AcDbEntity
8
FURNITURE
100
AcDbPolyline
90
4
70
1
10
-7669
20
1361
10
-7655
20
1361
10
-7655
20
1375
10
-7669
20
1375
0
LWPOLYLINE
100
AcDbEntity
8
FURNITURE
100
AcDbPolyline
90
4
70
1
10
-7428
20
1361
10
-7414
20
1361
10
-7414
20
1375
10
-7428
20
1375
0
LWPOLYLINE
100
AcDbEntity
8
FURNITURE
100
AcDbPolyline
90
4
70
1
10
-7308
20
1361
10
-7294
20
1361
10
-7294
20
1375
10
-7308
20
1375
0
LWPOLYLINE
100
AcDbEntity
8
FURNITURE
100
AcDbPolyline
90
4
70
1
10
-7188
20
1361
10
-7174
20
1361
10
-7174
20
1375
10
-7188
20
1375
0
LWPOLYLINE
100
AcDbEntity
8
FURNITURE
100
AcDbPolyline
90
4
70
1
10
-7068
20
1361
10
-7054
20
1361
10
-7054
20
1375
10
-7068
20
1375
0
LWPOLYLINE
100
AcDbEntity
8
FURNITURE
100
AcDbPolyline
90
4
70
1
10
-6827
20
1361
10
-6813
20
1361
10
-6813
20
1375
10
-6827
20
1375
0
LWPOLYLINE
100
AcDbEntity
8
FURNITURE
100
AcDbPolyline
90
4
70
1
10
-6707
20
1361
10
-6693
20
1361
10
-6693
20
1375
10
-6707
20
1375
0
LWPOLYLINE
100
AcDbEntity
8
FURNITURE
100
AcDbPolyline
90
4
70
1
10
-6587
20
1361
10
-6573
20
1361
10
-6573
20
1375
10
-6587
20
1375
0
LWPOLYLINE
100
AcDbEntity
8
FURNITURE
100
AcDbPolyline
90
4
70
1
10
-6467
20
1361
10
-6453
20
1361
10
-6453
20
1375
10
-6467
20
1375
0
LWPOLYLINE
100
AcDbEntity
8
FURNITURE
100
AcDbPolyline
90
4
70
1
10
-6226
20
1361
10
-6212
20
1361
10
-6212
20
1375
10
-6226
20
1375
0
LWPOLYLINE
100
AcDbEntity
8
FURNITURE
100
AcDbPolyline
90
4
70
1
10
-6106
20
1361
10
-6092
20
1361
10
-6092
20
1375
10
-6106
20
1375
0
LWPOLYLINE
100
AcDbEntity
8
FURNITURE
100
AcDbPolyline
90
4
70
1
10
-5986
20
1361
10
-5972
20
1361
10
-5972
20
1375
10
-5986
20
1375
0
LWPOLYLINE
100
AcDbEntity
8
FURNITURE
100
AcDbPolyline
90
4
70
1
10
-5866
20
1361
10
-5852
20
1361
10
-5852
20
1375
10
-5866
20
1375
0
LWPOLYLINE
100
AcDbEntity
8
FURNITURE
100
AcDbPolyline
90
4
70
1
10
-5625
20
1361
10
-5611
20
1361
10
-5611
20
1375
10
-5625
20
1375
0
LWPOLYLINE
100
AcDbEntity
8
FURNITURE
100
AcDbPolyline
90
4
70
1
10
-5505
20
1361
10
-5491
20
1361
10
-5491
20
1375
10
-5505
20
1375
0
LWPOLYLINE
100
AcDbEntity
8
FURNITURE
100
AcDbPolyline
90
4
70
1
10
-5385
20
1361
10
-5371
20
1361
10
-5371
20
1375
10
-5385
20
1375
0
LWPOLYLINE
100
AcDbEntity
8
FURNITURE
100
AcDbPolyline
90
4
70
1
10
-5265
20
1361
10
-5251
20
1361
10
-5251
20
1375
10
-5265
20
1375
0
LWPOLYLINE
100
AcDbEntity
8
FURNITURE
100
AcDbPolyline
90
4
70
1
10
-5024
20
1361
10
-5010
20
1361
10
-5010
20
1375
10
-5024
20
1375
0
LWPOLYLINE
100
AcDbEntity
8
FURNITURE
100
AcDbPolyline
90
4
70
1
10
-4915
20
1368
10
-4879
20
1368
10
-4879
20
3981
10
-4915
20
3981
0
LWPOLYLINE
100
AcDbEntity
8
FURNITURE
100
AcDbPolyline
90
4
70
1
10
-4920
20
1998
10
-4874
20
1998
10
-4874
20
2044
10
-4920
20
2044
0
LWPOLYLINE
100
AcDbEntity
8
FURNITURE
100
AcDbPolyline
90
4
70
1
10
-4920
20
2652
10
-4874
20
2652
10
-4874
20
2697
10
-4920
20
2697
0
LWPOLYLINE
100
AcDbEntity
8
FURNITURE
100
AcDbPolyline
90
4
70
1
10
-4920
20
3305
10
-4874
20
3305
10
-4874
20
3350
10
-4920
20
3350
0
LWPOLYLINE
100
AcDbEntity
8
FURNITURE
100
AcDbPolyline
90
4
70
1
10
-4920
20
3958
10
-4874
20
3958
10
-4874
20
4003
10
-4920
20
4003
0
LWPOLYLINE
100
AcDbEntity
8
FURNITURE
100
AcDbPolyline
90
4
70
1
10
-4904
20
1479
10
-4890
20
1479
10
-4890
20
1494
10
-4904
20
1494
0
LWPOLYLINE
100
AcDbEntity
8
FURNITURE
100
AcDbPolyline
90
4
70
1
10
-4904
20
1598
10
-4890
20
1598
10
-4890
20
1612
10
-4904
20
1612
0
LWPOLYLINE
100
AcDbEntity
8
FURNITURE
100
AcDbPolyline
90
4
70
1
10
-4904
20
1717
10
-4890
20
1717
10
-4890
20
1731
10
-4904
20
1731
0
LWPOLYLINE
100
AcDbEntity
8
FURNITURE
100
AcDbPolyline
90
4
70
1
10
-4904
20
1836
10
-4890
20
1836
10
-4890
20
1850
10
-4904
20
1850
0
LWPOLYLINE
100
AcDbEntity
8
FURNITURE
100
AcDbPolyline
90
4
70
1
10
-4904
20
1955
10
-4890
20
1955
10
-4890
20
1969
10
-4904
20
1969
0
LWPOLYLINE
100
AcDbEntity
8
FURNITURE
100
AcDbPolyline
90
4
70
1
10
-4904
20
2192
10
-4890
20
2192
10
-4890
20
2206
10
-4904
20
2206
0
LWPOLYLINE
100
AcDbEntity
8
FURNITURE
100
AcDbPolyline
90
4
70
1
10
-4904
20
2311
10
-4890
20
2311
10
-4890
20
2325
10
-4904
20
2325
0
LWPOLYLINE
100
AcDbEntity
8
FURNITURE
100
AcDbPolyline
90
4
70
1
10
-4904
20
2430
10
-4890
20
2430
10
-4890
20
2444
10
-4904
20
2444
0
LWPOLYLINE
100
AcDbEntity
8
FURNITURE
100
AcDbPolyline
90
4
70
1
10
-4904
20
2548
10
-4890
20
2548
10
-4890
20
2562
10
-4904
20
2562
0
LWPOLYLINE
100
AcDbEntity
8
FURNITURE
100
AcDbPolyline
90
4
70
1
10
-4904
20
2667
10
-4890
20
2667
10
-4890
20
2681
10
-4904
20
2681
0
LWPOLYLINE
100
AcDbEntity
8
FURNITURE
100
AcDbPolyline
90
4
70
1
10
-4904
20
2905
10
-4890
20
2905
10
-4890
20
2919
10
-4904
20
2919
0
LWPOLYLINE
100
AcDbEntity
8
FURNITURE
100
AcDbPolyline
90
4
70
1
10
-4904
20
3023
10
-4890
20
3023
10
-4890
20
3038
10
-4904
20
3038
0
LWPOLYLINE
100
AcDbEntity
8
FURNITURE
100
AcDbPolyline
90
4
70
1
10
-4904
20
3142
10
-4890
20
3142
10
-4890
20
3156
10
-4904
20
3156
0
LWPOLYLINE
100
AcDbEntity
8
FURNITURE
100
AcDbPolyline
90
4
70
1
10
-4904
20
3261
10
-4890
20
3261
10
-4890
20
3275
10
-4904
20
3275
0
LWPOLYLINE
100
AcDbEntity
8
FURNITURE
100
AcDbPolyline
90
4
70
1
10
-4904
20
3380
10
-4890
20
3380
10
-4890
20
3394
10
-4904
20
3394
0
LWPOLYLINE
100
AcDbEntity
8
FURNITURE
100
AcDbPolyline
90
4
70
1
10
-4904
20
3617
10
-4890
20
3617
10
-4890
20
3631
10
-4904
20
3631
0
LWPOLYLINE
100
AcDbEntity
8
FURNITURE
100
AcDbPolyline
90
4
70
1
10
-4904
20
3736
10
-4890
20
3736
10
-4890
20
3750
10
-4904
20
3750
0
LWPOLYLINE
100
AcDbEntity
8
FURNITURE
100
AcDbPolyline
90
4
70
1
10
-4904
20
3855
10
-4890
20
3855
10
-4890
20
3869
10
-4904
20
3869
0
LWPOLYLINE
100
AcDbEntity
8
FURNITURE
100
AcDbPolyline
90
4
70
1
10
-5854
20
5853
10
-4952
20
5853
10
-4952
20
7868
10
-5854
20
7868
0
LWPOLYLINE
100
AcDbEntity
8
FURNITURE
100
AcDbPolyline
90
4
70
1
10
-5829
20
5898
10
-4977
20
5898
10
-4977
20
7823
10
-5829
20
7823
0
LWPOLYLINE
100
AcDbEntity
8
FURNITURE
100
AcDbPolyline
90
4
70
1
10
-5814
20
5949
10
-4992
20
5949
10
-4992
20
7309
10
-5814
20
7309
0
LWPOLYLINE
100
AcDbEntity
8
FURNITURE
100
AcDbPolyline
90
4
70
1
10
-5794
20
7390
10
-5012
20
7390
10
-5012
20
7742
10
-5794
20
7742
0
LWPOLYLINE
100
AcDbEntity
8
FURNITURE
100
AcDbPolyline
90
4
70
1
10
-4990
20
5853
10
-4935
20
5853
10
-4935
20
7868
10
-4990
20
7868
0
LWPOLYLINE
100
AcDbEntity
8
FURNITURE
100
AcDbPolyline
90
4
70
1
10
-5498
20
4936
10
-4917
20
4936
10
-4917
20
5742
10
-5498
20
5742
0
LWPOLYLINE
100
AcDbEntity
8
FURNITURE
100
AcDbPolyline
90
4
70
1
10
-5318
20
5198
10
-5097
20
5198
10
-5097
20
5480
10
-5318
20
5480
0
LWPOLYLINE
100
AcDbEntity
8
FURNITURE
100
AcDbPolyline
90
4
70
1
10
-5476
20
5664
10
-5441
20
5664
10
-5441
20
5699
10
-5476
20
5699
0
LWPOLYLINE
100
AcDbEntity
8
FURNITURE
100
AcDbPolyline
90
4
70
1
10
-5476
20
4979
10
-5441
20
4979
10
-5441
20
5014
10
-5476
20
5014
0
LWPOLYLINE
100
AcDbEntity
8
FURNITURE
100
AcDbPolyline
90
4
70
1
10
-4975
20
5664
10
-4940
20
5664
10
-4940
20
5699
10
-4975
20
5699
0
LWPOLYLINE
100
AcDbEntity
8
FURNITURE
100
AcDbPolyline
90
4
70
1
10
-4975
20
4979
10
-4940
20
4979
10
-4940
20
5014
10
-4975
20
5014
0
LWPOLYLINE
100
AcDbEntity
8
FURNITURE
100
AcDbPolyline
90
4
70
1
10
-6004
20
5148
10
-5613
20
5148
10
-5613
20
5530
10
-6004
20
5530
0
LWPOLYLINE
100
AcDbEntity
8
FURNITURE
100
AcDbPolyline
90
4
70
1
10
-6185
20
5311
10
-5794
20
5311
10
-5794
20
5367
10
-6185
20
5367
0
LWPOLYLINE
100
AcDbEntity
8
FURNITURE
100
AcDbPolyline
90
4
70
1
10
-5972
20
5467
10
-5946
20
5467
10
-5946
20
5493
10
-5972
20
5493
0
LWPOLYLINE
100
AcDbEntity
8
FURNITURE
100
AcDbPolyline
90
4
70
1
10
-5972
20
5185
10
-5946
20
5185
10
-5946
20
5211
10
-5972
20
5211
0
LWPOLYLINE
100
AcDbEntity
8
FURNITURE
100
AcDbPolyline
90
4
70
1
10
-5682
20
5467
10
-5655
20
5467
10
-5655
20
5493
10
-5682
20
5493
0
LWPOLYLINE
100
AcDbEntity
8
FURNITURE
100
AcDbPolyline
90
4
70
1
10
-5682
20
5185
10
-5655
20
5185
10
-5655
20
5211
10
-5682
20
5211
0
LWPOLYLINE
100
AcDbEntity
8
FURNITURE
100
AcDbPolyline
90
4
70
1
10
-8142
20
8466
10
-5903
20
8466
10
-5903
20
8926
10
-8142
20
8926
0
LWPOLYLINE
100
AcDbEntity
8
FURNITURE
100
AcDbPolyline
90
4
70
1
10
-7404
20
8461
10
-7388
20
8461
10
-7388
20
8931
10
-7404
20
8931
0
LWPOLYLINE
100
AcDbEntity
8
FURNITURE
100
AcDbPolyline
90
4
70
1
10
-6657
20
8461
10
-6641
20
8461
10
-6641
20
8931
10
-6657
20
8931
0
LWPOLYLINE
100
AcDbEntity
8
FURNITURE
100
AcDbPolyline
90
4
70
1
10
-8121
20
8445
10
-7417
20
8445
10
-7417
20
8463
10
-8121
20
8463
0
LWPOLYLINE
100
AcDbEntity
8
FURNITURE
100
AcDbPolyline
90
4
70
1
10
-7375
20
8445
10
-6671
20
8445
10
-6671
20
8463
10
-7375
20
8463
0
LWPOLYLINE
100
AcDbEntity
8
FURNITURE
100
AcDbPolyline
90
4
70
1
10
-6628
20
8445
10
-5924
20
8445
10
-5924
20
8463
10
-6628
20
8463
0
LWPOLYLINE
100
AcDbEntity
8
FURNITURE
100
AcDbPolyline
90
4
70
1
10
-7888
20
3406
10
-6513
20
3406
10
-6513
20
4021
10
-7888
20
4021
0
LWPOLYLINE
100
AcDbEntity
8
FURNITURE
100
AcDbPolyline
90
4
70
1
10
-7876
20
4034
10
-7434
20
4034
10
-7434
20
4056
10
-7876
20
4056
0
LWPOLYLINE
100
AcDbEntity
8
FURNITURE
100
AcDbPolyline
90
4
70
1
10
-7513
20
4049
10
-7495
20
4049
10
-7495
20
4074
10
-7513
20
4074
0
LWPOLYLINE
100
AcDbEntity
8
FURNITURE
100
AcDbPolyline
90
4
70
1
10
-7422
20
4034
10
-6979
20
4034
10
-6979
20
4056
10
-7422
20
4056
0
LWPOLYLINE
100
AcDbEntity
8
FURNITURE
100
AcDbPolyline
90
4
70
1
10
-7059
20
4049
10
-7041
20
4049
10
-7041
20
4074
10
-7059
20
4074
0
LWPOLYLINE
100
AcDbEntity
8
FURNITURE
100
AcDbPolyline
90
4
70
1
10
-6967
20
4034
10
-6525
20
4034
10
-6525
20
4056
10
-6967
20
4056
0
LWPOLYLINE
100
AcDbEntity
8
FURNITURE
100
AcDbPolyline
90
4
70
1
10
-6605
20
4049
10
-6587
20
4049
10
-6587
20
4074
10
-6605
20
4074
0
LWPOLYLINE
100
AcDbEntity
8
FURNITURE
100
AcDbPolyline
90
4
70
1
10
-9525
20
3780
10
-8647
20
3780
10
-8647
20
6005
10
-9525
20
6005
0
LWPOLYLINE
100
AcDbEntity
8
FURNITURE
100
AcDbPolyline
90
4
70
1
10
-9525
20
3780
10
-9174
20
3780
10
-9174
20
6005
10
-9525
20
6005
0
LWPOLYLINE
100
AcDbEntity
8
FURNITURE
100
AcDbPolyline
90
4
70
1
10
-9360
20
4372
10
-9339
20
4372
10
-9339
20
4671
10
-9360
20
4671
0
LWPOLYLINE
100
AcDbEntity
8
FURNITURE
100
AcDbPolyline
90
4
70
1
10
-9360
20
5113
10
-9339
20
5113
10
-9339
20
5413
10
-9360
20
5413
0
LWPOLYLINE
100
AcDbEntity
8
FURNITURE
100
AcDbPolyline
90
4
70
1
10
-9525
20
5955
10
-8142
20
5955
10
-8142
20
6353
10
-9525
20
6353
0
LWPOLYLINE
100
AcDbEntity
8
FURNITURE
100
AcDbPolyline
90
4
70
1
10
-9525
20
6228
10
-8472
20
6228
10
-8472
20
6353
10
-9525
20
6353
0
LWPOLYLINE
100
AcDbEntity
8
FURNITURE
100
AcDbPolyline
90
4
70
1
10
-9148
20
4756
10
-9096
20
4756
10
-9096
20
5452
10
-9148
20
5452
0
LWPOLYLINE
100
AcDbEntity
8
FURNITURE
100
AcDbPolyline
90
4
70
1
10
-9009
20
4349
10
-8958
20
4349
10
-8958
20
4878
10
-9009
20
4878
0
LWPOLYLINE
100
AcDbEntity
8
FURNITURE
100
AcDbPolyline
90
4
70
1
10
-9470
20
5558
10
-9223
20
5558
10
-9223
20
5961
10
-9470
20
5961
0
LWPOLYLINE
100
AcDbEntity
8
FURNITURE
100
AcDbPolyline
90
4
70
1
10
-9508
20
4676
10
-9185
20
4676
10
-9185
20
5108
10
-9508
20
5108
0
LWPOLYLINE
100
AcDbEntity
8
FURNITURE
100
AcDbPolyline
90
4
70
1
10
-9012
20
4096
10
-8748
20
4096
10
-8748
20
4445
10
-9012
20
4445
0
LWPOLYLINE
100
AcDbEntity
8
FURNITURE
100
AcDbPolyline
90
4
70
1
10
-9860
20
12654
10
-9638
20
12654
10
-9638
20
13670
10
-9860
20
13670
0
LWPOLYLINE
100
AcDbEntity
8
FURNITURE
100
AcDbPolyline
90
4
70
1
10
-9635
20
12722
10
-9620
20
12722
10
-9620
20
13603
10
-9635
20
13603
0
LWPOLYLINE
100
AcDbEntity
8
FURNITURE
100
AcDbPolyline
90
4
70
1
10
-5280
20
15048
10
-4917
20
15048
10
-4917
20
15839
10
-5280
20
15839
0
LWPOLYLINE
100
AcDbEntity
8
FURNITURE
100
AcDbPolyline
90
4
70
1
10
-4916
20
15229
10
-4898
20
15229
10
-4898
20
15658
10
-4916
20
15658
0
LWPOLYLINE
100
AcDbEntity
8
FURNITURE
100
AcDbPolyline
90
4
70
1
10
-4905
20
15429
10
-4880
20
15429
10
-4880
20
15457
10
-4905
20
15457
0
LWPOLYLINE
100
AcDbEntity
8
FURNITURE
100
AcDbPolyline
90
4
70
1
10
-5280
20
13919
10
-4917
20
13919
10
-4917
20
14709
10
-5280
20
14709
0
LWPOLYLINE
100
AcDbEntity
8
FURNITURE
100
AcDbPolyline
90
4
70
1
10
-4916
20
14099
10
-4898
20
14099
10
-4898
20
14529
10
-4916
20
14529
0
LWPOLYLINE
100
AcDbEntity
8
FURNITURE
100
AcDbPolyline
90
4
70
1
10
-4905
20
14300
10
-4880
20
14300
10
-4880
20
14328
10
-4905
20
14328
0
LWPOLYLINE
100
AcDbEntity
8
FURNITURE
100
AcDbPolyline
90
4
70
1
10
-6510
20
13243
10
-5300
20
13243
10
-5300
20
13817
10
-6510
20
13817
0
LWPOLYLINE
100
AcDbEntity
8
FURNITURE
100
AcDbPolyline
90
4
70
1
10
-6011
20
13815
10
-5993
20
13815
10
-5993
20
13840
10
-6011
20
13840
0
LWPOLYLINE
100
AcDbEntity
8
FURNITURE
100
AcDbPolyline
90
4
70
1
10
-5818
20
13815
10
-5799
20
13815
10
-5799
20
13840
10
-5818
20
13840
0
LWPOLYLINE
100
AcDbEntity
8
FURNITURE
100
AcDbPolyline
90
4
70
1
10
-9072
20
15943
10
-8508
20
15943
10
-8508
20
15983
10
-9072
20
15983
0
LWPOLYLINE
100
AcDbEntity
8
FURNITURE
100
AcDbPolyline
90
4
70
1
10
-7367
20
15963
10
-6510
20
15963
10
-6510
20
16415
10
-7367
20
16415
0
LWPOLYLINE
100
AcDbEntity
8
FURNITURE
100
AcDbPolyline
90
4
70
1
10
-7358
20
15915
10
-6948
20
15915
10
-6948
20
15954
10
-7358
20
15954
0
LWPOLYLINE
100
AcDbEntity
8
FURNITURE
100
AcDbPolyline
90
4
70
1
10
-7025
20
15881
10
-7007
20
15881
10
-7007
20
15909
10
-7025
20
15909
0
LWPOLYLINE
100
AcDbEntity
8
FURNITURE
100
AcDbPolyline
90
4
70
1
10
-6929
20
15915
10
-6519
20
15915
10
-6519
20
15954
10
-6929
20
15954
0
LWPOLYLINE
100
AcDbEntity
8
FURNITURE
100
AcDbPolyline
90
4
70
1
10
-6870
20
15881
10
-6852
20
15881
10
-6852
20
15909
10
-6870
20
15909
0
LWPOLYLINE
100
AcDbEntity
8
FURNITURE
100
AcDbPolyline
90
4
70
1
10
-9744
20
12284
10
-8927
20
12284
10
-8927
20
12324
10
-9744
20
12324
0
LWPOLYLINE
100
AcDbEntity
8
FURNITURE
100
AcDbPolyline
90
4
70
1
10
-8354
20
12304
10
-6510
20
12304
10
-6510
20
14025
10
-8354
20
14025
0
LWPOLYLINE
100
AcDbEntity
8
FURNITURE
100
AcDbPolyline
90
4
70
1
10
-8336
20
12324
10
-6528
20
12324
10
-6528
20
14005
10
-8336
20
14005
0
LWPOLYLINE
100
AcDbEntity
8
FURNITURE
100
AcDbPolyline
90
4
70
1
10
-8354
20
12360
10
-6984
20
12360
10
-6984
20
13968
10
-8354
20
13968
0
LWPOLYLINE
100
AcDbEntity
8
FURNITURE
100
AcDbPolyline
90
4
70
1
10
-6596
20
12304
10
-6511
20
12304
10
-6511
20
14025
10
-6596
20
14025
0
LWPOLYLINE
100
AcDbEntity
8
FURNITURE
100
AcDbPolyline
90
4
70
1
10
-6964
20
13216
10
-6581
20
13216
10
-6581
20
13905
10
-6964
20
13905
0
LWPOLYLINE
100
AcDbEntity
8
FURNITURE
100
AcDbPolyline
90
4
70
1
10
-6964
20
12424
10
-6581
20
12424
10
-6581
20
13113
10
-6964
20
13113
0
LWPOLYLINE
100
AcDbEntity
8
FURNITURE
100
AcDbPolyline
90
4
70
1
10
-9890
20
13930
10
-9378
20
13930
10
-9378
20
15963
10
-9890
20
15963
0
LWPOLYLINE
100
AcDbEntity
8
FURNITURE
100
AcDbPolyline
90
4
70
1
10
-9376
20
15292
10
-9351
20
15292
10
-9351
20
15956
10
-9376
20
15956
0
LWPOLYLINE
100
AcDbEntity
8
FURNITURE
100
AcDbPolyline
90
4
70
1
10
-9353
20
15381
10
-9335
20
15381
10
-9335
20
15402
10
-9353
20
15402
0
LWPOLYLINE
100
AcDbEntity
8
FURNITURE
100
AcDbPolyline
90
4
70
1
10
-9376
20
14614
10
-9351
20
14614
10
-9351
20
15278
10
-9376
20
15278
0
LWPOLYLINE
100
AcDbEntity
8
FURNITURE
100
AcDbPolyline
90
4
70
1
10
-9353
20
14704
10
-9335
20
14704
10
-9335
20
14724
10
-9353
20
14724
0
LWPOLYLINE
100
AcDbEntity
8
FURNITURE
100
AcDbPolyline
90
4
70
1
10
-9376
20
13937
10
-9351
20
13937
10
-9351
20
14601
10
-9376
20
14601
0
LWPOLYLINE
100
AcDbEntity
8
FURNITURE
100
AcDbPolyline
90
4
70
1
10
-9353
20
14026
10
-9335
20
14026
10
-9335
20
14047
10
-9353
20
14047
0
LWPOLYLINE
100
AcDbEntity
8
FURNITURE
100
AcDbPolyline
90
4
70
1
10
-9908
20
13930
10
-9360
20
13930
10
-9360
20
15963
10
-9908
20
15963
0
LWPOLYLINE
100
AcDbEntity
8
FURNITURE
100
AcDbPolyline
90
4
70
1
10
-5678
20
15003
10
-5326
20
15003
10
-5326
20
15793
10
-5678
20
15793
0
LWPOLYLINE
100
AcDbEntity
8
FURNITURE
100
AcDbPolyline
90
4
70
1
10
-5638
20
15714
10
-5608
20
15714
10
-5608
20
15748
10
-5638
20
15748
0
LWPOLYLINE
100
AcDbEntity
8
FURNITURE
100
AcDbPolyline
90
4
70
1
10
-5638
20
15048
10
-5608
20
15048
10
-5608
20
15082
10
-5638
20
15082
0
LWPOLYLINE
100
AcDbEntity
8
FURNITURE
100
AcDbPolyline
90
4
70
1
10
-5396
20
15714
10
-5366
20
15714
10
-5366
20
15748
10
-5396
20
15748
0
LWPOLYLINE
100
AcDbEntity
8
FURNITURE
100
AcDbPolyline
90
4
70
1
10
-5396
20
15048
10
-5366
20
15048
10
-5366
20
15082
10
-5396
20
15082
0
LWPOLYLINE
100
AcDbEntity
8
FURNITURE
100
AcDbPolyline
90
4
70
1
10
-6167
20
15150
10
-5764
20
15150
10
-5764
20
15647
10
-6167
20
15647
0
LWPOLYLINE
100
AcDbEntity
8
FURNITURE
100
AcDbPolyline
90
4
70
1
10
-6121
20
15563
10
-6093
20
15563
10
-6093
20
15595
10
-6121
20
15595
0
LWPOLYLINE
100
AcDbEntity
8
FURNITURE
100
AcDbPolyline
90
4
70
1
10
-6121
20
15202
10
-6093
20
15202
10
-6093
20
15233
10
-6121
20
15233
0
LWPOLYLINE
100
AcDbEntity
8
FURNITURE
100
AcDbPolyline
90
4
70
1
10
-5839
20
15563
10
-5811
20
15563
10
-5811
20
15595
10
-5839
20
15595
0
LWPOLYLINE
100
AcDbEntity
8
FURNITURE
100
AcDbPolyline
90
4
70
1
10
-5839
20
15202
10
-5811
20
15202
10
-5811
20
15233
10
-5839
20
15233
0
LWPOLYLINE
100
AcDbEntity
8
FURNITURE
100
AcDbPolyline
90
4
70
1
10
-6162
20
15150
10
-6112
20
15150
10
-6112
20
15647
10
-6162
20
15647
0
LWPOLYLINE
100
AcDbEntity
8
FURNITURE
100
AcDbPolyline
90
4
70
1
10
-3845
20
9088
10
-3827
20
9088
10
-3827
20
9103
10
-3845
20
9103
0
LWPOLYLINE
100
AcDbEntity
8
FURNITURE
100
AcDbPolyline
90
4
70
1
10
-3854
20
9081
10
-3819
20
9081
10
-3819
20
9110
10
-3854
20
9110
0
LWPOLYLINE
100
AcDbEntity
8
FURNITURE
100
AcDbPolyline
90
4
70
1
10
-3858
20
9048
10
-3814
20
9048
10
-3814
20
9134
10
-3858
20
9134
0
LWPOLYLINE
100
AcDbEntity
8
FURNITURE
100
AcDbPolyline
90
4
70
1
10
-3845
20
8832
10
-3827
20
8832
10
-3827
20
8848
10
-3845
20
8848
0
LWPOLYLINE
100
AcDbEntity
8
FURNITURE
100
AcDbPolyline
90
4
70
1
10
-3854
20
8826
10
-3819
20
8826
10
-3819
20
8854
10
-3854
20
8854
0
LWPOLYLINE
100
AcDbEntity
8
FURNITURE
100
AcDbPolyline
90
4
70
1
10
-3858
20
8793
10
-3814
20
8793
10
-3814
20
8879
10
-3858
20
8879
0
LWPOLYLINE
100
AcDbEntity
8
FURNITURE
100
AcDbPolyline
90
4
70
1
10
-3114
20
9088
10
-3096
20
9088
10
-3096
20
9103
10
-3114
20
9103
0
LWPOLYLINE
100
AcDbEntity
8
FURNITURE
100
AcDbPolyline
90
4
70
1
10
-3122
20
9081
10
-3087
20
9081
10
-3087
20
9110
10
-3122
20
9110
0
LWPOLYLINE
100
AcDbEntity
8
FURNITURE
100
AcDbPolyline
90
4
70
1
10
-3127
20
9048
10
-3083
20
9048
10
-3083
20
9134
10
-3127
20
9134
0
LWPOLYLINE
100
AcDbEntity
8
FURNITURE
100
AcDbPolyline
90
4
70
1
10
-3114
20
8832
10
-3096
20
8832
10
-3096
20
8848
10
-3114
20
8848
0
LWPOLYLINE
100
AcDbEntity
8
FURNITURE
100
AcDbPolyline
90
4
70
1
10
-3122
20
8826
10
-3087
20
8826
10
-3087
20
8854
10
-3122
20
8854
0
LWPOLYLINE
100
AcDbEntity
8
FURNITURE
100
AcDbPolyline
90
4
70
1
10
-3127
20
8793
10
-3083
20
8793
10
-3083
20
8879
10
-3127
20
8879
0
LWPOLYLINE
100
AcDbEntity
8
FURNITURE
100
AcDbPolyline
90
4
70
1
10
-3864
20
9108
10
-3077
20
9108
10
-3077
20
9118
10
-3864
20
9118
0
LWPOLYLINE
100
AcDbEntity
8
FURNITURE
100
AcDbPolyline
90
4
70
1
10
-3864
20
8817
10
-3077
20
8817
10
-3077
20
8827
10
-3864
20
8827
0
LWPOLYLINE
100
AcDbEntity
8
FURNITURE
100
AcDbPolyline
90
4
70
1
10
-3864
20
8817
10
-3852
20
8817
10
-3852
20
9118
10
-3864
20
9118
0
LWPOLYLINE
100
AcDbEntity
8
FURNITURE
100
AcDbPolyline
90
4
70
1
10
-3089
20
8817
10
-3077
20
8817
10
-3077
20
9118
10
-3089
20
9118
0
LWPOLYLINE
100
AcDbEntity
8
FURNITURE
100
AcDbPolyline
90
4
70
1
10
-3841
20
8827
10
-3837
20
8827
10
-3837
20
9108
10
-3841
20
9108
0
LWPOLYLINE
100
AcDbEntity
8
FURNITURE
100
AcDbPolyline
90
4
70
1
10
-3810
20
8827
10
-3806
20
8827
10
-3806
20
9108
10
-3810
20
9108
0
LWPOLYLINE
100
AcDbEntity
8
FURNITURE
100
AcDbPolyline
90
4
70
1
10
-3779
20
8827
10
-3775
20
8827
10
-3775
20
9108
10
-3779
20
9108
0
LWPOLYLINE
100
AcDbEntity
8
FURNITURE
100
AcDbPolyline
90
4
70
1
10
-3748
20
8827
10
-3744
20
8827
10
-3744
20
9108
10
-3748
20
9108
0
LWPOLYLINE
100
AcDbEntity
8
FURNITURE
100
AcDbPolyline
90
4
70
1
10
-3717
20
8827
10
-3713
20
8827
10
-3713
20
9108
10
-3717
20
9108
0
LWPOLYLINE
100
AcDbEntity
8
FURNITURE
100
AcDbPolyline
90
4
70
1
10
-3686
20
8827
10
-3682
20
8827
10
-3682
20
9108
10
-3686
20
9108
0
LWPOLYLINE
100
AcDbEntity
8
FURNITURE
100
AcDbPolyline
90
4
70
1
10
-3655
20
8827
10
-3651
20
8827
10
-3651
20
9108
10
-3655
20
9108
0
LWPOLYLINE
100
AcDbEntity
8
FURNITURE
100
AcDbPolyline
90
4
70
1
10
-3624
20
8827
10
-3620
20
8827
10
-3620
20
9108
10
-3624
20
9108
0
LWPOLYLINE
100
AcDbEntity
8
FURNITURE
100
AcDbPolyline
90
4
70
1
10
-3593
20
8827
10
-3589
20
8827
10
-3589
20
9108
10
-3593
20
9108
0
LWPOLYLINE
100
AcDbEntity
8
FURNITURE
100
AcDbPolyline
90
4
70
1
10
-3562
20
8827
10
-3558
20
8827
10
-3558
20
9108
10
-3562
20
9108
0
LWPOLYLINE
100
AcDbEntity
8
FURNITURE
100
AcDbPolyline
90
4
70
1
10
-3531
20
8827
10
-3527
20
8827
10
-3527
20
9108
10
-3531
20
9108
0
LWPOLYLINE
100
AcDbEntity
8
FURNITURE
100
AcDbPolyline
90
4
70
1
10
-3500
20
8827
10
-3496
20
8827
10
-3496
20
9108
10
-3500
20
9108
0
LWPOLYLINE
100
AcDbEntity
8
FURNITURE
100
AcDbPolyline
90
4
70
1
10
-3470
20
8827
10
-3465
20
8827
10
-3465
20
9108
10
-3470
20
9108
0
LWPOLYLINE
100
AcDbEntity
8
FURNITURE
100
AcDbPolyline
90
4
70
1
10
-3439
20
8827
10
-3434
20
8827
10
-3434
20
9108
10
-3439
20
9108
0
LWPOLYLINE
100
AcDbEntity
8
FURNITURE
100
AcDbPolyline
90
4
70
1
10
-3408
20
8827
10
-3403
20
8827
10
-3403
20
9108
10
-3408
20
9108
0
LWPOLYLINE
100
AcDbEntity
8
FURNITURE
100
AcDbPolyline
90
4
70
1
10
-3377
20
8827
10
-3372
20
8827
10
-3372
20
9108
10
-3377
20
9108
0
LWPOLYLINE
100
AcDbEntity
8
FURNITURE
100
AcDbPolyline
90
4
70
1
10
-3346
20
8827
10
-3341
20
8827
10
-3341
20
9108
10
-3346
20
9108
0
LWPOLYLINE
100
AcDbEntity
8
FURNITURE
100
AcDbPolyline
90
4
70
1
10
-3315
20
8827
10
-3310
20
8827
10
-3310
20
9108
10
-3315
20
9108
0
LWPOLYLINE
100
AcDbEntity
8
FURNITURE
100
AcDbPolyline
90
4
70
1
10
-3284
20
8827
10
-3279
20
8827
10
-3279
20
9108
10
-3284
20
9108
0
LWPOLYLINE
100
AcDbEntity
8
FURNITURE
100
AcDbPolyline
90
4
70
1
10
-3253
20
8827
10
-3248
20
8827
10
-3248
20
9108
10
-3253
20
9108
0
LWPOLYLINE
100
AcDbEntity
8
FURNITURE
100
AcDbPolyline
90
4
70
1
10
-3222
20
8827
10
-3217
20
8827
10
-3217
20
9108
10
-3222
20
9108
0
LWPOLYLINE
100
AcDbEntity
8
FURNITURE
100
AcDbPolyline
90
4
70
1
10
-3191
20
8827
10
-3186
20
8827
10
-3186
20
9108
10
-3191
20
9108
0
LWPOLYLINE
100
AcDbEntity
8
FURNITURE
100
AcDbPolyline
90
4
70
1
10
-3160
20
8827
10
-3155
20
8827
10
-3155
20
9108
10
-3160
20
9108
0
LWPOLYLINE
100
AcDbEntity
8
FURNITURE
100
AcDbPolyline
90
4
70
1
10
-3129
20
8827
10
-3125
20
8827
10
-3125
20
9108
10
-3129
20
9108
0
LWPOLYLINE
100
AcDbEntity
8
FURNITURE
100
AcDbPolyline
90
4
70
1
10
-3098
20
8827
10
-3094
20
8827
10
-3094
20
9108
10
-3098
20
9108
0
LWPOLYLINE
100
AcDbEntity
8
FURNITURE
100
AcDbPolyline
90
4
70
1
10
-3852
20
8965
10
-3089
20
8965
10
-3089
20
8970
10
-3852
20
8970
0
LWPOLYLINE
100
AcDbEntity
8
FURNITURE
100
AcDbPolyline
90
4
70
1
10
-3845
20
8659
10
-3827
20
8659
10
-3827
20
8675
10
-3845
20
8675
0
LWPOLYLINE
100
AcDbEntity
8
FURNITURE
100
AcDbPolyline
90
4
70
1
10
-3854
20
8653
10
-3819
20
8653
10
-3819
20
8682
10
-3854
20
8682
0
LWPOLYLINE
100
AcDbEntity
8
FURNITURE
100
AcDbPolyline
90
4
70
1
10
-3858
20
8620
10
-3814
20
8620
10
-3814
20
8706
10
-3858
20
8706
0
LWPOLYLINE
100
AcDbEntity
8
FURNITURE
100
AcDbPolyline
90
4
70
1
10
-3845
20
8404
10
-3827
20
8404
10
-3827
20
8419
10
-3845
20
8419
0
LWPOLYLINE
100
AcDbEntity
8
FURNITURE
100
AcDbPolyline
90
4
70
1
10
-3854
20
8397
10
-3819
20
8397
10
-3819
20
8426
10
-3854
20
8426
0
LWPOLYLINE
100
AcDbEntity
8
FURNITURE
100
AcDbPolyline
90
4
70
1
10
-3858
20
8364
10
-3814
20
8364
10
-3814
20
8451
10
-3858
20
8451
0
LWPOLYLINE
100
AcDbEntity
8
FURNITURE
100
AcDbPolyline
90
4
70
1
10
-3114
20
8659
10
-3096
20
8659
10
-3096
20
8675
10
-3114
20
8675
0
LWPOLYLINE
100
AcDbEntity
8
FURNITURE
100
AcDbPolyline
90
4
70
1
10
-3122
20
8653
10
-3087
20
8653
10
-3087
20
8682
10
-3122
20
8682
0
LWPOLYLINE
100
AcDbEntity
8
FURNITURE
100
AcDbPolyline
90
4
70
1
10
-3127
20
8620
10
-3083
20
8620
10
-3083
20
8706
10
-3127
20
8706
0
LWPOLYLINE
100
AcDbEntity
8
FURNITURE
100
AcDbPolyline
90
4
70
1
10
-3114
20
8404
10
-3096
20
8404
10
-3096
20
8419
10
-3114
20
8419
0
LWPOLYLINE
100
AcDbEntity
8
FURNITURE
100
AcDbPolyline
90
4
70
1
10
-3122
20
8397
10
-3087
20
8397
10
-3087
20
8426
10
-3122
20
8426
0
LWPOLYLINE
100
AcDbEntity
8
FURNITURE
100
AcDbPolyline
90
4
70
1
10
-3127
20
8364
10
-3083
20
8364
10
-3083
20
8451
10
-3127
20
8451
0
LWPOLYLINE
100
AcDbEntity
8
FURNITURE
100
AcDbPolyline
90
4
70
1
10
-3864
20
8680
10
-3077
20
8680
10
-3077
20
8690
10
-3864
20
8690
0
LWPOLYLINE
100
AcDbEntity
8
FURNITURE
100
AcDbPolyline
90
4
70
1
10
-3864
20
8389
10
-3077
20
8389
10
-3077
20
8399
10
-3864
20
8399
0
LWPOLYLINE
100
AcDbEntity
8
FURNITURE
100
AcDbPolyline
90
4
70
1
10
-3864
20
8389
10
-3852
20
8389
10
-3852
20
8690
10
-3864
20
8690
0
LWPOLYLINE
100
AcDbEntity
8
FURNITURE
100
AcDbPolyline
90
4
70
1
10
-3089
20
8389
10
-3077
20
8389
10
-3077
20
8690
10
-3089
20
8690
0
LWPOLYLINE
100
AcDbEntity
8
FURNITURE
100
AcDbPolyline
90
4
70
1
10
-3841
20
8399
10
-3837
20
8399
10
-3837
20
8680
10
-3841
20
8680
0
LWPOLYLINE
100
AcDbEntity
8
FURNITURE
100
AcDbPolyline
90
4
70
1
10
-3810
20
8399
10
-3806
20
8399
10
-3806
20
8680
10
-3810
20
8680
0
LWPOLYLINE
100
AcDbEntity
8
FURNITURE
100
AcDbPolyline
90
4
70
1
10
-3779
20
8399
10
-3775
20
8399
10
-3775
20
8680
10
-3779
20
8680
0
LWPOLYLINE
100
AcDbEntity
8
FURNITURE
100
AcDbPolyline
90
4
70
1
10
-3748
20
8399
10
-3744
20
8399
10
-3744
20
8680
10
-3748
20
8680
0
LWPOLYLINE
100
AcDbEntity
8
FURNITURE
100
AcDbPolyline
90
4
70
1
10
-3717
20
8399
10
-3713
20
8399
10
-3713
20
8680
10
-3717
20
8680
0
LWPOLYLINE
100
AcDbEntity
8
FURNITURE
100
AcDbPolyline
90
4
70
1
10
-3686
20
8399
10
-3682
20
8399
10
-3682
20
8680
10
-3686
20
8680
0
LWPOLYLINE
100
AcDbEntity
8
FURNITURE
100
AcDbPolyline
90
4
70
1
10
-3655
20
8399
10
-3651
20
8399
10
-3651
20
8680
10
-3655
20
8680
0
LWPOLYLINE
100
AcDbEntity
8
FURNITURE
100
AcDbPolyline
90
4
70
1
10
-3624
20
8399
10
-3620
20
8399
10
-3620
20
8680
10
-3624
20
8680
0
LWPOLYLINE
100
AcDbEntity
8
FURNITURE
100
AcDbPolyline
90
4
70
1
10
-3593
20
8399
10
-3589
20
8399
10
-3589
20
8680
10
-3593
20
8680
0
LWPOLYLINE
100
AcDbEntity
8
FURNITURE
100
AcDbPolyline
90
4
70
1
10
-3562
20
8399
10
-3558
20
8399
10
-3558
20
8680
10
-3562
20
8680
0
LWPOLYLINE
100
AcDbEntity
8
FURNITURE
100
AcDbPolyline
90
4
70
1
10
-3531
20
8399
10
-3527
20
8399
10
-3527
20
8680
10
-3531
20
8680
0
LWPOLYLINE
100
AcDbEntity
8
FURNITURE
100
AcDbPolyline
90
4
70
1
10
-3500
20
8399
10
-3496
20
8399
10
-3496
20
8680
10
-3500
20
8680
0
LWPOLYLINE
100
AcDbEntity
8
FURNITURE
100
AcDbPolyline
90
4
70
1
10
-3470
20
8399
10
-3465
20
8399
10
-3465
20
8680
10
-3470
20
8680
0
LWPOLYLINE
100
AcDbEntity
8
FURNITURE
100
AcDbPolyline
90
4
70
1
10
-3439
20
8399
10
-3434
20
8399
10
-3434
20
8680
10
-3439
20
8680
0
LWPOLYLINE
100
AcDbEntity
8
FURNITURE
100
AcDbPolyline
90
4
70
1
10
-3408
20
8399
10
-3403
20
8399
10
-3403
20
8680
10
-3408
20
8680
0
LWPOLYLINE
100
AcDbEntity
8
FURNITURE
100
AcDbPolyline
90
4
70
1
10
-3377
20
8399
10
-3372
20
8399
10
-3372
20
8680
10
-3377
20
8680
0
LWPOLYLINE
100
AcDbEntity
8
FURNITURE
100
AcDbPolyline
90
4
70
1
10
-3346
20
8399
10
-3341
20
8399
10
-3341
20
8680
10
-3346
20
8680
0
LWPOLYLINE
100
AcDbEntity
8
FURNITURE
100
AcDbPolyline
90
4
70
1
10
-3315
20
8399
10
-3310
20
8399
10
-3310
20
8680
10
-3315
20
8680
0
LWPOLYLINE
100
AcDbEntity
8
FURNITURE
100
AcDbPolyline
90
4
70
1
10
-3284
20
8399
10
-3279
20
8399
10
-3279
20
8680
10
-3284
20
8680
0
LWPOLYLINE
100
AcDbEntity
8
FURNITURE
100
AcDbPolyline
90
4
70
1
10
-3253
20
8399
10
-3248
20
8399
10
-3248
20
8680
10
-3253
20
8680
0
LWPOLYLINE
100
AcDbEntity
8
FURNITURE
100
AcDbPolyline
90
4
70
1
10
-3222
20
8399
10
-3217
20
8399
10
-3217
20
8680
10
-3222
20
8680
0
LWPOLYLINE
100
AcDbEntity
8
FURNITURE
100
AcDbPolyline
90
4
70
1
10
-3191
20
8399
10
-3186
20
8399
10
-3186
20
8680
10
-3191
20
8680
0
LWPOLYLINE
100
AcDbEntity
8
FURNITURE
100
AcDbPolyline
90
4
70
1
10
-3160
20
8399
10
-3155
20
8399
10
-3155
20
8680
10
-3160
20
8680
0
LWPOLYLINE
100
AcDbEntity
8
FURNITURE
100
AcDbPolyline
90
4
70
1
10
-3129
20
8399
10
-3125
20
8399
10
-3125
20
8680
10
-3129
20
8680
0
LWPOLYLINE
100
AcDbEntity
8
FURNITURE
100
AcDbPolyline
90
4
70
1
10
-3098
20
8399
10
-3094
20
8399
10
-3094
20
8680
10
-3098
20
8680
0
LWPOLYLINE
100
AcDbEntity
8
FURNITURE
100
AcDbPolyline
90
4
70
1
10
-3852
20
8537
10
-3089
20
8537
10
-3089
20
8542
10
-3852
20
8542
0
LWPOLYLINE
100
AcDbEntity
8
FURNITURE
100
AcDbPolyline
90
4
70
1
10
-4000
20
8333
10
-3933
20
8333
10
-3933
20
10028
10
-4000
20
10028
0
LWPOLYLINE
100
AcDbEntity
8
FURNITURE
100
AcDbPolyline
90
4
70
1
10
-3988
20
8333
10
-3959
20
8333
10
-3959
20
9181
10
-3988
20
9181
0
LWPOLYLINE
100
AcDbEntity
8
FURNITURE
100
AcDbPolyline
90
4
70
1
10
-4009
20
8390
10
-3988
20
8390
10
-3988
20
8405
10
-4009
20
8405
0
LWPOLYLINE
100
AcDbEntity
8
FURNITURE
100
AcDbPolyline
90
4
70
1
10
-3116
20
13371
10
-2496
20
13371
10
-2496
20
14133
10
-3116
20
14133
0
LWPOLYLINE
100
AcDbEntity
8
FURNITURE
100
AcDbPolyline
90
4
70
1
10
-3116
20
12608
10
-2496
20
12608
10
-2496
20
13371
10
-3116
20
13371
0
LWPOLYLINE
100
AcDbEntity
8
FURNITURE
100
AcDbPolyline
90
4
70
1
10
-3116
20
11846
10
-2496
20
11846
10
-2496
20
12608
10
-3116
20
12608
0
LWPOLYLINE
100
AcDbEntity
8
FURNITURE
100
AcDbPolyline
90
4
70
1
10
-3116
20
11083
10
-2496
20
11083
10
-2496
20
11846
10
-3116
20
11846
0
LWPOLYLINE
100
AcDbEntity
8
FURNITURE
100
AcDbPolyline
90
4
70
1
10
-3116
20
10321
10
-2496
20
10321
10
-2496
20
11083
10
-3116
20
11083
0
LWPOLYLINE
100
AcDbEntity
8
FURNITURE
100
AcDbPolyline
90
4
70
1
10
-3116
20
10112
10
-2496
20
10112
10
-2496
20
10321
10
-3116
20
10321
0
LWPOLYLINE
100
AcDbEntity
8
FURNITURE
100
AcDbPolyline
90
4
70
1
10
-4897
20
13371
10
-4277
20
13371
10
-4277
20
14133
10
-4897
20
14133
0
LWPOLYLINE
100
AcDbEntity
8
FURNITURE
100
AcDbPolyline
90
4
70
1
10
-4897
20
12608
10
-4277
20
12608
10
-4277
20
13371
10
-4897
20
13371
0
LWPOLYLINE
100
AcDbEntity
8
FURNITURE
100
AcDbPolyline
90
4
70
1
10
-4897
20
12291
10
-4277
20
12291
10
-4277
20
12608
10
-4897
20
12608
0
LWPOLYLINE
100
AcDbEntity
8
FURNITURE
100
AcDbPolyline
90
4
70
1
10
-2827
20
10112
10
-2497
20
10112
10
-2497
20
14133
10
-2827
20
14133
0
LWPOLYLINE
100
AcDbEntity
8
FURNITURE
100
AcDbPolyline
90
4
70
1
10
-3065
20
10112
10
-2496
20
10112
10
-2496
20
14133
10
-3065
20
14133
0
LWPOLYLINE
100
AcDbEntity
8
FURNITURE
100
AcDbPolyline
90
4
70
1
10
-3074
20
10111
10
-3062
20
10111
10
-3062
20
10114
10
-3074
20
10114
0
LWPOLYLINE
100
AcDbEntity
8
FURNITURE
100
AcDbPolyline
90
4
70
1
10
-2836
20
10111
10
-2824
20
10111
10
-2824
20
10114
10
-2836
20
10114
0
LWPOLYLINE
100
AcDbEntity
8
FURNITURE
100
AcDbPolyline
90
4
70
1
10
-3074
20
10620
10
-3062
20
10620
10
-3062
20
10622
10
-3074
20
10622
0
LWPOLYLINE
100
AcDbEntity
8
FURNITURE
100
AcDbPolyline
90
4
70
1
10
-2836
20
10620
10
-2824
20
10620
10
-2824
20
10622
10
-2836
20
10622
0
LWPOLYLINE
100
AcDbEntity
8
FURNITURE
100
AcDbPolyline
90
4
70
1
10
-3074
20
11128
10
-3062
20
11128
10
-3062
20
11130
10
-3074
20
11130
0
LWPOLYLINE
100
AcDbEntity
8
FURNITURE
100
AcDbPolyline
90
4
70
1
10
-2836
20
11128
10
-2824
20
11128
10
-2824
20
11130
10
-2836
20
11130
0
LWPOLYLINE
100
AcDbEntity
8
FURNITURE
100
AcDbPolyline
90
4
70
1
10
-3074
20
11636
10
-3062
20
11636
10
-3062
20
11639
10
-3074
20
11639
0
LWPOLYLINE
100
AcDbEntity
8
FURNITURE
100
AcDbPolyline
90
4
70
1
10
-2836
20
11636
10
-2824
20
11636
10
-2824
20
11639
10
-2836
20
11639
0
LWPOLYLINE
100
AcDbEntity
8
FURNITURE
100
AcDbPolyline
90
4
70
1
10
-3074
20
12144
10
-3062
20
12144
10
-3062
20
12147
10
-3074
20
12147
0
LWPOLYLINE
100
AcDbEntity
8
FURNITURE
100
AcDbPolyline
90
4
70
1
10
-2836
20
12144
10
-2824
20
12144
10
-2824
20
12147
10
-2836
20
12147
0
LWPOLYLINE
100
AcDbEntity
8
FURNITURE
100
AcDbPolyline
90
4
70
1
10
-3074
20
12653
10
-3062
20
12653
10
-3062
20
12655
10
-3074
20
12655
0
LWPOLYLINE
100
AcDbEntity
8
FURNITURE
100
AcDbPolyline
90
4
70
1
10
-2836
20
12653
10
-2824
20
12653
10
-2824
20
12655
10
-2836
20
12655
0
LWPOLYLINE
100
AcDbEntity
8
FURNITURE
100
AcDbPolyline
90
4
70
1
10
-3074
20
13161
10
-3062
20
13161
10
-3062
20
13164
10
-3074
20
13164
0
LWPOLYLINE
100
AcDbEntity
8
FURNITURE
100
AcDbPolyline
90
4
70
1
10
-2836
20
13161
10
-2824
20
13161
10
-2824
20
13164
10
-2836
20
13164
0
LWPOLYLINE
100
AcDbEntity
8
FURNITURE
100
AcDbPolyline
90
4
70
1
10
-3074
20
13669
10
-3062
20
13669
10
-3062
20
13672
10
-3074
20
13672
0
LWPOLYLINE
100
AcDbEntity
8
FURNITURE
100
AcDbPolyline
90
4
70
1
10
-2836
20
13669
10
-2824
20
13669
10
-2824
20
13672
10
-2836
20
13672
0
LWPOLYLINE
100
AcDbEntity
8
FURNITURE
100
AcDbPolyline
90
4
70
1
10
-4897
20
10629
10
-4566
20
10629
10
-4566
20
11138
10
-4897
20
11138
0
LWPOLYLINE
100
AcDbEntity
8
FURNITURE
100
AcDbPolyline
90
4
70
1
10
-4897
20
11783
10
-4566
20
11783
10
-4566
20
14133
10
-4897
20
14133
0
LWPOLYLINE
100
AcDbEntity
8
FURNITURE
100
AcDbPolyline
90
4
70
1
10
-4897
20
10629
10
-4432
20
10629
10
-4432
20
14133
10
-4897
20
14133
0
LWPOLYLINE
100
AcDbEntity
8
FURNITURE
100
AcDbPolyline
90
4
70
1
10
-4435
20
10628
10
-4423
20
10628
10
-4423
20
10631
10
-4435
20
10631
0
LWPOLYLINE
100
AcDbEntity
8
FURNITURE
100
AcDbPolyline
90
4
70
1
10
-4570
20
10628
10
-4557
20
10628
10
-4557
20
10631
10
-4570
20
10631
0
LWPOLYLINE
100
AcDbEntity
8
FURNITURE
100
AcDbPolyline
90
4
70
1
10
-4435
20
11136
10
-4423
20
11136
10
-4423
20
11139
10
-4435
20
11139
0
LWPOLYLINE
100
AcDbEntity
8
FURNITURE
100
AcDbPolyline
90
4
70
1
10
-4435
20
11645
10
-4423
20
11645
10
-4423
20
11647
10
-4435
20
11647
0
LWPOLYLINE
100
AcDbEntity
8
FURNITURE
100
AcDbPolyline
90
4
70
1
10
-4435
20
12153
10
-4423
20
12153
10
-4423
20
12156
10
-4435
20
12156
0
LWPOLYLINE
100
AcDbEntity
8
FURNITURE
100
AcDbPolyline
90
4
70
1
10
-4570
20
12153
10
-4557
20
12153
10
-4557
20
12156
10
-4570
20
12156
0
LWPOLYLINE
100
AcDbEntity
8
FURNITURE
100
AcDbPolyline
90
4
70
1
10
-4435
20
12661
10
-4423
20
12661
10
-4423
20
12664
10
-4435
20
12664
0
LWPOLYLINE
100
AcDbEntity
8
FURNITURE
100
AcDbPolyline
90
4
70
1
10
-4570
20
12661
10
-4557
20
12661
10
-4557
20
12664
10
-4570
20
12664
0
LWPOLYLINE
100
AcDbEntity
8
FURNITURE
100
AcDbPolyline
90
4
70
1
10
-4435
20
13170
10
-4423
20
13170
10
-4423
20
13172
10
-4435
20
13172
0
LWPOLYLINE
100
AcDbEntity
8
FURNITURE
100
AcDbPolyline
90
4
70
1
10
-4570
20
13170
10
-4557
20
13170
10
-4557
20
13172
10
-4570
20
13172
0
LWPOLYLINE
100
AcDbEntity
8
FURNITURE
100
AcDbPolyline
90
4
70
1
10
-4435
20
13678
10
-4423
20
13678
10
-4423
20
13680
10
-4435
20
13680
0
LWPOLYLINE
100
AcDbEntity
8
FURNITURE
100
AcDbPolyline
90
4
70
1
10
-4570
20
13678
10
-4557
20
13678
10
-4557
20
13680
10
-4570
20
13680
0
LWPOLYLINE
100
AcDbEntity
8
FURNITURE
100
AcDbPolyline
90
4
70
1
10
-2910
20
10112
10
-2496
20
10112
10
-2496
20
10621
10
-2910
20
10621
0
LWPOLYLINE
100
AcDbEntity
8
FURNITURE
100
AcDbPolyline
90
4
70
1
10
-2926
20
10151
10
-2910
20
10151
10
-2910
20
10583
10
-2926
20
10583
0
LWPOLYLINE
100
AcDbEntity
8
FURNITURE
100
AcDbPolyline
90
4
70
1
10
-3116
20
10112
10
-2496
20
10112
10
-2496
20
10833
10
-3116
20
10833
0
LWPOLYLINE
100
AcDbEntity
8
FURNITURE
100
AcDbPolyline
90
4
70
1
10
-3132
20
10134
10
-3117
20
10134
10
-3117
20
10811
10
-3132
20
10811
0
LWPOLYLINE
100
AcDbEntity
8
FURNITURE
100
AcDbPolyline
90
4
70
1
10
-2602
20
10112
10
-2497
20
10112
10
-2497
20
14133
10
-2602
20
14133
0
LWPOLYLINE
100
AcDbEntity
8
FURNITURE
100
AcDbPolyline
90
4
70
1
10
-3116
20
12146
10
-2496
20
12146
10
-2496
20
12739
10
-3116
20
12739
0
LWPOLYLINE
100
AcDbEntity
8
FURNITURE
100
AcDbPolyline
90
4
70
1
10
-3098
20
12156
10
-2515
20
12156
10
-2515
20
12728
10
-3098
20
12728
0
LWPOLYLINE
100
AcDbEntity
8
FURNITURE
100
AcDbPolyline
90
24
70
1
10
-2874
20
12620
10
-2871
20
12606
10
-2865
20
12593
10
-2854
20
12581
10
-2840
20
12573
10
-2824
20
12567
10
-2806
20
12565
10
-2789
20
12567
10
-2773
20
12573
10
-2759
20
12581
10
-2748
20
12593
10
-2742
20
12606
10
-2739
20
12620
10
-2742
20
12634
10
-2748
20
12648
10
-2759
20
12659
10
-2773
20
12668
10
-2789
20
12673
10
-2806
20
12675
10
-2824
20
12673
10
-2840
20
12668
10
-2854
20
12659
10
-2865
20
12648
10
-2871
20
12634
0
LWPOLYLINE
100
AcDbEntity
8
FURNITURE
100
AcDbPolyline
90
24
70
1
10
-2874
20
12442
10
-2871
20
12428
10
-2865
20
12415
10
-2854
20
12403
10
-2840
20
12395
10
-2824
20
12389
10
-2806
20
12387
10
-2789
20
12389
10
-2773
20
12395
10
-2759
20
12403
10
-2748
20
12415
10
-2742
20
12428
10
-2739
20
12442
10
-2742
20
12457
10
-2748
20
12470
10
-2759
20
12481
10
-2773
20
12490
10
-2789
20
12495
10
-2806
20
12497
10
-2824
20
12495
10
-2840
20
12490
10
-2854
20
12481
10
-2865
20
12470
10
-2871
20
12457
0
LWPOLYLINE
100
AcDbEntity
8
FURNITURE
100
AcDbPolyline
90
24
70
1
10
-2874
20
12264
10
-2871
20
12250
10
-2865
20
12237
10
-2854
20
12225
10
-2840
20
12217
10
-2824
20
12211
10
-2806
20
12209
10
-2789
20
12211
10
-2773
20
12217
10
-2759
20
12225
10
-2748
20
12237
10
-2742
20
12250
10
-2739
20
12264
10
-2742
20
12279
10
-2748
20
12292
10
-2759
20
12303
10
-2773
20
12312
10
-2789
20
12318
10
-2806
20
12319
10
-2824
20
12318
10
-2840
20
12312
10
-2854
20
12303
10
-2865
20
12292
10
-2871
20
12279
0
LWPOLYLINE
100
AcDbEntity
8
FURNITURE
100
AcDbPolyline
90
4
70
1
10
-4897
20
13423
10
-4268
20
13423
10
-4268
20
14133
10
-4897
20
14133
0
LWPOLYLINE
100
AcDbEntity
8
FURNITURE
100
AcDbPolyline
90
4
70
1
10
-4897
20
10629
10
-4277
20
10629
10
-4277
20
11138
10
-4897
20
11138
0
LWPOLYLINE
100
AcDbEntity
8
FURNITURE
100
AcDbPolyline
90
4
70
1
10
-4278
20
10714
10
-4252
20
10714
10
-4252
20
11053
10
-4278
20
11053
0
LWPOLYLINE
100
AcDbEntity
8
FURNITURE
100
AcDbPolyline
90
4
70
1
10
-4277
20
10650
10
-4261
20
10650
10
-4261
20
11116
10
-4277
20
11116
0
LWPOLYLINE
100
AcDbEntity
8
FURNITURE
100
AcDbPolyline
90
4
70
1
10
-4897
20
11138
10
-4425
20
11138
10
-4425
20
11783
10
-4897
20
11783
0
LWPOLYLINE
100
AcDbEntity
8
FURNITURE
100
AcDbPolyline
90
4
70
1
10
-4850
20
11188
10
-4471
20
11188
10
-4471
20
11732
10
-4850
20
11732
0
LWPOLYLINE
100
AcDbEntity
8
FURNITURE
100
AcDbPolyline
90
4
70
1
10
-4425
20
11138
10
-4277
20
11138
10
-4277
20
11783
10
-4425
20
11783
0
LWPOLYLINE
100
AcDbEntity
8
FURNITURE
100
AcDbPolyline
90
4
70
1
10
-4838
20
11450
10
-4812
20
11450
10
-4812
20
11471
10
-4838
20
11471
0
LWPOLYLINE
100
AcDbEntity
8
FURNITURE
100
AcDbPolyline
90
4
70
1
10
-4835
20
11451
10
-4670
20
11451
10
-4670
20
11470
10
-4835
20
11470
0
LWPOLYLINE
100
AcDbEntity
8
FURNITURE
100
AcDbPolyline
90
4
70
1
10
-4897
20
11138
10
-4566
20
11138
10
-4566
20
11783
10
-4897
20
11783
0
LWPOLYLINE
100
AcDbEntity
8
FURNITURE
100
AcDbPolyline
90
4
70
1
10
-4897
20
11783
10
-4277
20
11783
10
-4277
20
12291
10
-4897
20
12291
0
LWPOLYLINE
100
AcDbEntity
8
FURNITURE
100
AcDbPolyline
90
4
70
1
10
-4277
20
11794
10
-4259
20
11794
10
-4259
20
12281
10
-4277
20
12281
0
LWPOLYLINE
100
AcDbEntity
8
FURNITURE
100
AcDbPolyline
90
4
70
1
10
-4264
20
11826
10
-4239
20
11826
10
-4239
20
12249
10
-4264
20
12249
0
LWPOLYLINE
100
AcDbEntity
8
FURNITURE
100
AcDbPolyline
90
4
70
1
10
-4897
20
12291
10
-4740
20
12291
10
-4740
20
12759
10
-4897
20
12759
0
LWPOLYLINE
100
AcDbEntity
8
FURNITURE
100
AcDbPolyline
90
4
70
1
10
-3451
20
9154
10
-2716
20
9154
10
-2716
20
10067
10
-3451
20
10067
0
LWPOLYLINE
100
AcDbEntity
8
FURNITURE
100
AcDbPolyline
90
4
70
1
10
-3473
20
9159
10
-3451
20
9159
10
-3451
20
9606
10
-3473
20
9606
0
LWPOLYLINE
100
AcDbEntity
8
FURNITURE
100
AcDbPolyline
90
4
70
1
10
-3499
20
9529
10
-3475
20
9529
10
-3475
20
9559
10
-3499
20
9559
0
LWPOLYLINE
100
AcDbEntity
8
FURNITURE
100
AcDbPolyline
90
4
70
1
10
-3473
20
9616
10
-3451
20
9616
10
-3451
20
10062
10
-3473
20
10062
0
LWPOLYLINE
100
AcDbEntity
8
FURNITURE
100
AcDbPolyline
90
4
70
1
10
-3499
20
9663
10
-3475
20
9663
10
-3475
20
9693
10
-3499
20
9693
0
TEXT
100
AcDbEntity
8
ROOM_LABELS
100
AcDbText
10
-2928.5865384615386
20
5910.662576687117
30
0
40
150
1
Bedroom 3
50
0
0
TEXT
100
AcDbEntity
8
ROOM_LABELS
100
AcDbText
10
-6519.70576923077
20
6453.478527607362
30
0
40
150
1
Study
50
0
0
TEXT
100
AcDbEntity
8
ROOM_LABELS
100
AcDbText
10
-8833.769230769232
20
5066.282208588957
30
0
40
150
1
Balcony office
50
0
0
TEXT
100
AcDbEntity
8
ROOM_LABELS
100
AcDbText
10
-6519.70576923077
20
2583.401840490798
30
0
40
150
1
Terrace
50
0
0
TEXT
100
AcDbEntity
8
ROOM_LABELS
100
AcDbText
10
-3696.7403846153848
20
12122.889570552148
30
0
40
150
1
Kitchen
50
0
0
TEXT
100
AcDbEntity
8
ROOM_LABELS
100
AcDbText
10
-7393.4807692307695
20
10665.328220858897
30
0
40
150
1
Lobby / Dining
50
0
0
TEXT
100
AcDbEntity
8
ROOM_LABELS
100
AcDbText
10
-11551.113461538462
20
11700.699386503067
30
0
40
150
1
Drawing Room
50
0
0
TEXT
100
AcDbEntity
8
ROOM_LABELS
100
AcDbText
10
-8200.042307692309
20
14133.319018404907
30
0
40
150
1
Bedroom 1
50
0
0
TEXT
100
AcDbEntity
8
ROOM_LABELS
100
AcDbText
10
-5876.376923076923
20
14736.447852760737
30
0
40
150
1
Bedroom 1 balcony
50
0
0
TEXT
100
AcDbEntity
8
ROOM_LABELS
100
AcDbText
10
-11551.113461538462
20
15972.861963190186
30
0
40
150
1
Main entry
50
0
0
ENDSEC
0
EOF
